<svg width="17" height="18" viewBox="0 0 17 18" fill="none" xmlns="http://www.w3.org/2000/svg">
<path d="M11.6875 8.40527H9.5625V6.28027C9.5625 5.99848 9.45056 5.72823 9.2513 5.52897C9.05204 5.32971 8.78179 5.21777 8.5 5.21777C8.21821 5.21777 7.94796 5.32971 7.7487 5.52897C7.54944 5.72823 7.4375 5.99848 7.4375 6.28027V8.40527H5.3125C5.03071 8.40527 4.76046 8.51721 4.5612 8.71647C4.36194 8.91573 4.25 9.18598 4.25 9.46777C4.25 9.74957 4.36194 10.0198 4.5612 10.2191C4.76046 10.4183 5.03071 10.5303 5.3125 10.5303H7.4375V12.6553C7.4375 12.9371 7.54944 13.2073 7.7487 13.4066C7.94796 13.6058 8.21821 13.7178 8.5 13.7178C8.78179 13.7178 9.05204 13.6058 9.2513 13.4066C9.45056 13.2073 9.5625 12.9371 9.5625 12.6553V10.5303H11.6875C11.9693 10.5303 12.2395 10.4183 12.4388 10.2191C12.6381 10.0198 12.75 9.74957 12.75 9.46777C12.75 9.18598 12.6381 8.91573 12.4388 8.71647C12.2395 8.51721 11.9693 8.40527 11.6875 8.40527Z" fill="black"/>
</svg>
