<svg width="24" height="27" viewBox="0 0 24 27" fill="none" xmlns="http://www.w3.org/2000/svg">
<path d="M7.02704 23.2986C7.45712 24.2875 8.16667 25.1293 9.06854 25.7206C9.97042 26.3118 11.0253 26.6268 12.1038 26.6268C13.1822 26.6268 14.2371 26.3118 15.139 25.7206C16.0408 25.1293 16.7504 24.2875 17.1805 23.2986H7.02704Z" fill="black"/>
<path d="M23.6329 13.9229L21.7069 7.57365C21.0902 5.35297 19.7492 3.40197 17.897 2.03042C16.0448 0.658876 13.7875 -0.0546059 11.4835 0.00326201C9.17948 0.0611299 6.96083 0.88703 5.17982 2.34983C3.3988 3.81263 2.1575 5.82849 1.653 8.07733L0.157498 14.2202C-0.0412728 15.0365 -0.0520423 15.8872 0.126002 16.7082C0.304047 17.5293 0.666255 18.2991 1.18529 18.9597C1.70433 19.6203 2.36663 20.1544 3.12222 20.5217C3.87782 20.8889 4.70696 21.0797 5.54707 21.0798H18.3243C19.1904 21.0798 20.0446 20.877 20.8183 20.4876C21.592 20.0982 22.2637 19.533 22.7797 18.8373C23.2958 18.1416 23.6417 17.3348 23.7898 16.4814C23.938 15.628 23.8842 14.7518 23.6329 13.9229Z" fill="black"/>
</svg>
