<svg width="25" height="33" viewBox="0 0 25 33" fill="none" xmlns="http://www.w3.org/2000/svg">
<path d="M19.8952 3.48004C18.6642 2.45666 17.2344 1.69908 15.6958 1.25505C14.1573 0.811023 12.5433 0.690164 10.9557 0.900092C8.01871 1.28128 5.33699 2.76485 3.45509 5.04957C1.57319 7.33429 0.632164 10.2489 0.823099 13.2016C1.01403 16.1542 2.32261 18.9237 4.48312 20.9475C6.64364 22.9713 9.49413 24.0978 12.4558 24.0983H19.2393C20.5273 24.0968 21.762 23.585 22.6727 22.6751C23.5834 21.7653 24.0957 20.5318 24.0972 19.2451V11.7188C23.9944 10.1322 23.5687 8.58332 22.8462 7.16673C22.1237 5.75014 21.1195 4.49568 19.8952 3.48004ZM8.55204 7.59749H12.4383C12.696 7.59749 12.9431 7.69975 13.1253 7.88178C13.3075 8.06381 13.4099 8.31069 13.4099 8.56812C13.4099 8.82555 13.3075 9.07244 13.1253 9.25447C12.9431 9.4365 12.696 9.53876 12.4383 9.53876H8.55204C8.29436 9.53876 8.04724 9.4365 7.86503 9.25447C7.68283 9.07244 7.58047 8.82555 7.58047 8.56812C7.58047 8.31069 7.68283 8.06381 7.86503 7.88178C8.04724 7.69975 8.29436 7.59749 8.55204 7.59749ZM16.3246 17.3039H8.55204C8.29436 17.3039 8.04724 17.2016 7.86503 17.0196C7.68283 16.8375 7.58047 16.5906 7.58047 16.3332C7.58047 16.0758 7.68283 15.8289 7.86503 15.6469C8.04724 15.4648 8.29436 15.3626 8.55204 15.3626H16.3246C16.5823 15.3626 16.8294 15.4648 17.0116 15.6469C17.1938 15.8289 17.2962 16.0758 17.2962 16.3332C17.2962 16.5906 17.1938 16.8375 17.0116 17.0196C16.8294 17.2016 16.5823 17.3039 16.3246 17.3039ZM16.3246 13.4213H8.55204C8.29436 13.4213 8.04724 13.319 7.86503 13.137C7.68283 12.955 7.58047 12.7081 7.58047 12.4507C7.58047 12.1932 7.68283 11.9464 7.86503 11.7643C8.04724 11.5823 8.29436 11.48 8.55204 11.48H16.3246C16.5823 11.48 16.8294 11.5823 17.0116 11.7643C17.1938 11.9464 17.2962 12.1932 17.2962 12.4507C17.2962 12.7081 17.1938 12.955 17.0116 13.137C16.8294 13.319 16.5823 13.4213 16.3246 13.4213Z" fill="black"/>
<path d="M7.38459 32.5705C7.04941 32.5705 6.73845 32.518 6.45173 32.413C6.16904 32.304 5.9227 32.1505 5.7127 31.9527C5.50674 31.7548 5.34521 31.5226 5.2281 31.256C5.11098 30.9855 5.05243 30.6886 5.05243 30.3656C5.05243 30.0425 5.11098 29.7477 5.2281 29.4812C5.34521 29.2106 5.50674 28.9764 5.7127 28.7785C5.9227 28.5806 6.16904 28.4292 6.45173 28.3242C6.73845 28.2151 7.04941 28.1606 7.38459 28.1606C7.77632 28.1606 8.12564 28.2293 8.43256 28.3666C8.74351 28.5039 9.00197 28.7018 9.20793 28.9602L8.44467 29.6508C8.30737 29.4892 8.15593 29.3661 7.99035 29.2813C7.82882 29.1965 7.64709 29.1541 7.44517 29.1541C7.27152 29.1541 7.112 29.1823 6.96662 29.2389C6.82124 29.2954 6.69605 29.3782 6.59105 29.4872C6.49009 29.5922 6.40932 29.7194 6.34875 29.8689C6.29221 30.0183 6.26394 30.1838 6.26394 30.3656C6.26394 30.5473 6.29221 30.7129 6.34875 30.8623C6.40932 31.0117 6.49009 31.1409 6.59105 31.25C6.69605 31.355 6.82124 31.4357 6.96662 31.4923C7.112 31.5488 7.27152 31.5771 7.44517 31.5771C7.64709 31.5771 7.82882 31.5347 7.99035 31.4499C8.15593 31.3651 8.30737 31.2419 8.44467 31.0804L9.20793 31.7709C9.00197 32.0254 8.74351 32.2232 8.43256 32.3646C8.12564 32.5019 7.77632 32.5705 7.38459 32.5705Z" fill="black"/>
<path d="M11.8265 29.148C12.0809 29.148 12.3111 29.2005 12.5171 29.3055C12.723 29.4065 12.8846 29.564 13.0017 29.778C13.1228 29.992 13.1834 30.2687 13.1834 30.6079V32.4857H12.0325V30.7957C12.0325 30.5614 11.984 30.3918 11.8871 30.2868C11.7942 30.1778 11.6629 30.1233 11.4933 30.1233C11.3722 30.1233 11.2611 30.1515 11.1602 30.2081C11.0592 30.2606 10.9805 30.3434 10.9239 30.4564C10.8674 30.5695 10.8391 30.7169 10.8391 30.8986V32.4857H9.68818V27.991H10.8391V30.1354L10.5726 29.8628C10.6978 29.6245 10.8694 29.4468 11.0875 29.3297C11.3056 29.2086 11.5519 29.148 11.8265 29.148Z" fill="black"/>
<path d="M15.9111 32.4857V31.8739L15.8323 31.7225V30.5958C15.8323 30.414 15.7758 30.2747 15.6627 30.1778C15.5537 30.0768 15.378 30.0264 15.1357 30.0264C14.9782 30.0264 14.8187 30.0526 14.6571 30.1051C14.4956 30.1536 14.3583 30.2222 14.2452 30.3111L13.8575 29.5296C14.0433 29.4085 14.2654 29.3156 14.5239 29.251C14.7864 29.1823 15.0468 29.148 15.3053 29.148C15.8384 29.148 16.2503 29.2712 16.5411 29.5175C16.8359 29.7598 16.9833 30.1414 16.9833 30.6624V32.4857H15.9111ZM14.9419 32.5402C14.6794 32.5402 14.4572 32.4958 14.2755 32.407C14.0938 32.3181 13.9545 32.197 13.8575 32.0435C13.7647 31.8901 13.7182 31.7184 13.7182 31.5286C13.7182 31.3267 13.7687 31.1531 13.8697 31.0077C13.9747 30.8583 14.1342 30.7452 14.3482 30.6685C14.5622 30.5877 14.8389 30.5473 15.1781 30.5473H15.9535V31.147H15.3356C15.1498 31.147 15.0186 31.1773 14.9419 31.2379C14.8692 31.2984 14.8328 31.3792 14.8328 31.4802C14.8328 31.5811 14.8712 31.6619 14.9479 31.7225C15.0246 31.783 15.1296 31.8133 15.2629 31.8133C15.3881 31.8133 15.5012 31.783 15.6021 31.7225C15.7071 31.6579 15.7839 31.5609 15.8323 31.4317L15.9898 31.8557C15.9292 32.0819 15.8101 32.2535 15.6324 32.3706C15.4588 32.4837 15.2286 32.5402 14.9419 32.5402Z" fill="black"/>
<path d="M19.1757 32.5402C18.7557 32.5402 18.4286 32.4373 18.1943 32.2313C17.9601 32.0213 17.843 31.7063 17.843 31.2863V28.4696H18.9939V31.2742C18.9939 31.3913 19.0263 31.4842 19.0909 31.5529C19.1555 31.6175 19.2383 31.6498 19.3392 31.6498C19.4765 31.6498 19.5936 31.6155 19.6906 31.5468L19.9753 32.3525C19.8784 32.4171 19.7592 32.4635 19.6179 32.4918C19.4765 32.5241 19.3291 32.5402 19.1757 32.5402ZM17.3645 30.1838V29.3237H19.7451V30.1838H17.3645Z" fill="black"/>
</svg>
