<svg width="15" height="16" viewBox="0 0 15 16" fill="none" xmlns="http://www.w3.org/2000/svg">
<path d="M8.82558 8.46772L11.25 6.04085C11.4074 5.86195 11.4907 5.62982 11.4831 5.39165C11.4755 5.15349 11.3775 4.92715 11.209 4.75866C11.0405 4.59016 10.8142 4.49215 10.576 4.48455C10.3379 4.47695 10.1057 4.56032 9.92683 4.71772L7.49996 7.1421L5.06871 4.71022C4.98162 4.62314 4.87824 4.55406 4.76446 4.50693C4.65068 4.4598 4.52874 4.43555 4.40558 4.43555C4.28243 4.43555 4.16048 4.4598 4.0467 4.50693C3.93292 4.55406 3.82954 4.62314 3.74246 4.71022C3.65537 4.7973 3.5863 4.90069 3.53917 5.01447C3.49204 5.12825 3.46778 5.25019 3.46778 5.37335C3.46778 5.4965 3.49204 5.61845 3.53917 5.73223C3.5863 5.84601 3.65537 5.94939 3.74246 6.03647L6.17433 8.46772L3.74996 10.894C3.65488 10.979 3.57814 11.0825 3.52443 11.1981C3.47073 11.3138 3.44119 11.4392 3.43762 11.5667C3.43406 11.6942 3.45653 11.821 3.50368 11.9395C3.55084 12.058 3.62167 12.1657 3.71184 12.2558C3.80202 12.346 3.90965 12.4168 4.02814 12.464C4.14663 12.5111 4.2735 12.5336 4.40098 12.5301C4.52846 12.5265 4.65387 12.4969 4.76955 12.4432C4.88522 12.3895 4.98871 12.3128 5.07371 12.2177L7.49996 9.79335L9.92371 12.2177C10.0996 12.3936 10.3381 12.4924 10.5868 12.4924C10.8356 12.4924 11.0741 12.3936 11.25 12.2177C11.4258 12.0419 11.5246 11.8033 11.5246 11.5546C11.5246 11.3059 11.4258 11.0673 11.25 10.8915L8.82558 8.46772Z" fill="black"/>
</svg>
