<svg width="21" height="20" viewBox="0 0 21 20" fill="none" xmlns="http://www.w3.org/2000/svg">
<g clip-path="url(#clip0_222_839)">
<path d="M18.99 17.443H18.5767V11.9203C18.5754 10.7549 18.1119 9.63773 17.2879 8.81372C16.4639 7.98972 15.3467 7.52621 14.1814 7.5249H11.5514V5.3206C11.9269 5.10448 12.2391 4.79354 12.4567 4.41887C12.6742 4.04421 12.7896 3.61898 12.7912 3.18573C12.6574 2.2415 12.241 1.35984 11.5969 0.656613C11.4299 0.484836 11.2301 0.34829 11.0095 0.25505C10.7888 0.16181 10.5516 0.11377 10.3121 0.11377C10.0725 0.11377 9.83536 0.16181 9.61468 0.25505C9.394 0.34829 9.19426 0.484836 9.02726 0.656613C8.38315 1.35997 7.96657 2.24153 7.83213 3.18573C7.83373 3.61898 7.94909 4.04421 8.16666 4.41887C8.38424 4.79354 8.69639 5.10448 9.07189 5.3206V7.5249H6.44194C5.27662 7.52621 4.1594 7.98972 3.3354 8.81372C2.51139 9.63773 2.04788 10.7549 2.04657 11.9203V17.443H1.63332C1.30451 17.443 0.989173 17.5736 0.756673 17.8061C0.524172 18.0386 0.393555 18.354 0.393555 18.6828C0.393555 19.0116 0.524172 19.3269 0.756673 19.5594C0.989173 19.7919 1.30451 19.9225 1.63332 19.9225H18.99C19.3188 19.9225 19.6341 19.7919 19.8666 19.5594C20.0991 19.3269 20.2298 19.0116 20.2298 18.6828C20.2298 18.354 20.0991 18.0386 19.8666 17.8061C19.6341 17.5736 19.3188 17.443 18.99 17.443ZM4.5261 13.9221C4.89218 13.8329 5.22419 13.6387 5.4812 13.3631C5.73821 13.0876 5.90899 12.7429 5.97249 12.3715C6.04697 12.8842 6.31132 13.3502 6.71314 13.6772C7.11497 14.0042 7.62497 14.1683 8.14207 14.137C8.65957 14.17 9.17048 14.0065 9.57269 13.6793C9.97491 13.352 10.2388 12.885 10.3117 12.3715C10.3861 12.8842 10.6505 13.3502 11.0523 13.6772C11.4541 14.0042 11.9641 14.1683 12.4812 14.137C12.9987 14.17 13.5096 14.0065 13.9119 13.6793C14.3141 13.352 14.578 12.885 14.6508 12.3715C14.7164 12.7419 14.8879 13.0853 15.1446 13.3602C15.4013 13.6351 15.7322 13.8297 16.0972 13.9204V17.443H4.5261V13.9221Z" fill="black"/>
</g>
<defs>
<clipPath id="clip0_222_839">
<rect width="19.8362" height="19.8362" fill="white" transform="translate(0.393555 0.0864258)"/>
</clipPath>
</defs>
</svg>
