<svg width="8" height="8" viewBox="0 0 8 8" fill="none" xmlns="http://www.w3.org/2000/svg">
<g clip-path="url(#clip0_222_1667)">
<path d="M0.815566 2.07626C0.878491 2.07618 0.94081 2.08856 0.998927 2.11268C1.05704 2.13681 1.10981 2.1722 1.15418 2.21682L3.60527 4.6676C3.67943 4.74178 3.76748 4.80062 3.86439 4.84077C3.96129 4.88092 4.06516 4.90158 4.17005 4.90158C4.27494 4.90158 4.37881 4.88092 4.47572 4.84077C4.57262 4.80062 4.66067 4.74178 4.73483 4.6676L7.18209 2.22001C7.2263 2.17425 7.27917 2.13774 7.33763 2.11263C7.39609 2.08752 7.45897 2.0743 7.52259 2.07375C7.58621 2.0732 7.64931 2.08532 7.7082 2.10941C7.76708 2.13351 7.82058 2.16908 7.86557 2.21408C7.91056 2.25907 7.94614 2.31257 7.97024 2.37145C7.99433 2.43034 8.00645 2.49344 8.0059 2.55706C8.00535 2.62068 7.99213 2.68356 7.96702 2.74202C7.9419 2.80048 7.9054 2.85335 7.85964 2.89756L5.41237 5.34514C5.08268 5.67422 4.63588 5.85905 4.17005 5.85905C3.70422 5.85905 3.25743 5.67422 2.92773 5.34514L0.476635 2.89436C0.409579 2.82735 0.363908 2.74195 0.345401 2.64897C0.326894 2.55599 0.336384 2.45962 0.372668 2.37203C0.408953 2.28445 0.470403 2.2096 0.549241 2.15695C0.62808 2.1043 0.720764 2.07622 0.815566 2.07626V2.07626Z" fill="black"/>
</g>
<defs>
<clipPath id="clip0_222_1667">
<rect width="7.66667" height="7.66667" fill="white" transform="translate(0.333252 0.134277)"/>
</clipPath>
</defs>
</svg>
