<svg width="17" height="18" viewBox="0 0 17 18" fill="none" xmlns="http://www.w3.org/2000/svg">
<path d="M8.32186 0.88208C3.73305 0.88208 0 4.61513 0 9.20394C0 13.7928 3.73305 17.5258 8.32186 17.5258C12.9107 17.5258 16.6437 13.7928 16.6437 9.20394C16.6437 4.61513 12.9107 0.88208 8.32186 0.88208ZM11.0958 9.89743H8.32186C7.93906 9.89743 7.62837 9.58744 7.62837 9.20394V5.04301C7.62837 4.65951 7.93906 4.34952 8.32186 4.34952C8.70467 4.34952 9.01535 4.65951 9.01535 5.04301V8.51045H11.0958C11.4793 8.51045 11.7893 8.82044 11.7893 9.20394C11.7893 9.58744 11.4793 9.89743 11.0958 9.89743Z" fill="black"/>
</svg>
