<svg width="11" height="12" viewBox="0 0 11 12" fill="none" xmlns="http://www.w3.org/2000/svg">
<g clip-path="url(#clip0_222_1103)">
<path d="M0.537167 9.23078C0.193326 9.57451 0.000103835 10.0408 0 10.5269L0 11.4679H0.940958C1.42715 11.4678 1.89339 11.2746 2.23712 10.9307L8.35267 4.81519L6.65271 3.11523L0.537167 9.23078Z" fill="black"/>
<path d="M10.6081 0.859752C10.4965 0.748026 10.364 0.659394 10.2181 0.598922C10.0722 0.53845 9.91583 0.507324 9.75791 0.507324C9.59999 0.507324 9.44361 0.53845 9.29773 0.598922C9.15184 0.659394 9.01931 0.748026 8.9077 0.859752L7.30078 2.46713L9.00074 4.16708L10.6081 2.56017C10.7198 2.44856 10.8085 2.31602 10.8689 2.17014C10.9294 2.02425 10.9605 1.86788 10.9605 1.70996C10.9605 1.55204 10.9294 1.39567 10.8689 1.24978C10.8085 1.1039 10.7198 0.971361 10.6081 0.859752V0.859752Z" fill="black"/>
</g>
<defs>
<clipPath id="clip0_222_1103">
<rect width="11" height="11" fill="white" transform="translate(0 0.467773)"/>
</clipPath>
</defs>
</svg>
