<svg width="9" height="10" viewBox="0 0 9 10" fill="none" xmlns="http://www.w3.org/2000/svg">
<g clip-path="url(#clip0_222_1670)">
<path d="M0.4395 8.13741C0.158176 8.41865 8.49561e-05 8.80012 0 9.19792L0 9.96779H0.769875C1.16767 9.9677 1.54914 9.80961 1.83038 9.52829L6.834 4.52466L5.44313 3.13379L0.4395 8.13741Z" fill="black"/>
<path d="M8.67939 1.28835C8.58807 1.19694 8.47963 1.12442 8.36027 1.07494C8.24091 1.02547 8.11297 1 7.98376 1C7.85456 1 7.72661 1.02547 7.60725 1.07494C7.48789 1.12442 7.37946 1.19694 7.28814 1.28835L5.97339 2.60347L7.36426 3.99435L8.67939 2.6796C8.7708 2.58828 8.84332 2.47985 8.8928 2.36049C8.94227 2.24112 8.96774 2.11318 8.96774 1.98397C8.96774 1.85477 8.94227 1.72682 8.8928 1.60746C8.84332 1.4881 8.7708 1.37967 8.67939 1.28835V1.28835Z" fill="black"/>
</g>
<defs>
<clipPath id="clip0_222_1670">
<rect width="9" height="9" fill="white" transform="translate(0 0.967773)"/>
</clipPath>
</defs>
</svg>
