<svg width="20" height="22" viewBox="0 0 20 22" fill="none" xmlns="http://www.w3.org/2000/svg">
<path d="M0.374342 16.5C1.14043 17.816 2.83935 18.2681 4.16896 17.5099L4.17165 17.5083L4.58378 17.2727C5.36176 17.9315 6.25601 18.4424 7.22149 18.7797V19.25C7.22149 20.7688 8.46548 22 10 22C11.5345 22 12.7785 20.7688 12.7785 19.25V18.7798C13.7441 18.4419 14.6384 17.9304 15.4162 17.2709L15.8302 17.5074C17.1601 18.2668 18.8603 17.8154 19.6275 16.4991C20.3948 15.1828 19.9387 13.5001 18.6087 12.7407L18.1975 12.5061C18.3826 11.5091 18.3826 10.4872 18.1975 9.49021L18.6087 9.25555C19.9386 8.49617 20.3948 6.81351 19.6275 5.49721C18.8603 4.18094 17.1602 3.72947 15.8302 4.48886L15.4181 4.72446C14.6393 4.06648 13.7445 3.55652 12.7785 3.22025V2.75C12.7785 1.23123 11.5345 0 10 0C8.46548 0 7.22149 1.23123 7.22149 2.75V3.22025C6.25588 3.55811 5.36159 4.06961 4.58378 4.7291L4.16978 4.4917C2.83983 3.73227 1.13973 4.18374 0.372476 5.5C-0.394783 6.81626 0.0613264 8.49896 1.39128 9.25835L1.80249 9.493C1.61738 10.4899 1.61738 11.5119 1.80249 12.5088L1.39128 12.7435C0.0650167 13.5049 -0.389617 15.1843 0.374342 16.5ZM10 7.33335C12.046 7.33335 13.7047 8.97497 13.7047 11C13.7047 13.025 12.046 14.6667 10 14.6667C7.95398 14.6667 6.29534 13.025 6.29534 11C6.29534 8.97497 7.95398 7.33335 10 7.33335Z" fill="white"/>
</svg>
