<svg width="12" height="13" viewBox="0 0 12 13" fill="none" xmlns="http://www.w3.org/2000/svg">
<g clip-path="url(#clip0_222_1289)">
<path d="M0.663596 7.168L2.4436 8.468L1.7676 10.5615C1.65835 10.8862 1.65697 11.2375 1.76365 11.563C1.87033 11.8886 2.07937 12.1709 2.3596 12.368C2.63502 12.5714 2.96879 12.6803 3.31117 12.6786C3.65355 12.6769 3.98622 12.5646 4.2596 12.3585L6.0001 11.0775L7.7411 12.357C8.01602 12.5592 8.34799 12.6691 8.68928 12.6707C9.03057 12.6724 9.3636 12.5658 9.64048 12.3663C9.91737 12.1667 10.1238 11.8845 10.2302 11.5602C10.3366 11.2359 10.3375 10.8863 10.2326 10.5615L9.5566 8.468L11.3366 7.168C11.6112 6.96725 11.8153 6.68487 11.9198 6.36119C12.0243 6.03751 12.0238 5.68909 11.9184 5.36569C11.8131 5.04229 11.6082 4.76046 11.3331 4.56045C11.058 4.36044 10.7267 4.25248 10.3866 4.252H8.2001L7.5366 2.18399C7.43226 1.85847 7.22723 1.5745 6.95108 1.37303C6.67493 1.17155 6.34193 1.06299 6.0001 1.06299C5.65826 1.06299 5.32526 1.17155 5.04911 1.37303C4.77296 1.5745 4.56794 1.85847 4.4636 2.18399L3.8001 4.252H1.6156C1.27547 4.25248 0.944192 4.36044 0.669086 4.56045C0.393981 4.76046 0.189117 5.04229 0.0837572 5.36569C-0.0216025 5.68909 -0.0220689 6.03751 0.0824248 6.36119C0.186918 6.68487 0.391027 6.96725 0.665596 7.168H0.663596Z" fill="#FFD12B"/>
</g>
<defs>
<clipPath id="clip0_222_1289">
<rect width="12" height="12" fill="white" transform="translate(0 0.967773)"/>
</clipPath>
</defs>
</svg>
