<svg width="42" height="42" viewBox="0 0 42 42" fill="none" xmlns="http://www.w3.org/2000/svg">
<path d="M21 0C16.8466 0 12.7865 1.23163 9.33303 3.53914C5.8796 5.84665 3.18798 9.1264 1.59854 12.9636C0.00909906 16.8009 -0.406771 21.0233 0.403518 25.0969C1.21381 29.1705 3.21386 32.9123 6.15077 35.8492C9.08767 38.7861 12.8295 40.7862 16.9031 41.5965C20.9767 42.4068 25.1991 41.9909 29.0364 40.4015C32.8736 38.812 36.1534 36.1204 38.4609 32.667C40.7684 29.2135 42 25.1534 42 21C41.994 15.4323 39.7796 10.0944 35.8426 6.15741C31.9056 2.22045 26.5677 0.00602189 21 0ZM14 14C14.9283 14 15.8185 14.3687 16.4749 15.0251C17.1313 15.6815 17.5 16.5717 17.5 17.5C17.5 19.25 15.9338 19.25 14 19.25C12.0663 19.25 10.5 19.25 10.5 17.5C10.5 16.5717 10.8688 15.6815 11.5251 15.0251C12.1815 14.3687 13.0717 14 14 14ZM31.0555 30.9172C30.7468 31.2627 30.3136 31.4716 29.8511 31.4982C29.3885 31.5248 28.9343 31.3668 28.588 31.059C26.4486 29.258 23.7904 28.1864 21 28C18.2096 28.1861 15.5513 29.2578 13.412 31.059C13.0653 31.3676 12.6102 31.5259 12.1468 31.499C11.6834 31.4721 11.2497 31.2622 10.941 30.9155C10.6324 30.5688 10.4741 30.1137 10.501 29.6503C10.5279 29.1869 10.7378 28.7531 11.0845 28.4445C13.8633 26.0706 17.3499 24.6836 21 24.5C24.6501 24.6836 28.1367 26.0706 30.9155 28.4445C31.0872 28.5976 31.227 28.783 31.327 28.9902C31.427 29.1973 31.4852 29.4222 31.4982 29.6518C31.5112 29.8815 31.4788 30.1115 31.4028 30.3286C31.3269 30.5457 31.2088 30.7458 31.0555 30.9172ZM28 19.25C26.0663 19.25 24.5 19.25 24.5 17.5C24.5 16.5717 24.8688 15.6815 25.5251 15.0251C26.1815 14.3687 27.0717 14 28 14C28.9283 14 29.8185 14.3687 30.4749 15.0251C31.1313 15.6815 31.5 16.5717 31.5 17.5C31.5 19.25 29.9338 19.25 28 19.25Z" fill="black"/>
</svg>
