<svg width="107" height="150" viewBox="0 0 107 150" fill="none" xmlns="http://www.w3.org/2000/svg">
<path d="M59.652 92.1152H90.8976V130.561H59.652V92.1152Z" fill="black"/>
<path fill-rule="evenodd" clip-rule="evenodd" d="M50.5385 54.5105C53.9066 51.9479 62.3625 50.7954 65.9572 53.263C69.5077 55.7408 69.8948 59.7479 71.5493 63.4341C73.1104 62.6986 75.6883 63.7519 76.1409 65.1993C76.7022 65.8819 76.7274 67.7998 77.1145 68.7174C93.9574 71.3962 96.5144 84.5168 98.5417 99.4124C101.224 114.528 107.312 129.61 104.669 145.164C105.013 145.662 105.285 146.146 105.536 146.72C106.137 147.743 105.363 149.191 104.149 149.135C102.579 148.997 101.023 148.809 99.4455 148.75C95.0712 148.598 90.6928 148.616 86.3168 148.672L85.7201 148.68C63.6663 148.954 41.6137 149.495 19.559 149.638C18.7589 149.639 18.3672 148.922 18.474 148.215C18.6892 146.791 18.8888 145.366 19.0971 143.941C13.8806 145.318 8.335 145.665 3.13322 144.086C2.76933 143.716 3.98108 143.917 4.17333 143.86C-0.613932 140.592 0.815725 133.706 1.23979 128.746C3.8767 111.752 4.80629 92.9492 14.9944 78.4478C19.4019 72.5298 25.8638 67.8443 33.2889 66.79L33.4949 66.7618C35.666 66.4726 38.0857 66.3794 39.9839 65.1993C42.1189 63.4963 43.0287 60.3496 45.2747 60.3201C46.0164 60.3104 47.0253 61.2479 48.1111 61.8844C48.1921 60.4842 48.9473 59.3025 49.1141 58.2169L49.1276 58.124C49.3015 56.8583 49.0633 55.7195 50.5385 54.5105ZM86.7354 99.8614C82.0021 96.5758 69.775 98.2267 69.4951 98.4107C68.8788 98.8157 68.6133 98.8515 68.28 99.3775C67.9509 99.4211 67.6221 99.4664 67.2935 99.513C66.6344 99.7282 67.1228 100.538 67.8842 100.249C67.4263 102.223 68.7739 103.626 69.3104 105.577C69.4846 106.21 69.3167 107.349 69.3104 107.997C69.3625 108.822 70.2756 109.797 70.1234 110.625C69.5824 113.568 66.6464 116.439 67.8842 119.293C68.7042 120.906 71.1706 121.728 72.8104 122.276C76.2077 123.579 82.1272 122.227 84.1011 119.293C85.154 117.729 86.3738 113.782 87.0015 112.558L87.1407 110.616C87.4838 105.789 87.7891 100.593 86.7354 99.8614Z" fill="#D08B5B"/>
<path fill-rule="evenodd" clip-rule="evenodd" d="M45.0996 60.3289L46.4542 61.1595L54.3213 65.0453C55.8465 65.472 56.609 65.9833 56.609 66.5794V72.6489C56.609 73.4611 58.0403 75.3019 60.9027 78.1713L63.5472 75.5371L63.4881 75.1922C63.2365 73.7061 63.1106 72.7121 63.1106 72.21C63.1106 71.67 65.6978 69.6201 70.8723 66.0604L73.136 63.9309L72.8946 63.1975C74.2904 63.2634 75.8041 64.1223 76.1409 65.1993C76.7022 65.8819 76.7274 67.7998 77.1145 68.7174C93.9574 71.3962 96.5144 84.5168 98.5417 99.4124C101.224 114.528 107.312 129.61 104.669 145.164C105.013 145.662 105.285 146.146 105.536 146.72C106.137 147.743 105.363 149.191 104.149 149.135C102.579 148.997 101.023 148.809 99.4455 148.75C95.0712 148.598 90.6928 148.616 86.3168 148.672L85.7201 148.68C63.6663 148.954 41.6137 149.495 19.559 149.638C18.7589 149.639 18.3672 148.922 18.474 148.215C18.6892 146.791 18.8888 145.366 19.0971 143.941C13.8806 145.318 8.335 145.665 3.13322 144.086C2.76933 143.716 3.98108 143.917 4.17333 143.86C-0.613932 140.592 0.815725 133.706 1.23979 128.746C3.8767 111.752 4.80629 92.9492 14.9944 78.4478C19.4019 72.5298 25.8638 67.8443 33.2889 66.79L33.4949 66.7618L33.7024 66.7348C35.8191 66.4656 38.1459 66.3419 39.9839 65.1993C42.0625 63.5412 42.9798 60.5147 45.0996 60.3289ZM63.9503 95.9537C63.1787 95.9537 61.5984 97.151 59.2095 99.5456L58.999 99.6428C56.1112 100.983 54.1981 102.146 53.2597 103.131L53.2262 103.166C52.2783 104.182 50.401 106.885 47.5945 111.273L43.5303 113.674H41.9925L40.8977 121.609L43.5303 127.275L49.4934 125.268L59.2095 122.709L64.7848 117.058L67.9299 116.003C67.5483 117.104 67.41 118.2 67.8842 119.293C68.7042 120.906 71.1706 121.728 72.8104 122.276C76.2077 123.579 82.1272 122.227 84.1011 119.293C85.154 117.729 86.3738 113.782 87.0015 112.558L87.1816 110.036C87.5061 105.381 87.7469 100.564 86.7354 99.8614C82.0021 96.5758 69.775 98.2267 69.4951 98.4107C68.8788 98.8157 68.6133 98.8515 68.28 99.3775L68.1075 99.4006L69.0778 98.0856L68.7342 97.9023C66.2826 96.6033 64.688 95.9537 63.9503 95.9537ZM67.8842 100.249C67.4458 102.138 68.6623 103.505 69.2376 105.33L67.7676 102.518L67.7676 100.286C67.8056 100.276 67.8446 100.264 67.8842 100.249Z" fill="#FFD12B"/>
<path fill-rule="evenodd" clip-rule="evenodd" d="M44.4501 60.0355C44.7768 59.7463 45.2604 60.1097 45.0527 60.5003C44.5861 61.3781 44.1075 62.2099 43.4812 62.9859C43.1015 63.4564 42.6947 63.9014 42.2825 64.3415C43.3404 65.2559 44.2476 66.3911 45.1043 67.4551C46.1998 68.8158 47.2356 70.2342 48.4653 71.4794C49.6781 72.7074 51.0192 73.5658 52.6406 74.1382L52.9681 74.2518C54.597 74.8232 56.338 75.5948 57.2561 77.1359C57.4372 77.4398 57.0726 77.8152 56.7662 77.6256C55.1707 76.6385 53.2961 76.44 51.5595 75.7878C49.8819 75.1578 48.4195 74.1882 47.1274 72.9507C45.8374 71.7152 44.7543 70.3096 43.6246 68.9337C42.5074 67.5733 41.3045 66.4113 39.983 65.2602C37.9438 66.631 35.6161 67.2274 33.2492 67.8132L32.9908 67.8772C30.6211 68.4634 28.264 69.1442 26.0408 70.1651C24.0807 71.065 22.1527 72.1398 20.5561 73.6043C18.8612 75.1585 17.542 77.1435 16.3346 79.0848C13.6339 83.4278 11.7351 88.1859 10.0635 93.0017C8.32497 98.0109 6.87075 103.12 5.69679 108.291C5.09971 110.921 4.61479 113.569 4.21624 116.236C4.0244 117.521 3.85398 118.808 3.70431 120.098C3.54453 121.476 3.50783 122.893 3.08485 124.218C2.90352 124.785 2.47536 125.021 2.04679 125.001L1.95974 126.089C1.84431 127.539 1.73671 128.99 1.70036 130.449C1.64006 132.876 1.6674 135.295 1.84208 137.716L1.86682 138.047C2.00408 139.814 2.31081 141.799 3.64072 143.093C5.01798 144.433 7.136 144.855 8.99232 144.879C13.3158 144.935 17.4776 142.894 21.3035 141.103C25.2437 139.259 29.0763 137.212 32.817 134.992C34.722 133.861 36.6065 132.693 38.4669 131.491C39.3798 130.901 40.2864 130.301 41.1861 129.691C41.7014 129.341 42.1897 128.958 42.7144 128.649C42.4573 128.409 42.3426 128.033 42.5579 127.705C41.0413 126.39 40.4101 124.043 40.3363 122.143C40.2767 120.61 40.5025 119.081 40.6807 117.563C40.7706 116.797 40.8817 116.033 40.997 115.27C41.0425 114.969 41.0773 114.647 41.1305 114.329C37.0354 116.578 32.8256 118.58 28.5043 120.359C26.2893 121.271 24.0459 122.091 21.7715 122.842L21.3105 122.994C19.1555 123.699 16.949 124.364 14.7212 124.767C14.6021 124.789 14.5053 124.613 14.6325 124.557C16.8036 123.6 19.0499 122.793 21.2536 121.911L21.6157 121.764C21.5741 121.761 21.5309 121.756 21.4859 121.745C20.1935 121.433 18.9112 120.953 17.6437 120.549C16.4672 120.173 15.1455 119.938 14.0459 119.371C13.9613 119.327 14.0087 119.21 14.0911 119.204C15.327 119.119 16.6686 119.478 17.8804 119.69L18.3356 119.77C19.0982 119.904 19.8777 120.049 20.6366 120.237C20.664 119.983 20.806 119.728 21.0081 119.578C23.2317 117.933 23.0059 114.61 23.2437 112.159L23.4201 110.34C23.7303 107.156 24.0584 103.972 24.557 100.812C24.5836 100.643 24.8449 100.691 24.846 100.851C24.8717 104.768 24.5757 108.668 24.4274 112.579L24.4044 113.221C24.3224 115.634 24.2581 118.14 22.7368 119.997C22.9495 119.873 23.2372 119.873 23.4095 120.078C23.6213 120.33 23.7435 120.612 23.7397 120.89C25.1144 120.314 26.483 119.723 27.845 119.12C32.2239 117.182 36.511 115.013 40.6846 112.666C41.1338 112.413 41.5607 112.611 41.7829 112.945L41.8149 112.94C41.8203 112.939 41.8257 112.939 41.8313 112.939L41.8631 112.937C41.8643 112.937 41.8656 112.937 41.8666 112.937C42.4542 112.615 43.2545 112.844 43.7587 113.315C43.7736 113.329 43.7863 113.344 43.7995 113.359C44.4378 113.073 45.0338 112.687 45.5746 112.197C46.6815 111.194 47.619 109.955 48.4363 108.712C49.9414 106.423 51.2199 103.878 53.253 101.993C54.9049 100.462 56.9529 99.5094 59.1015 98.911C59.0925 98.8483 59.1165 98.7815 59.1599 98.737C59.2703 98.624 59.349 98.5849 59.4916 98.6535C59.5029 98.659 59.5098 98.6667 59.5144 98.6749L59.7241 98.3169C59.8385 98.1227 59.956 97.9271 59.9967 97.8757C60.2407 97.5688 60.4917 97.2642 60.7466 96.966C61.1787 96.4612 61.6712 95.963 62.2414 95.6129C63.4898 94.8466 64.8023 95.2803 66.0858 95.6991C66.8613 95.9523 67.6343 96.2136 68.4085 96.4706L68.4883 96.4967C69.0656 96.682 69.7411 96.8441 69.9993 97.4552C70.1015 97.6971 70.1173 97.9481 70.0697 98.1916C75.5525 96.7984 81.6423 97.4385 86.9927 99.0739C87.198 99.1366 87.4031 99.3054 87.4463 99.5271C88.0594 102.668 88.3324 105.89 88.055 109.085C87.8157 111.842 87.2041 114.545 86.0517 117.07L85.9862 117.212C84.9032 119.552 83.1867 122.436 80.5652 123.17C78.9823 123.613 77.2316 123.352 75.6172 123.27C74.0482 123.192 72.4445 123.18 70.8904 122.934C69.5063 122.714 68.2936 122.094 67.4382 120.97C66.7003 120 66.3118 118.827 65.9934 117.661C65.8477 117.707 65.7029 117.756 65.5605 117.812C64.9592 118.047 64.4497 118.425 63.9891 118.871C63.0164 119.812 62.2618 120.956 61.2441 121.854C60.3228 122.667 59.273 123.299 58.147 123.785C55.8136 124.793 53.3104 125.195 50.8423 125.729L50.6701 125.767C48.812 126.174 46.9155 126.674 45.2754 127.641C45.2434 127.925 45.1136 128.193 44.9057 128.368C45.1949 128.64 45.3174 129.07 45.0632 129.473C44.3532 130.599 43.1302 131.24 42.0322 131.96L41.9608 132.007C40.8807 132.722 39.7912 133.423 38.6928 134.11C36.4599 135.507 34.1804 136.827 31.8686 138.089C28.1504 140.119 24.3523 142.033 20.4855 143.77C20.7176 144.911 20.6328 146.087 20.8072 147.236L20.834 147.4C20.9085 147.826 20.8078 148.183 20.514 148.461L20.4829 148.49L20.4835 148.486L20.4559 148.511L20.4467 148.519L20.4498 148.516C20.4159 148.547 20.3809 148.576 20.3453 148.601L20.2999 148.63C20.0169 148.802 19.6526 148.8 19.3628 148.648L19.3297 148.63L19.274 148.598C18.8912 148.378 18.6271 147.833 18.786 147.4C19.1763 146.335 19.3238 145.199 19.6843 144.128L19.3983 144.255L19.0214 144.419C14.9447 146.181 10.4164 147.664 5.97459 146.463C4.01199 145.933 2.17764 144.81 1.19565 142.98C0.229358 141.18 0.0927782 139.089 0.0414753 137.087C-0.0218345 134.615 0.110789 132.105 0.437026 129.654C0.656018 128.009 0.920855 126.333 1.32937 124.705C1.11924 124.52 0.96479 124.254 0.923993 123.925C0.731198 122.37 1.06862 120.754 1.2752 119.207C1.477 117.697 1.69995 116.189 1.9521 114.687C2.46117 111.652 3.05265 108.624 3.74128 105.625C4.96682 100.287 6.58518 95.0444 8.53359 89.927L8.70422 89.4812C10.5047 84.8038 12.5893 80.226 15.4921 76.1169C16.8807 74.151 18.3485 72.3685 20.3106 70.9519C22.1488 69.6245 24.2222 68.6688 26.3619 67.9384C28.5039 67.2073 30.7055 66.7175 32.9461 66.4128C35.2216 66.1033 37.6234 65.9135 39.746 64.981C39.4775 64.5 39.708 63.8507 40.1599 63.5524C41.6807 62.5484 43.087 61.2423 44.4501 60.0355ZM93.1339 103.693C93.1977 103.596 93.349 103.657 93.321 103.771C92.5813 106.799 91.887 109.833 91.4336 112.919C90.6151 118.488 90.7657 124.13 90.8326 129.74L90.836 130.031C90.8703 133.052 90.9181 136.075 91.0181 139.095C91.0686 140.622 91.1685 142.164 91.1142 143.691C91.0846 144.52 90.8635 145.304 90.7852 146.122C90.7166 146.838 90.7777 147.565 90.8119 148.282C90.8349 148.759 90.1308 148.738 90.0829 148.282L90.0217 147.692C89.9421 146.945 89.8438 146.203 89.5988 145.488C89.3042 144.628 89.1629 143.783 89.0607 142.881C88.9042 141.497 88.8345 140.1 88.7741 138.707L88.7328 137.743C88.4805 131.921 88.4894 126.072 88.8978 120.256L88.9277 119.84C89.3321 114.343 90.0338 108.403 93.1339 103.693ZM77.3672 69.0437C77.174 68.9644 77.2417 68.6725 77.4556 68.7233L77.8447 68.8161C80.6956 69.4984 83.4948 70.2376 86.1558 71.5073C88.8185 72.7776 91.0728 74.6742 92.8641 77.0063C96.3461 81.5395 97.7931 87.0488 98.9354 92.5529C100.205 98.6689 101.361 104.807 102.641 110.922L102.879 112.06C104.064 117.755 105.183 123.453 106.007 129.215L106.066 129.633C106.897 135.558 107.397 141.689 106.49 147.629C106.311 148.805 104.353 148.512 104.43 147.351C104.651 143.994 104.809 140.654 104.656 137.29C104.503 133.925 104.187 130.575 103.717 127.239C103.32 124.432 102.73 121.659 102.207 118.875L102.125 118.435C101.687 116.066 101.236 113.7 100.786 111.333L100.113 107.79C99.1044 102.485 98.0762 97.1755 96.9144 91.9036L96.8455 91.5934C95.7085 86.5215 94.0323 81.2087 90.6219 77.1811C87.161 73.0936 82.2066 71.0351 77.3672 69.0437ZM64.7916 122.841C64.8748 122.656 65.166 122.676 65.2555 122.841C65.6062 123.487 65.6452 124.313 65.7115 125.043L65.7185 125.118C65.8028 126.008 65.8774 126.902 65.9231 127.796C66.0098 129.491 66.0513 131.185 66.0459 132.883C66.0405 134.623 66.0054 136.361 65.9115 138.099L65.8861 138.565C65.8004 140.075 65.6566 141.759 64.9386 143.079C64.6775 143.559 63.9676 143.418 63.8164 142.932C63.3212 141.343 63.5755 139.459 63.7025 137.832L63.8012 136.562C63.8988 135.292 63.992 134.021 64.0659 132.749C64.1671 131.01 64.2506 129.268 64.331 127.528C64.3571 126.962 64.3853 126.397 64.4151 125.832L64.461 124.984C64.5002 124.275 64.4969 123.496 64.7916 122.841ZM9.10243 125.093L9.32168 124.881C9.99476 124.223 10.8453 123.21 11.8403 123.272C12.2371 123.297 12.49 123.627 12.4077 124.017C12.2319 124.85 11.3807 125.283 10.7679 125.792C10.0966 126.35 9.46391 126.946 8.83244 127.547C8.27224 128.081 7.73348 128.629 7.20765 129.195L7.01106 129.408C6.82257 129.614 5.48036 130.827 5.62548 131.141L5.63339 131.156C5.67377 131.216 5.60651 131.299 5.53951 131.278C4.9599 131.095 4.99606 130.598 5.21519 130.095C5.63625 129.129 6.37359 128.235 7.01747 127.41C7.65961 126.586 8.35463 125.82 9.10243 125.093ZM66.8919 100.859C66.4437 99.8007 64.7926 99.8229 63.8552 99.8862C61.4947 100.046 58.9408 100.642 56.8405 101.745C54.6631 102.888 53.1963 104.719 51.8839 106.744L51.8225 106.839C50.5434 108.826 49.3114 111.178 47.3084 112.544C46.2882 113.24 45.0969 113.875 43.8591 114.15C43.7741 114.3 43.6365 114.418 43.4559 114.461L43.372 114.48C43.0195 114.558 42.4718 114.644 41.9987 114.592C42.0019 114.823 41.9994 115.053 42.0053 115.272C42.0219 115.9 42.029 116.53 42.029 117.159C42.0293 118.475 41.9585 119.794 42.0135 121.11C42.0622 122.274 42.2267 123.491 42.7861 124.531C43.1964 125.295 43.738 125.8 44.3917 126.282C45.9998 125.303 47.8182 124.706 49.6637 124.257C51.8957 123.715 54.181 123.352 56.3621 122.616C57.4119 122.262 58.4212 121.798 59.3357 121.169C60.3062 120.5 61.0475 119.595 61.8102 118.71L61.9294 118.573C62.7078 117.681 63.5572 116.827 64.6572 116.344C65.6046 115.927 66.8532 115.853 67.6815 115.208C68.1146 114.871 68.1509 114.382 68.1964 113.88C67.666 113.956 67.1043 113.835 66.5756 113.773L66.3017 113.741C65.8017 113.681 65.3133 113.616 64.8211 113.489C64.7297 113.465 64.7297 113.328 64.8211 113.304C65.4028 113.154 65.9792 113.09 66.5756 113.02L66.7157 113.003C67.2552 112.932 67.8224 112.825 68.3516 112.944C68.4465 112.583 68.5837 112.238 68.7761 111.893C69.0461 111.408 69.5571 110.858 69.6261 110.292C69.6467 110.123 69.6073 109.923 69.5275 109.774L69.4999 109.723C69.4664 109.662 69.4267 109.602 69.3685 109.564C69.3621 109.572 69.3484 109.58 69.3188 109.59C68.9115 109.718 68.5563 109.519 68.3677 109.212C67.5672 109.311 66.6935 109.278 65.9428 109.311L65.1838 109.347C64.3727 109.385 63.5249 109.401 62.7627 109.237C62.6563 109.214 62.6241 109.037 62.7307 108.992C63.6676 108.591 64.8042 108.464 65.8073 108.31C66.3676 108.224 66.9319 108.158 67.4938 108.083C67.8679 108.032 68.2649 107.949 68.6526 107.929C69.6245 106.72 69.1008 104.813 67.7482 104.293C67.2555 104.509 66.8125 104.383 66.2742 104.337C65.7369 104.291 65.1982 104.26 64.6587 104.262C63.5777 104.267 62.4321 104.551 61.3616 104.428C61.1875 104.408 61.0257 104.177 61.1988 104.036C62.0183 103.367 63.1927 103.15 64.2329 103.007L64.4485 102.978C64.7972 102.933 65.2213 102.866 65.6612 102.826C65.7607 102.632 65.9391 102.486 66.2072 102.45C66.2869 102.439 66.367 102.432 66.447 102.425L66.4457 102.418C67.0996 102.386 67.0712 101.283 66.8919 100.859ZM22.129 121.504C22.1174 121.521 22.1048 121.538 22.0913 121.555L22.0706 121.579L22.1781 121.535L22.129 121.504ZM78.3016 98.4939C75.5495 98.1985 72.7935 98.2608 70.0333 98.3402C69.8125 99.0616 69.044 99.6765 68.2995 99.6997C68.8826 100.587 68.9428 101.787 68.5339 102.727C69.4021 103.073 70.15 103.693 70.6041 104.576C71.2338 105.801 71.1514 107.164 70.5291 108.296C71.0603 108.776 71.3737 109.557 71.3423 110.292C71.3072 111.112 70.8181 111.812 70.4116 112.491C69.9724 113.226 69.9577 113.872 69.8227 114.695C69.6253 115.898 68.8129 116.628 67.7676 117.084L67.8232 117.302C68.0927 118.35 68.428 119.456 69.1982 120.223C70.1891 121.209 71.7262 121.2 73.0353 121.262L73.0985 121.265C74.2972 121.325 75.4954 121.395 76.6937 121.463L77.5925 121.513C78.9722 121.589 80.2972 121.598 81.4236 120.687C83.2624 119.199 84.523 116.737 85.3209 114.558C86.9957 109.983 87.0157 104.962 86.247 100.198C83.6689 99.3674 80.9939 98.783 78.3016 98.4939ZM55.4147 106.084L55.4349 106.085C56.0016 106.15 56.3909 106.608 56.5295 107.152C56.7309 107.943 56.6321 108.657 57.1166 109.371C57.615 110.105 57.9215 110.692 57.9939 111.599C58.0237 111.972 58.01 112.344 58.0931 112.709L58.1534 112.965C58.2174 113.237 58.2697 113.5 58.2379 113.793C58.2088 114.06 58.0787 114.268 57.8106 114.354C56.9369 114.633 56.2623 113.99 56.0367 113.176C55.8417 112.474 56.102 111.636 55.8269 110.976C55.6745 110.611 55.3935 110.305 55.2346 109.936C55.0773 109.571 54.9983 109.19 54.9731 108.793C54.9252 108.043 55.5894 107.141 55.2188 106.461C55.1399 106.316 55.2293 106.079 55.4147 106.084ZM43.8098 98.3403C44.4014 98.2202 45.0726 97.945 45.656 98.1737C45.9559 98.2915 46.1041 98.6569 45.8507 98.9109C45.4108 99.3515 44.7714 99.3761 44.1789 99.48L44.1268 99.4894C43.4261 99.6189 42.7243 99.7417 42.0214 99.8582C40.6992 100.077 39.3737 100.27 38.0437 100.435C36.6776 100.604 35.3077 100.754 33.9359 100.867L33.4049 100.911C32.2461 101.003 31.0403 101.073 29.9033 100.896C29.7381 100.87 29.7647 100.63 29.9033 100.588C31.1489 100.211 32.5153 100.11 33.803 99.9506C35.1721 99.7808 36.5389 99.6016 37.9021 99.3889C39.2631 99.1765 40.6223 98.9485 41.9765 98.6966C42.5886 98.5829 43.1998 98.4641 43.8098 98.3403ZM65.157 97.1309C64.6379 96.9472 64.0667 96.6751 63.5042 96.7662C62.534 96.9232 61.6706 97.8676 60.9027 98.4896L61.2883 98.4147C63.2612 98.0358 65.8738 97.6277 67.5299 98.881C67.5341 98.8738 67.5374 98.8665 67.5422 98.8593C67.6759 98.6565 67.8308 98.4982 67.9998 98.3246C68.016 98.3094 68.0316 98.2937 68.047 98.2777L68.1382 98.1807L67.9296 98.1084C67.4828 97.9506 66.9534 97.7468 66.8697 97.7171L66.8639 97.7151C66.2943 97.5223 65.724 97.3317 65.157 97.1309ZM48.9473 55.8116C48.8661 54.7682 50.4913 54.7768 50.5718 55.8116C50.7474 58.0706 50.2386 60.3083 49.1435 62.2888C49.1354 62.3032 49.1266 62.316 49.1181 62.3297C49.8031 62.6858 50.4958 63.0274 51.2039 63.3328C52.1098 63.7236 53.0327 64.0794 53.9721 64.3812C54.8219 64.6544 55.8688 64.7623 56.5832 65.3308C58.0897 66.5294 57.5237 69.017 57.2339 70.6294L57.1887 70.884C57.0444 71.7137 56.94 72.565 57.2901 73.3613C57.664 74.2119 58.42 74.8428 59.0945 75.4514L59.2307 75.5748C59.8282 76.1187 60.5109 76.7796 60.9491 77.5169C61.3492 76.6904 61.8946 76.015 62.4712 75.2547C62.8826 74.7121 62.5897 74.5332 62.2942 74.0031C62.0097 73.493 61.8708 72.9491 61.9598 72.3671C62.1239 71.2923 62.9837 70.5159 63.8394 69.9325C64.8501 69.2439 65.9781 68.7337 67.0228 68.0931C69.1696 66.7769 71.2603 65.272 73.1439 63.6007C73.1959 63.5545 73.286 63.615 73.2444 63.6782C71.7564 65.9395 70.0117 67.8936 67.8675 69.5522C66.9981 70.2248 66.0847 70.7827 65.1653 71.3691L64.901 71.5386C64.5318 71.7776 64.0713 72.0969 63.9044 72.5037C63.7364 72.9129 64.0946 73.2218 64.2874 73.5607C64.8996 74.637 64.6042 75.6413 63.8784 76.554L63.8446 76.5961C63.1234 77.4842 62.5768 78.3101 62.3154 79.4446C61.7536 81.8819 62.536 84.4205 63.355 86.7086L63.3874 86.7988C63.8304 88.032 64.3013 89.2563 64.6862 90.5094L64.7921 90.8558C65.1409 92.0087 65.4264 93.1458 65.0352 94.3311C64.9022 94.7342 64.3519 94.8295 64.1234 94.4501C63.3171 93.1121 63.1161 91.502 62.6108 90.031C62.1182 88.5973 61.5526 87.1895 61.0769 85.7499C60.4642 83.8965 60.0542 81.9014 60.2768 79.9573C60.2702 79.9459 60.263 79.9353 60.2575 79.9233L60.1016 79.5825C59.6763 78.6595 59.2656 77.8535 58.4922 77.1178C57.6856 76.3504 56.81 75.6711 56.1753 74.7421C54.7965 72.7242 55.6492 70.4794 55.8157 68.273L55.8348 68.0025C55.8651 67.5443 55.8816 66.9218 55.5821 66.6047C55.2453 66.2478 54.4552 66.1567 54.0083 65.9987C52.8531 65.5902 51.7148 65.1143 50.6306 64.5428C49.5985 63.9988 48.5988 63.3979 47.668 62.6938L47.1962 62.3392C46.4518 61.778 45.6799 61.1652 45.181 60.4012C45.1235 60.3133 45.2213 60.1714 45.3255 60.2135C46.1584 60.5512 46.9193 61.0884 47.6986 61.5557C47.7107 61.5272 47.7248 61.4985 47.7407 61.4695C48.7048 59.7261 49.1013 57.7945 48.9473 55.8116ZM75.5515 67.7565C75.8834 66.8473 77.3957 66.9175 77.3354 67.9978C77.2892 68.8277 76.9365 69.5769 76.6141 70.3304L76.5796 70.4112C76.2467 71.1963 75.8622 71.9335 75.4021 72.6531C74.523 74.0287 73.4933 75.3053 72.3934 76.5101C71.3963 77.6024 70.0875 78.2703 68.5794 78.1593C67.944 78.1125 67.3026 77.951 66.7457 77.6339C66.0844 77.2571 65.3661 76.1256 64.5224 76.3997C64.4408 76.4261 64.3647 76.3067 64.4352 76.2501C65.4093 75.4663 66.5149 76.6816 67.4475 76.9744C68.8527 77.4155 70.2948 76.9278 71.1993 75.7927C72.1436 74.6075 73.0127 73.2806 73.8064 71.9902C74.2095 71.335 74.5772 70.6549 74.8948 69.954C75.2153 69.2466 75.2882 68.4778 75.5515 67.7565ZM73.2864 62.161C73.2455 62.0354 73.4016 61.916 73.5119 61.9877C74.152 62.4041 74.7066 62.9542 75.297 63.4364C75.9521 63.9714 76.6119 64.4955 77.282 65.0115C78.2588 65.7639 77.1259 67.1491 76.266 66.3271C75.0894 65.2028 73.8007 63.7325 73.2864 62.161ZM69.7723 57.7602C70.0323 56.7583 71.5702 57.1715 71.3461 58.1617L71.3388 58.1918C70.9143 59.8274 71.5189 61.4925 72.8095 62.5528L72.857 62.5913C73.6735 63.2443 72.5167 64.3856 71.7083 63.739C69.9434 62.3277 69.2092 59.9302 69.7723 57.7602Z" fill="black"/>
<path fill-rule="evenodd" clip-rule="evenodd" d="M82.6303 22.2192C84.1794 21.1051 81.8694 17.4394 81.0846 16.3488C80.4019 14.926 79.7193 13.5031 79.0364 12.0802C79.1195 10.9133 77.9815 9.87508 76.857 10.2301C75.8787 9.52757 74.2402 9.86391 73.743 10.9638C62.9258 6.24642 44.209 8.20895 43.2411 22.7656C41.1486 26.9102 39.0747 31.0902 37.2182 35.3466C34.6424 35.4852 33.3939 38.6185 34.9274 40.6435C35.1315 43.9317 37.2135 44.192 39.9929 44.0457C41.1091 44.34 42.2662 44.4996 43.1033 45.3627C43.7395 46.0137 44.172 46.8392 44.5893 47.6401C46.5152 51.3356 48.9621 54.5324 52.2788 57.0888C57.4368 60.954 64.4192 63.7291 70.8509 61.8475C84.6785 56.4102 87.3939 34.6805 82.6303 22.2192Z" fill="#D08B5B"/>
<path fill-rule="evenodd" clip-rule="evenodd" d="M53.7729 1.04303C62.8068 -1.05788 72.9559 1.76151 79.2259 8.70772C79.667 9.1958 79.6194 9.83112 79.2313 10.2428C79.4124 10.3901 79.5894 10.5414 79.7691 10.6927C79.957 10.8523 79.9298 11.1726 79.7691 11.3349C79.6098 11.4944 79.279 11.5271 79.1278 11.3349L78.9041 11.0529C78.7927 10.9121 78.6826 10.7707 78.5764 10.6259C78.4471 10.6737 78.3204 10.7241 78.1938 10.7732C80.1095 12.0479 81.7066 13.7412 82.8013 15.7794C83.9859 17.9839 84.7415 20.337 85.2331 22.7856C86.1092 27.1534 86.2363 31.6331 86.1191 36.0747L86.1126 36.3126C85.9615 41.6665 85.44 47.1089 83.1853 52.0319C81.3771 55.9774 78.1638 59.6053 74.135 61.3326C71.8149 62.3265 69.3205 62.7505 66.8003 62.5733C65.4714 62.4806 64.1466 62.2706 62.8531 61.9502L62.5424 61.8729C61.3641 61.5774 60.142 61.2349 59.1361 60.5596C58.104 59.8657 58.7998 58.4873 59.938 58.655C61.3091 58.8582 62.6149 59.4308 63.9751 59.728C65.3053 60.0197 66.6519 60.1724 68.0148 60.1329C70.4261 60.0647 72.6223 59.3231 74.6156 57.9761C82.2363 52.824 83.1621 42.4654 83.3609 34.0945C83.4576 30.0045 83.3078 25.8613 82.3683 21.8653C81.4656 18.0234 79.9121 14.2402 77.7132 10.9586C77.2285 11.1399 76.7437 11.2913 76.2277 11.339C75.3079 11.8926 74.214 11.9073 73.1504 11.9075L73.0022 11.9075C71.8952 11.9061 70.7883 11.8407 69.6868 11.7412C65.7886 11.3949 61.7775 10.5169 57.8589 11.0758L57.6989 11.0993C56.0854 11.3422 54.0861 11.8522 52.9015 13.0145C51.6216 14.2688 52.4794 16.6424 53.4924 17.3963C54.1473 17.8844 54.3516 18.9832 53.4924 19.4263C51.7959 20.3029 47.6895 19.8162 47.2279 20.3016C46.6738 20.8817 46.7126 21.7659 46.6967 22.5188L46.6955 22.5688C46.6383 24.712 46.6914 26.8483 46.8725 28.986C47.0468 31.0529 47.443 33.1238 47.5315 35.1961C47.5615 35.8791 46.7377 36.0863 46.2871 35.7114C46.1986 35.6378 46.1073 35.5682 46.0161 35.5055C45.1978 34.9247 44.2679 34.6793 43.2698 34.5239C43.2174 34.5156 43.1765 34.4895 43.147 34.4548L43.135 34.4394L43.0288 34.5267C43.2358 34.7843 43.4128 35.0761 43.553 35.4033C43.5816 35.4687 43.5204 35.5519 43.4482 35.5083C42.0676 34.6862 40.5644 34.3372 38.9755 34.6698C37.5458 34.9684 36.2524 35.8764 35.833 37.3297C35.4477 38.6671 35.7309 40.2091 36.5955 41.3093C37.874 42.9398 39.9504 42.7926 41.813 42.8676C42.1779 42.8826 42.585 43.0598 42.7552 43.4088C42.9553 43.8205 42.9417 44.1014 42.7552 44.5118C42.7293 44.5704 42.6953 44.6235 42.6558 44.6713C42.8135 44.8019 42.9627 44.9449 43.1081 45.0907L43.5944 45.5811C43.9271 45.9175 44.2579 46.2568 44.5769 46.6045C45.5137 47.627 46.3946 48.7149 47.2238 49.826L47.3004 49.9298C48.2717 51.2602 49.2791 53.1814 50.9626 53.6011C51.5399 53.7456 52.0764 54.0306 52.248 54.6564C52.4195 55.2821 52.0151 55.8888 51.4719 56.1506C50.5297 56.6046 49.3342 56.0647 48.5568 55.4921C46.8801 54.2554 45.7848 52.2379 44.755 50.4619L44.473 49.9765C43.9426 49.0602 43.4245 48.133 42.9825 47.1703C42.7307 46.6208 42.4597 46.0755 42.2255 45.5179C42.1574 45.3557 42.0894 45.1907 42.0363 45.0216C41.9614 45.038 41.8851 45.0489 41.813 45.053C39.565 45.2002 36.9767 44.843 35.3524 43.1348C33.1126 40.7803 32.8498 36.5703 35.3946 34.3235C35.6628 34.0863 35.9651 33.8777 36.2919 33.6991C35.8371 32.9288 35.5362 32.0358 35.3143 31.1974C34.9902 29.9731 34.8091 28.7256 34.7193 27.4632C34.5382 24.8878 34.8391 22.2661 35.4572 19.7644C37.6983 10.6968 44.5797 3.18075 53.7729 1.04303ZM37.4928 38.6698C37.0479 36.0865 42.2105 37.9968 43.3364 38.1768L43.3692 38.1817C44.6606 38.3612 43.9409 40.6292 42.67 39.9536L42.6313 39.9323C41.9438 39.5378 41.1875 39.255 40.4665 38.9208L40.3125 38.8484C39.7393 38.573 37.8454 37.3365 37.6398 38.6698C37.6289 38.7434 37.505 38.7421 37.4928 38.6698Z" fill="black"/>
<path fill-rule="evenodd" clip-rule="evenodd" d="M69.1467 49.7052C68.2294 49.3313 67.4111 48.7077 66.8127 47.911C66.6047 47.634 66.5508 47.3416 66.5944 47.0741C66.6435 46.7733 66.8216 46.5007 67.0644 46.3179C67.3081 46.1344 67.6128 46.044 67.9074 46.0901C68.1634 46.1302 68.4183 46.2702 68.62 46.5607L68.6621 46.6188C69.0178 47.0996 69.4814 47.4942 70.0095 47.7485C70.5186 47.9936 71.0879 48.108 71.677 48.0414C72.7991 47.9148 73.5725 47.3084 74.3946 46.485C74.4965 46.3811 74.5984 46.2738 74.7009 46.1649C74.7656 46.0661 74.8554 46.0027 74.9551 45.9694C75.0658 45.9324 75.191 45.9345 75.3057 45.9745C75.4163 46.013 75.5152 46.0861 75.5815 46.1834C75.6445 46.2759 75.6802 46.3901 75.6686 46.5215C75.5934 47.3748 75.1469 48.1364 74.5127 48.7344C73.8083 49.3985 72.8746 49.858 71.9955 50.0191C71.0271 50.1966 70.0402 50.0694 69.1467 49.7052ZM72.4524 36.5409C73.4827 37.1667 75.0526 38.6258 73.9442 40.1772C72.6395 41.5451 70.761 39.9767 69.8354 39.2674C68.977 38.7177 68.0126 40.1315 68.809 40.7735C75.498 45.7217 78.2125 36.7045 72.9735 35.8051C72.3967 35.706 72.1824 36.3473 72.4524 36.5409ZM60.4657 30.7847C60.5795 29.3728 62.7316 29.0522 62.9457 30.4494C63.1374 31.7009 62.9117 32.8506 62.3475 33.9774C61.8084 35.0539 60.4534 34.5517 60.351 33.5714C60.2136 32.2575 60.3948 31.663 60.4657 30.7847ZM76.8476 30.1597C77.1476 29.767 77.5808 29.499 78.0999 29.6505C79.7215 30.124 79.2435 32.4243 78.674 33.544C78.3646 34.1521 77.3643 34.3063 76.9123 33.7709C76.1755 32.8978 75.8226 31.1542 76.7593 30.2942C76.7847 30.2498 76.8129 30.2049 76.8476 30.1597ZM62.3246 24.6067L62.5808 24.5619C63.3732 24.4249 64.3585 24.2933 64.9191 24.9299C65.2164 25.2675 65.3188 25.8949 64.9191 26.218C64.2162 26.7865 63.439 26.5662 62.5966 26.6143C61.9024 26.6541 61.2351 26.7689 60.5664 26.9599C59.0994 27.3789 57.904 28.1437 56.651 28.9835C56.4866 29.0937 56.3188 28.8836 56.3973 28.7299C57.1206 27.3144 58.5222 26.1516 59.9262 25.4428C60.6756 25.0645 61.4956 24.7506 62.3246 24.6067ZM75.3693 23.9725L75.5654 24.0126C77.699 24.4583 80.4711 25.3484 81.4814 27.4424C81.5199 27.7385 81.4792 27.802 81.4462 27.8435L81.4351 27.8573C81.4079 27.8927 81.3861 27.9415 81.2577 27.9818C81.222 27.9733 81.186 27.9643 81.1497 27.9548C80.6865 27.8335 80.3201 27.6664 79.9654 27.4931L79.5807 27.3037C79.1345 27.0851 78.6843 26.8744 78.2072 26.7189C77.189 26.3871 76.1418 26.1533 75.0783 26.0285C74.8478 26.0015 74.6258 25.9238 74.4507 25.7905C74.2845 25.6641 74.1575 25.489 74.0996 25.2563C74.0246 24.9551 74.0462 24.7271 74.2079 24.4554C74.3295 24.2514 74.5035 24.1099 74.7033 24.0287C74.907 23.9459 75.1388 23.9264 75.3693 23.9725Z" fill="black"/>
<path fill-rule="evenodd" clip-rule="evenodd" d="M60.2967 50.5595C61.4013 47.9736 63.8124 46.0731 66.5883 45.3783C68.6268 44.8694 70.7661 44.8856 72.8441 45.0876C73.9329 45.1927 75.1006 45.2788 76.1267 45.6828C77.0029 46.028 77.7169 46.6803 78.2538 47.4461C78.8928 48.3536 79.3275 49.3922 79.6327 50.4567C79.6761 50.6081 79.7168 50.7605 79.7548 50.9138C79.6221 51.717 79.3403 52.4006 78.5958 52.9056C77.8692 53.3987 77.0023 53.6004 76.1381 53.672C76.0534 53.6314 75.9715 53.5896 75.8964 53.5468C74.5497 52.7765 73.6019 50.9561 71.9021 51.2024C70.3853 51.4224 69.3867 53.3295 68.4847 54.4478C65.5891 54.7849 62.6957 53.9155 60.3397 52.2611C60.2201 51.6949 60.2131 51.1238 60.2967 50.5595ZM81.7229 48.5979C81.4912 47.9484 81.1995 47.3193 80.8536 46.7267C79.7104 44.767 77.9553 43.2055 75.8719 42.313C70.9433 40.2044 64.5662 41.6908 60.5859 45.149C59.2263 46.3312 57.8516 48.0685 57.4358 49.9371C57.3117 49.9617 57.1945 50.0263 57.098 50.1172C54.2223 48.3081 51.2609 46.5676 48.9437 44.0599C47.2608 42.2379 46.0903 40.0817 45.3736 37.7122C45.315 37.5172 45.0002 37.5457 45.0098 37.7615C45.0125 37.812 45.0152 37.8624 45.0179 37.9129C44.988 37.8201 44.8462 37.8678 44.8353 37.9579C44.4497 40.8363 43.9674 43.8879 44.4116 46.7813C44.6773 48.5078 45.4622 49.7717 46.5114 51.1365C47.6355 52.5994 48.9082 53.9602 50.2095 55.265C51.0353 56.0933 51.8978 57.0487 52.9089 57.656C54.0849 58.3616 55.4189 58.8981 56.6738 59.4425C57.9506 59.998 59.2465 60.5112 60.5669 60.9561C63.2063 61.8487 65.9342 62.4656 68.7099 62.7358C70.9324 62.9514 73.4723 63.1863 75.6021 62.3509C77.2345 61.7108 78.5522 60.5536 79.5973 59.1614C80.7351 57.6451 81.6346 55.918 82.1318 54.0966C82.6485 52.2048 81.8317 48.9029 81.7229 48.5979Z" fill="black"/>
<path fill-rule="evenodd" clip-rule="evenodd" d="M84.6636 37.3712C83.0071 39.0815 80.2416 39.5723 78.0377 38.6551C72.3785 36.2925 75.1485 28.9237 79.5129 26.9448C80.0581 26.809 80.7863 26.4869 81.4504 26.4138C81.5104 26.3843 81.6411 26.4695 81.7996 26.389C86.6121 26.9259 87.708 34.3904 84.6636 37.3712ZM66.4105 37.809C64.5525 40.2713 61.0983 41.031 58.2761 39.8863C52.7008 37.6924 54.6782 31.1581 58.4928 28.5964C66.5507 25.571 69.8782 33.2689 66.4105 37.809ZM54.3243 32.3532C54.3191 32.3507 54.3139 32.3495 54.3086 32.347C54.3381 32.3341 54.3676 32.3211 54.3969 32.3079C54.3873 32.3329 54.377 32.3575 54.3677 32.3825C54.3532 32.3725 54.3405 32.3609 54.3243 32.3532ZM88.4993 29.6915C88.0444 29.6925 87.3873 29.7672 87.0107 30.0825C86.0821 26.9533 82.6544 24.0571 79.6733 26.1689C77.3258 26.9233 75.5839 28.5962 74.5938 30.8204C72.8087 29.7594 70.0018 30.2125 68.4539 31.6155C67.4401 28.2683 64.9451 27.0963 61.9754 26.9233C58.734 26.3928 55.5033 29.5382 54.4953 32.0614C53.6571 31.9661 52.4047 31.6996 51.6162 32.2164C46.4986 30.8755 37.5513 30.1361 36.5109 30.8812C35.7695 31.1654 35.3626 32.9141 36.3982 33.0084C37.3006 32.8804 36.2929 31.7271 37.2025 31.6013C42.0494 31.3011 46.7547 32.2764 51.5503 32.6857C51.9784 33.2612 53.3618 33.4537 54.0999 33.2224C52.9375 37.5028 55.4467 40.4149 59.2064 41.2871C65.028 42.6234 70.093 37.4198 68.5707 32.0073C70.3342 31.1307 72.3627 31.1683 74.2838 31.6301C71.0736 43.4352 90.1016 42.9056 87.1297 30.487C89.1075 31.47 89.537 29.8899 88.4993 29.6915Z" fill="black"/>
</svg>
