<svg width="16" height="19" viewBox="0 0 16 19" fill="none" xmlns="http://www.w3.org/2000/svg">
<path d="M7.68152 0.747559C5.6932 0.749742 3.78693 1.53901 2.3809 2.94223C0.974872 4.34544 0.183905 6.24801 0.181519 8.23255C0.181519 10.16 1.67686 13.1765 4.62621 17.198C4.97732 17.6781 5.43705 18.0687 5.96796 18.338C6.49888 18.6072 7.08599 18.7476 7.68152 18.7476C8.27704 18.7476 8.86415 18.6072 9.39507 18.338C9.92599 18.0687 10.3857 17.6781 10.7368 17.198C13.6862 13.1765 15.1815 10.16 15.1815 8.23255C15.1791 6.24801 14.3882 4.34544 12.9821 2.94223C11.5761 1.53901 9.66984 0.749742 7.68152 0.747559ZM7.68152 11.216C7.08704 11.216 6.50592 11.0401 6.01163 10.7105C5.51735 10.3808 5.1321 9.91227 4.9046 9.3641C4.67711 8.81592 4.61758 8.21272 4.73356 7.63078C4.84954 7.04883 5.1358 6.51429 5.55616 6.09473C5.97652 5.67517 6.51208 5.38945 7.09513 5.2737C7.67818 5.15794 8.28253 5.21735 8.83175 5.44441C9.38098 5.67148 9.8504 6.05599 10.1807 6.54934C10.5109 7.04269 10.6872 7.6227 10.6872 8.21605C10.6872 9.01169 10.3706 9.77476 9.80688 10.3374C9.2432 10.9 8.47868 11.216 7.68152 11.216Z" fill="black"/>
</svg>
