<svg width="15" height="15" viewBox="0 0 15 15" fill="none" xmlns="http://www.w3.org/2000/svg">
<path d="M13.5482 6.91798C13.3438 6.40546 13.05 5.92686 12.6824 5.50824V3.25764C12.6824 2.88324 12.5143 2.53551 12.2205 2.30287C11.9315 2.07448 11.5621 1.99209 11.2042 2.0763C10.1008 2.33983 9.27312 2.96624 8.82996 3.86103H5.58757C4.02713 3.86103 2.6263 4.56257 1.70673 5.6597C0.981222 5.55368 1.06889 4.46563 1.79923 4.46685C2.58942 4.46382 2.59003 3.25824 1.79923 3.25521C-0.12638 3.24916 -0.69711 5.92444 1.03261 6.71382C-0.0308555 8.90687 0.894162 11.7312 3.0084 12.9004V12.9483C3.00961 14.9784 5.87414 15.443 6.53253 13.5541H7.94908C8.60747 15.4442 11.472 14.9771 11.4732 12.9483V12.8925C12.4164 12.3455 13.1485 11.4992 13.5482 10.4971C14.0445 10.3911 14.4961 9.98341 14.4961 9.31337V8.10174C14.4961 7.43171 14.0439 7.024 13.5482 6.91798ZM10.8686 8.10174C10.0778 8.09811 10.0778 6.89375 10.8686 6.89011C11.6594 6.89375 11.6594 8.09811 10.8686 8.10174ZM3.64503 2.95958C3.30525 -0.427541 8.32453 -0.755287 8.45028 2.6494H5.58817C4.91043 2.6494 4.25808 2.76147 3.64503 2.95958Z" fill="black"/>
</svg>
