<svg width="142" height="159" viewBox="0 0 142 159" fill="none" xmlns="http://www.w3.org/2000/svg">
<path fill-rule="evenodd" clip-rule="evenodd" d="M138.083 87.4218C136.072 87.6193 134.061 87.8166 132.05 88.0142C122.417 88.7504 112.789 90.2879 103.231 91.2106C102.993 90.8231 102.527 90.887 102.244 91.1562C101.29 91.0727 100.221 90.3434 99.3575 91.102C99.3294 91.098 99.3013 91.0934 99.273 91.0907C97.7347 88.137 96.6714 84.9866 95.6393 81.832C94.9806 79.8925 94.0944 78.015 92.4567 76.7128C89.6618 74.7719 83.2578 70.8362 79.9759 71.0016C79.9215 70.4137 79.6476 69.8079 79.1978 69.4165C80.1891 67.7258 76.2255 66.6227 75.9459 66.8187C76.1251 61.1703 73.4692 56.265 67.6129 55.1402C62.3663 54.0465 54.904 53.8628 52.0823 59.3479C51.7721 59.3129 48.6015 59.2964 48.2947 59.3308C47.8178 58.7265 42.5798 64.4529 44.7266 66.4465C25.5333 74.9403 14.62 73.9268 9.30756 97.805C8.58937 100.048 8.53707 102.503 7.7787 104.696C5.08062 110.998 2.89222 117.71 2.34758 124.568C1.03217 124.905 0.880892 127.225 2.40454 127.561C2.98654 127.689 3.47323 127.864 3.8976 128.197C3.56585 133.817 4.92455 146.655 5.78062 146.615C7.52619 152.173 15.3123 153.741 20.8247 151.788C19.8744 153.576 20.8247 154.701 20.8247 155.656C40.6595 156.407 62.3467 155.975 82.176 157.004C84.7125 156.968 87.3804 157.628 89.8823 157.248C91.408 156.882 91.4106 154.482 89.8629 154.186L96.6253 152.716C96.4742 152.659 99.4128 150.704 101.634 147.05C103.701 142.962 102.294 138.028 103.231 133.582C110.547 132.983 117.984 132.728 125.22 131.488C126.207 134.441 130.478 130.909 131.835 129.489C131.833 129.486 131.832 129.484 131.83 129.482C132.487 129.302 133.014 128.686 133.032 127.957C133.492 127.298 133.589 126.37 133.147 125.734C135.172 114.043 138.26 102.108 139.376 90.3074C139.77 90.2201 140.142 90.0471 140.457 89.7805L140.431 89.755C140.965 89.1598 141.068 88.1325 140.179 87.6268C139.461 87.2185 138.862 87.3452 138.083 87.4218Z" fill="#EDB98A"/>
<path fill-rule="evenodd" clip-rule="evenodd" d="M61.5927 131.175L63.142 132.162L75.8181 136.248L83.5646 137.234L89.9026 136.248V147.097L91.1702 157.242C90.6068 158.275 85.2547 158.275 75.1139 157.242C68.6493 156.583 45.0232 156.264 39.644 156.123L39.3392 156.115C33.0181 155.932 26.774 155.932 20.6068 156.115V152.31L38.2125 143.574L53.9871 134.698L61.5927 131.175ZM52.6109 58.4611L53.7751 59.3308L51.2333 63.5085L63.6154 73.528V81.531L67.5355 85.2401L69.7761 81.531L72.9335 77.3306L75.1772 70.5217L74.4133 66.0359L75.9496 65.8911C75.9571 66.1977 75.9558 66.5071 75.9459 66.8187C76.2255 66.6227 80.1891 67.7258 79.1978 69.4165C79.6476 69.8079 79.9215 70.4137 79.9759 71.0016C83.2578 70.8362 89.6618 74.7719 92.4567 76.7128C94.0944 78.015 94.9806 79.8925 95.6393 81.832L95.7944 82.3052L95.9545 82.7909L96.1159 83.2762C97.0072 85.9442 97.9696 88.5881 99.273 91.0907C99.3013 91.0934 99.3294 91.098 99.3575 91.102C100.221 90.3434 101.29 91.0727 102.244 91.1562C102.52 90.8932 102.971 90.8262 103.214 91.1843L103.231 91.2106L91.3475 93.5525L83.508 121.062L76.6809 115.519L73.0163 116.064L63.339 119.555L52.0837 122.48L26.3893 129.567H23.1172L4.0771 124.967L2.36119 124.4C2.92782 117.601 5.10255 110.947 7.7787 104.696C8.53707 102.503 8.58937 100.048 9.30756 97.805C14.62 73.9268 25.5333 74.9403 44.7266 66.4465C42.5798 64.4529 47.8178 58.7265 48.2947 59.3308L48.3248 59.3282L48.3898 59.3247L48.4736 59.3218C49.2223 59.3 51.8039 59.3165 52.0823 59.3479C52.2437 59.034 52.4204 58.7388 52.6109 58.4611Z" fill="#FFD12B"/>
<path fill-rule="evenodd" clip-rule="evenodd" d="M139.982 88.2571L139.629 90.2304C139.544 90.2579 139.459 90.2813 139.372 90.3005C139.261 91.4768 139.13 92.6545 138.983 93.8332L136.788 106.069C136.41 108.234 136.05 110.403 135.694 112.573L134.928 116.353C134.296 119.49 133.682 122.617 133.144 125.727C133.225 125.844 133.288 125.971 133.334 126.104L133.293 126.279L133.264 126.396L133.234 126.512C132.809 128.146 132.07 129.731 130.327 130.212C129.012 130.575 127.57 130.608 126.212 130.751L126.062 130.767L102.307 133.44C99.4364 133.763 96.5675 134.095 93.6988 134.431L91.2119 134.723C87.7457 135.125 84.2595 135.441 80.8443 136.168C80.7188 136.194 80.6149 136.244 80.5301 136.31C81.2178 133.706 81.8762 131.105 82.4728 128.475C83.1443 125.514 83.7817 122.547 84.5 119.597C85.947 113.654 87.5691 107.75 89.3449 101.897C89.7175 100.668 90.0988 99.442 90.4884 98.2188L90.7618 97.3638L90.9723 96.6824C91.2979 95.6435 91.7008 94.5757 92.6556 94.0026C93.773 93.3319 95.2968 93.2207 96.5641 92.9887L97.4223 92.8274C98.7063 92.5878 99.9919 92.3573 101.279 92.1358C107.442 91.0754 113.64 90.2248 119.86 89.5858C126.333 88.9208 132.829 88.4887 139.332 88.2775L139.982 88.2571ZM81.0223 129.054L81.0829 129.059L80.1956 136.155C80.0538 136.055 79.8736 135.995 79.6538 135.995C76.7432 136.004 73.9532 135.073 71.2547 134.05L70.8437 133.893L69.698 133.453C68.5334 133.006 67.3625 132.57 66.1698 132.208L65.6877 132.062L65.4426 131.99C64.5396 131.726 63.5897 131.486 62.6504 131.427L62.5224 131.42L62.7959 131.276C62.8359 131.255 62.871 131.232 62.9021 131.206C63.4191 131.245 63.9371 131.234 64.4825 131.136C65.5081 130.951 66.5055 130.594 67.4212 130.097L67.8302 129.876L67.9977 129.787L68.1083 129.729L68.2183 129.674C69.0048 129.281 69.7569 129.036 70.75 129.245C71.8773 129.482 72.8652 130.09 73.8815 130.604L74.0618 130.693L74.1831 130.752L74.3067 130.81L74.4318 130.867C75.8061 131.486 77.9931 132.154 78.5201 130.284C78.7318 129.533 78.566 128.83 78.1987 128.214C78.8832 128.154 80.106 128.962 81.0223 129.054ZM115.23 105.675L115.247 105.76C115.441 106.806 114.954 107.807 114.217 108.537C113.612 109.136 112.541 109.468 112.238 110.329C112.065 110.819 112.249 111.284 112.603 111.608L112.522 111.648L112.442 111.689L112.364 111.73L112.288 111.772L112.214 111.814C111.009 112.506 110.028 113.632 111.115 114.992C112.347 116.535 114.923 116.585 116.738 116.464L116.86 116.456C118.619 116.324 120.704 115.733 121.658 114.107C122.096 113.362 122.047 112.46 121.437 111.822C121.069 111.437 120.413 111.041 119.811 110.995C119.837 110.655 119.797 110.328 119.678 110.051C119.42 109.453 118.733 109.051 118.071 109.036C118.124 107.767 117.108 106.514 116.36 105.499L116.283 105.395L116.209 105.292C115.866 104.814 115.131 105.082 115.23 105.675ZM116.235 107.026L116.916 109.581L116.905 109.602C116.665 110.058 117.294 110.576 117.668 110.193L117.705 110.152C118.148 109.694 118.829 110.31 118.837 110.797C118.849 111.483 118.403 112.014 117.871 112.364L117.834 112.388L117.736 112.449C117.299 112.738 117.629 113.341 118.109 113.268C118.703 113.177 119.19 112.706 119.49 112.117C119.81 112.209 120.175 112.198 120.513 112.387C121.363 112.863 120.874 113.696 120.32 114.199L120.298 114.219L120.253 114.259C119.236 115.126 117.852 115.427 116.548 115.491L116.473 115.495C115.155 115.551 113.439 115.57 112.309 114.795C111.607 114.312 111.403 113.628 111.998 112.98C112.334 112.614 112.674 112.245 113.023 111.887C113.547 112.137 114.014 112.036 114.549 111.8C114.618 111.769 114.58 111.664 114.512 111.664C114.217 111.664 113.134 111.116 113.081 110.765C113.033 110.441 113.632 110.168 113.923 110.011L113.965 109.988L114.002 109.967C114.307 109.782 114.594 109.567 114.856 109.325C115.522 108.713 116.005 107.944 116.216 107.102L116.235 107.026Z" fill="#DDDDDD"/>
<path fill-rule="evenodd" clip-rule="evenodd" d="M52.4479 58.074C53.0455 56.5715 55.0657 57.1556 54.8405 58.7339C54.7057 59.6794 54.1881 60.6779 53.7231 61.5066C53.3445 62.1811 52.9127 62.8393 52.3272 63.3449C53.3695 64.3177 54.4513 65.2549 55.5606 66.1449C56.771 67.1158 58.0438 68.0108 59.3595 68.8334C60.5131 69.5548 61.7189 70.1939 62.8064 71.0171C63.8175 71.7823 64.7386 72.7026 65.2074 73.9041C65.7067 75.1835 65.4897 76.5048 65.122 77.7834L65.0798 77.9279C64.7041 79.1946 64.0538 80.7215 64.9555 81.915C65.4145 82.5225 66.0819 82.9529 66.6581 83.4385C67.1702 83.8702 67.6509 84.3397 68.0917 84.844C69.053 85.9433 69.8348 87.1803 70.3282 88.5586L70.3723 88.6838C70.7952 89.9039 71.1043 91.3986 70.5328 92.5965C70.3689 92.9399 69.8402 92.8283 69.7483 92.4939C69.5407 91.7364 69.5516 90.9432 69.3775 90.175C69.1964 89.3761 68.895 88.6177 68.5013 87.9003C67.7396 86.5123 66.7081 85.3267 65.4894 84.3244L65.1246 84.0276C64.1738 83.247 63.3003 82.419 63.1074 81.1272C62.9009 79.7451 63.4544 78.4285 63.8103 77.1204C64.0583 76.2088 64.1393 75.3349 63.8713 74.5111C63.5438 75.0458 63.0971 75.5533 62.7437 76.006C62.0399 76.9079 61.3295 77.8044 60.6209 78.7025C59.8944 79.6234 59.1858 80.5588 58.511 81.5185C58.2092 81.9478 57.9106 82.3797 57.613 82.812C57.3892 83.1369 57.0771 83.4615 56.8331 83.7929C56.8924 83.9701 56.8879 84.1745 56.7805 84.3196C55.4868 86.0682 53.6464 82.4197 53.1664 81.4979C52.1889 79.6207 51.4614 77.6264 50.4807 75.7496C49.4645 73.8041 48.3074 71.9104 47.0176 70.1342C46.2375 69.0598 45.3631 68.0507 44.6495 66.9422C42.9682 68.4673 40.7558 69.4897 38.7237 70.4168C36.491 71.4353 34.1714 72.2674 31.8822 73.1509L31.206 73.4137C27.2616 74.9536 23.2209 76.6454 19.9424 79.3807C16.0899 82.5951 13.8107 87.0752 12.114 91.7144C10.1607 97.0553 8.54482 102.54 7.03848 108.022C6.26764 110.826 5.53623 113.644 4.84862 116.47C4.24271 118.96 3.74045 121.475 3.03904 123.939C4.46158 123.889 6.08397 124.44 7.29848 124.599C12.8336 125.324 18.2941 126.479 23.5199 128.479C24.1654 128.726 24.3521 129.371 24.2116 129.894C24.5838 129.789 24.9558 129.682 25.3281 129.578C24.9202 128.953 25.1149 127.835 25.1469 127.142L25.1489 127.094C25.1819 126.171 25.282 125.247 25.3469 124.325C25.4706 122.568 25.6315 120.824 25.8456 119.078L25.9002 118.641C26.1427 116.74 26.322 114.829 26.5867 112.931L26.6179 112.714C26.491 112.229 26.3433 111.749 26.1882 111.272C25.775 110 25.1917 108.804 24.6806 107.572C24.6203 107.427 24.8268 107.344 24.9233 107.431C25.7889 108.21 26.4765 109.198 27.0289 110.232C27.0385 110.183 27.0469 110.134 27.0569 110.085L27.12 109.775C27.2754 109.018 27.4645 108.221 27.9286 107.608C27.9781 107.542 28.0758 107.529 28.1226 107.608C28.5668 108.36 28.6165 109.312 28.6848 110.168C28.7621 111.136 28.7719 112.116 28.7582 113.086C28.7316 114.983 28.5979 116.886 28.4914 118.78C28.387 120.641 28.1818 122.478 27.9175 124.321L27.8672 124.666C27.738 125.543 27.6322 126.431 27.4617 127.303L27.4136 127.54C27.3224 127.972 27.2664 128.581 27.085 129.087C31.7523 127.784 36.4268 126.512 41.1102 125.262C44.4951 124.358 47.8836 123.468 51.2706 122.572C51.4493 122.25 51.6719 121.949 51.9496 121.68C52.8647 120.793 54.0774 120.398 55.1896 121.08C55.28 121.136 55.2876 121.277 55.1896 121.331C54.9765 121.448 54.763 121.567 54.5533 121.692L56.5871 121.141C58.1072 120.728 59.6455 120.213 61.2014 119.926C64.0672 118.511 67.1495 117.487 70.1683 116.475L70.5241 116.355C72.0698 115.828 73.6687 115.238 75.2657 114.945C76.4348 114.731 77.8072 114.989 78.2774 116.188C78.8726 116.58 79.4326 117.041 79.973 117.495C80.3637 117.823 80.7382 118.171 81.119 118.51L81.1893 118.572C81.5006 118.842 81.7473 119.023 81.8237 119.453C81.8631 119.676 81.722 119.976 81.4481 119.946C80.6099 119.857 79.9283 118.885 79.3599 118.304C78.9207 117.856 78.4781 117.392 78.0772 116.899C77.8436 117.026 77.5233 117.003 77.3745 116.722C76.6033 115.261 74.4905 116.273 73.3214 116.619L71.6468 117.115C70.8095 117.364 69.9726 117.613 69.1371 117.867C66.8407 118.565 64.5557 119.345 62.2385 119.986C62.4458 120.214 62.4172 120.619 62.0234 120.774C60.2096 121.486 58.2197 121.854 56.3354 122.342C55.1457 122.651 53.9567 122.962 52.7681 123.274C52.5643 123.604 52.4176 123.978 52.3559 124.413C52.1291 126.012 52.5666 127.857 52.9927 129.404L53.0569 129.635C53.4072 130.879 53.9226 132.403 54.9951 133.188C55.2569 133.38 55.5903 133.513 55.9264 133.543C58.0259 132.462 60.1254 131.381 62.2261 130.302C62.6152 130.102 62.9748 130.373 63.0621 130.695C63.8028 130.573 64.5419 130.382 65.215 130.153C66.3459 129.769 67.229 129.036 68.2893 128.529C70.3409 127.549 72.4359 128.753 74.2728 129.669L74.6961 129.877C75.5198 130.277 77.2335 131.045 77.6288 129.951C78.011 128.893 76.8024 127.763 76.0219 127.287C75.0914 126.719 74.0081 126.415 72.9565 126.162C72.3561 126.017 71.7483 125.9 71.1369 125.813C70.4434 125.716 69.7271 125.73 69.0593 125.505C68.7275 125.394 68.6765 124.867 69.0593 124.779C70.0872 124.545 71.3141 124.801 72.3867 125.062L72.9474 125.2C74.0281 125.465 75.1192 125.798 76.1036 126.327C76.8193 126.712 77.5748 127.297 78.0683 128.013C78.4969 127.614 79.0303 127.628 79.586 127.776L79.8876 127.86C80.3856 127.998 80.7892 128.093 81.2738 127.997C81.3386 127.644 81.4043 127.291 81.4745 126.939C82.1651 123.471 82.9224 120.016 83.7581 116.579C85.1994 110.652 86.8673 104.79 88.7476 98.9874L88.9364 98.4073C89.37 97.0802 89.719 95.6343 90.4182 94.4151C91.0795 93.2622 92.1389 92.5982 93.3976 92.2465C94.8261 91.8475 96.3271 91.6386 97.7843 91.3691C98.1093 91.3091 98.4352 91.252 98.7606 91.193C98.4856 90.6963 98.2804 90.1326 98.0956 89.7L98.0631 89.625C97.666 88.7192 97.3092 87.7971 96.9647 86.8701L96.707 86.1731C96.085 84.4949 95.4429 82.8442 94.5683 81.2746C93.6478 79.6227 92.4265 78.2721 90.9041 77.1544C87.8002 74.8752 84.0589 73.7126 81.0483 71.2769C80.925 71.1771 81.0831 71.0065 81.2083 71.0696C83.2412 72.0914 85.4357 72.7862 87.55 73.6181L87.9671 73.7827C89.6383 74.4454 91.3355 75.1669 92.782 76.2399C94.3947 77.4365 95.6648 78.9224 96.6195 80.6894C97.5603 82.4312 98.1621 84.3809 98.8259 86.2413L99.0035 86.737C99.2712 87.4804 99.5478 88.2215 99.8647 88.9449C100.116 89.5192 100.586 90.1748 100.799 90.8309C101.383 90.7296 101.967 90.628 102.551 90.5303C115.208 88.4163 128.007 87.1741 140.834 86.8107C141.336 86.7965 141.596 87.2755 141.522 87.7134C140.291 94.9953 139.197 102.302 137.996 109.589C137.472 112.77 136.938 115.948 136.391 119.125C136.114 120.734 135.794 122.337 135.531 123.949C135.32 125.251 135.166 126.562 134.802 127.834C134.476 128.974 133.975 130.073 133.153 130.943C132.267 131.881 131.03 132.334 129.785 132.549C126.624 133.093 123.382 133.315 120.196 133.678L103.232 135.609C103.48 137.863 103.498 140.082 103.384 142.362L103.32 143.607C103.267 144.609 103.203 145.611 103.059 146.602C102.879 147.846 102.311 148.898 101.473 149.827C100.705 150.679 99.7705 151.407 98.8619 152.104C97.9188 152.828 96.9443 153.527 95.8354 153.975L95.6915 154.032C94.7187 154.412 92.8938 155 91.5641 154.785C91.7379 155.656 92.0743 156.593 91.7761 157.455C91.6378 157.855 91.1145 158.055 90.794 157.714C90.1589 157.039 90.1093 156.148 89.9589 155.267C89.8024 154.351 89.6675 153.431 89.5476 152.509C89.3158 150.727 89.1354 148.928 89.0803 147.13C89.0237 145.284 89.0455 143.435 89.145 141.591C89.1961 140.644 89.2595 139.698 89.3796 138.757C89.4309 138.356 89.4833 137.954 89.5431 137.554C89.565 137.408 89.5892 137.263 89.6152 137.118L88.0926 137.289C85.7578 137.55 83.422 137.786 81.0707 137.822C80.7923 137.826 80.5781 137.7 80.4381 137.515C80.2889 137.758 80.0292 137.932 79.6572 137.93C76.3737 137.918 73.3159 136.844 70.3295 135.578C68.8241 134.94 67.3421 134.249 65.8345 133.616C64.4273 133.026 62.923 132.604 61.5497 131.939L57.9413 133.832C57.9148 133.925 57.8809 134.013 57.8448 134.087C57.6099 134.567 57.1466 134.827 56.6735 135.023C56.2195 135.212 55.7492 135.27 55.291 135.223C52.5544 136.657 49.8171 138.091 47.078 139.52L44.3382 140.949C38.8796 143.792 33.4426 146.682 27.9496 149.459L27.5452 149.662C25.6479 150.614 23.6106 151.579 21.5051 152.299C21.4676 152.832 21.4913 153.35 21.5359 153.915L21.5467 154.038C21.6095 154.704 21.7441 155.54 21.2093 156.015C20.9312 156.262 20.4343 156.263 20.2451 155.89C19.9019 155.215 20.21 154.151 20.3188 153.418C20.3574 153.157 20.4044 152.889 20.474 152.629C18.0602 153.348 15.5733 153.696 13.1169 153.292C10.7254 152.9 8.87313 151.393 7.37989 149.549C5.80397 147.604 4.68411 145.336 4.08327 142.906C3.39947 140.14 3.35482 137.284 3.37087 134.452C3.38792 131.435 3.49947 128.404 3.86623 125.407C3.4644 125.313 3.01876 125.231 2.61271 125.259C2.41158 125.581 2.02144 125.717 1.6689 125.675C0.902283 126.521 2.84679 127.385 3.4682 127.602C3.68397 127.677 3.66087 128.027 3.412 128.017L3.25524 128.009C2.29505 127.958 1.30304 127.794 0.738481 126.902C0.286086 126.186 0.422002 125.338 0.961297 124.755C1.31749 121.386 2.16904 118.105 2.96158 114.818C3.73933 111.592 4.60426 108.387 5.52102 105.198L5.93201 103.771C7.37543 98.7705 8.88416 93.7298 10.8752 88.9281C11.8695 86.5306 13.0148 84.1771 14.5674 82.0866C16.0145 80.1378 17.7231 78.4702 19.6871 77.046C23.3483 74.3907 27.6445 72.7862 31.8656 71.2576L32.0545 71.1892C34.242 70.3977 36.4241 69.5966 38.5867 68.739C40.4992 67.9805 42.3314 67.0189 44.235 66.249C44.1731 66.1367 44.1134 66.0231 44.0559 65.9083L44.0208 65.9379C44.0147 65.9427 44.0086 65.9473 44.0021 65.9517C43.8107 66.0844 43.5289 66.0192 43.3712 65.8702C42.9257 65.4498 43.0765 64.9831 43.3739 64.547L43.4126 64.4915C43.7762 63.9819 44.1006 63.4431 44.4362 62.915L44.6464 62.5848C45.2098 61.7025 45.8018 60.8143 46.553 60.0852C46.9009 59.7473 47.2817 59.4945 47.6852 59.3061C47.6507 59.2331 47.9533 59.0839 48.039 59.159C49.3175 58.691 50.7883 58.789 52.1821 58.9181M102.411 135.702L100.633 135.904C98.6779 136.127 96.7217 136.342 94.7652 136.555L90.5155 137.017C90.5047 137.259 90.4753 137.496 90.4699 137.679C90.4421 138.623 90.4214 139.567 90.4019 140.511C90.3626 142.403 90.4057 144.297 90.5302 146.185C90.6509 148.015 90.8098 149.845 91.0568 151.662L91.1074 152.025L91.1367 152.217C91.3382 152.236 91.5362 152.332 91.7009 152.529C92.0603 152.958 93.3619 152.541 93.8702 152.36C94.7061 152.062 95.4933 151.559 96.2196 151.055C96.9289 150.563 97.5676 149.989 98.1814 149.384L98.6836 148.887C99.1832 148.391 99.6833 147.862 99.9893 147.237C100.404 146.39 100.458 145.35 100.58 144.428C100.73 143.293 100.908 142.158 101.097 141.029M50.8116 123.79L50.6272 123.838C43.9299 125.619 37.2426 127.451 30.5247 129.153C27.2002 129.995 23.8599 130.776 20.5313 131.602L19.9924 131.737C17.3665 132.401 14.7091 133.2 12.6982 135.106C12.624 135.176 12.5162 135.068 12.5861 134.993C14.7533 132.686 17.8355 131.709 20.795 130.862C21.342 130.705 21.8898 130.552 22.4369 130.396C18.4121 128.961 14.3238 127.712 10.1412 126.822C9.06412 126.592 7.97454 126.424 6.89834 126.194C6.14779 126.033 5.41481 125.801 4.67219 125.608L4.08806 125.461L4.0803 127.308C4.07058 129.924 4.07522 132.538 4.20862 135.153L4.23387 135.637C4.38952 138.548 4.63246 141.519 5.66496 144.264C6.50397 146.494 7.8413 148.595 9.59017 150.219C10.4751 151.041 11.4265 151.681 12.6026 151.997C13.6945 152.29 14.8386 152.324 15.9612 152.246C21.3455 151.87 26.1385 148.944 30.8157 146.522C38.466 142.559 46.1171 138.599 53.7751 134.651C53.5681 134.51 53.3731 134.346 53.1958 134.163C52.1689 133.102 51.6272 131.65 51.2714 130.243C50.8927 128.746 50.6662 127.141 50.6399 125.596M60.5557 136.181C60.6233 136.145 60.7016 136.19 60.7047 136.266C60.7284 136.852 60.4051 137.429 60.1636 137.956L60.1381 138.012C59.8447 138.665 59.5234 139.309 59.1912 139.943C58.5271 141.21 57.8369 142.463 57.1167 143.699C55.6682 146.185 54.0586 148.565 52.1561 150.73C51.7264 151.219 51.0196 150.592 51.2954 150.065C52.625 147.528 54.175 145.132 55.7705 142.757C56.5692 141.567 57.3674 140.377 58.174 139.193C58.5105 138.699 58.8513 138.207 59.2013 137.722L59.4124 137.432M139.986 88.2641C133.265 88.4671 126.552 88.9056 119.864 89.5928C113.643 90.2318 107.445 91.0824 101.283 92.1428C99.9954 92.3642 98.7097 92.5948 97.4257 92.8344L96.6555 92.9793C95.3713 93.2228 93.8024 93.3232 92.659 94.0096C91.4536 94.7331 91.1278 96.2452 90.7267 97.4922C90.2551 98.9587 89.7955 100.429 89.3483 101.904C87.5726 107.757 85.9505 113.661 84.5034 119.604C83.7851 122.554 83.1478 125.521 82.4762 128.482C81.8796 131.112 81.2213 133.713 80.5336 136.317C80.6183 136.251 80.7223 136.201 80.8478 136.175C84.263 135.448 87.7491 135.132 91.2154 134.73L91.5507 134.691C95.1365 134.269 98.7223 133.85 102.31 133.447L126.065 130.774C127.466 130.617 128.967 130.595 130.33 130.219C132.648 129.58 133.191 126.987 133.58 124.922L133.592 124.86C134.765 118.622 135.698 112.33 136.792 106.076M81.0864 129.066C80.1641 129.005 78.9019 128.16 78.2021 128.221C78.5695 128.837 78.7352 129.54 78.5236 130.291C77.9344 132.381 75.27 131.3 73.9867 130.662C72.9344 130.138 71.9184 129.497 70.7534 129.252C69.4337 128.974 68.5396 129.499 67.4247 130.104C66.5089 130.601 65.5116 130.958 64.486 131.143C63.9406 131.241 63.4226 131.252 62.9055 131.213C62.8744 131.239 62.8393 131.262 62.7993 131.283L62.5258 131.427C63.7626 131.483 65.0223 131.865 66.1733 132.215C67.3659 132.577 68.5368 133.013 69.7014 133.46L70.8472 133.9C73.6733 134.983 76.5987 136.011 79.6572 136.002C79.8771 136.001 80.0572 136.062 80.1991 136.162M75.9264 122.518C76.8375 122.406 77.6785 122.526 78.4066 123.119C79.2846 123.834 79.8744 125.021 81.1367 125.099C81.5047 125.122 81.5902 125.639 81.2244 125.748C80.2849 126.026 79.5242 125.517 78.884 124.857L78.4536 124.407C77.821 123.752 77.2376 123.245 76.1642 123.285C75.0146 123.327 73.863 123.592 72.7209 123.727C71.4271 123.88 70.1336 124.011 68.8357 124.123C68.7754 124.129 68.7651 124.034 68.8216 124.02L70.2753 123.658M75.0469 118.791L75.1972 118.776C76.5203 118.648 77.7302 118.643 78.9118 119.355L79.1385 119.492C80.2038 120.14 81.3634 120.903 82.0296 121.952C82.1386 122.123 81.9585 122.325 81.7761 122.282C80.4957 121.974 79.5596 121.034 78.4828 120.331C77.2744 119.542 76.0261 119.672 74.6482 119.794C73.3141 119.913 71.9807 120.076 70.6597 120.299C69.4185 120.508 68.1733 120.837 66.9195 120.942L66.9197 120.94C66.7765 120.94 66.6948 120.724 66.8409 120.652C68.1133 120.016 69.5869 119.715 70.971 119.425M116.238 107.033C116.038 107.904 115.545 108.701 114.859 109.332C114.597 109.574 114.31 109.789 114.005 109.974L113.969 109.995C113.698 110.147 113.033 110.431 113.085 110.772C113.137 111.123 114.221 111.671 114.516 111.671C114.583 111.671 114.621 111.776 114.552 111.807C114.017 112.043 113.55 112.144 113.027 111.894C112.677 112.251 112.338 112.621 112.001 112.987C111.406 113.635 111.61 114.319 112.313 114.802C113.442 115.577 115.159 115.558 116.476 115.502C117.803 115.445 119.22 115.149 120.256 114.266L120.301 114.226C120.864 113.725 121.378 112.876 120.516 112.394C120.179 112.205 119.814 112.216 119.493 112.124C119.193 112.713 118.707 113.184 118.113 113.275C117.633 113.348 117.302 112.745 117.739 112.456L117.837 112.395C118.385 112.045 118.853 111.506 118.841 110.804C118.832 110.317 118.152 109.701 117.709 110.159L117.688 110.181C117.317 110.599 116.664 110.072 116.908 109.609L116.92 109.588M29.7424 82.8008C29.7407 82.6961 29.8879 82.6569 29.9393 82.7475C30.8001 84.2626 31.2501 86.1198 31.7087 87.789C32.189 89.5376 32.5768 91.3039 32.9251 93.0832C33.6306 96.6862 34.0065 100.268 34.032 103.941C34.0355 104.465 33.1817 104.604 33.0982 104.067C32.5437 100.495 32.0124 96.9195 31.4537 93.3485C31.1725 91.5525 30.8453 89.7633 30.5322 87.9726M38.2646 85.4398C38.2013 85.2308 38.5052 85.1609 38.5829 85.352C40.3106 89.5943 40.8956 94.4021 39.7865 98.8778C39.6167 99.5625 38.6144 99.2659 38.7424 98.5898M60.5488 81.6701C60.5401 81.5137 60.743 81.4891 60.8195 81.5967C61.6381 82.7506 61.9777 84.2958 63.4138 84.8921C64.1309 85.1898 64.9378 85.138 65.5713 85.6408C65.9948 85.9772 66.3196 86.5081 66.0017 87.0174C65.8992 87.182 65.6122 87.2644 65.473 87.0856C65.2699 86.8251 65.1624 86.5132 64.8865 86.3179C64.4974 86.0424 63.9726 86.0254 63.5264 85.8959C62.9492 85.7285 62.4405 85.4356 62.0238 85.0003M74.2246 62.4254C74.3089 62.3825 74.3899 62.4099 74.4439 62.4829C74.5209 62.5869 74.5115 62.6881 74.4171 62.7594C74.5432 63.0171 74.692 63.6627 74.7133 63.7567C74.7995 64.1377 74.8912 64.5164 74.9871 64.8949C75.1806 65.6581 75.3502 66.4273 75.5439 67.1908C75.7492 68.0002 75.9939 68.8009 76.2661 69.5901C76.2837 69.6412 76.303 69.6933 76.3233 69.7463L76.3543 69.8262L76.3619 69.8141C76.4173 69.7266 76.5325 69.7878 76.5188 69.8802C76.5061 69.9644 76.4891 70.0483 76.4747 70.1325L76.5033 70.208C76.6813 70.6875 76.8033 71.1925 76.4766 71.6157C76.3543 71.7739 76.2198 71.8676 76.0522 71.8955C75.7835 72.7817 75.4463 73.6515 75.0853 74.4868L74.9795 74.7307C74.4485 75.9495 73.8822 77.1523 73.0367 78.1899C72.1136 79.3227 70.8439 80.0963 70.0398 81.3376C69.6657 81.915 69.4054 82.5222 69.1942 83.1743L69.1147 83.4218C68.9647 83.883 68.7917 84.33 68.3592 84.6006C68.2212 84.6868 68.0144 84.6593 67.9032 84.5417C67.0163 83.6032 67.9447 81.8506 68.4795 80.942C69.2229 79.6784 70.2988 78.87 71.3761 77.9167C72.5374 76.8891 73.2781 75.5145 73.9946 74.1603C74.4335 73.3307 74.8571 72.4832 75.3032 71.6499C74.8372 71.2378 74.688 70.4194 74.5301 69.8505L74.5157 69.7994C74.2547 68.8884 74.0474 67.9537 73.9164 67.0148C73.7903 66.1122 73.7378 65.2224 73.7711 64.3147L73.7807 64.0835M75.9573 66.7217C75.8543 66.5806 76.0248 66.4206 76.166 66.4501C77.0249 66.6278 77.8647 67.1479 78.6355 67.5684L78.7179 67.6131C79.3332 67.945 79.9524 68.3517 80.2755 68.9966C80.6269 69.6975 80.5979 70.5048 80.55 71.2665L80.5455 71.3378C80.4867 72.2512 80.4773 73.2003 80.2841 74.0973C80.1852 74.5564 79.7696 74.6857 79.4142 74.5772C78.9914 75.9128 77.8036 76.8968 76.936 77.9508C75.8298 79.2944 76.038 81.1085 76.1536 82.7267C76.2004 83.3819 75.3857 83.5682 74.9662 83.2186L73.9992 82.4152C73.8382 82.2811 73.6774 82.1467 73.517 82.0118C73.3797 81.8962 73.2435 81.7797 73.1085 81.6617L72.9069 81.4836C72.8174 81.4035 72.4229 80.9627 72.3076 80.9443C72.0282 80.8999 71.3644 81.6365 71.1372 81.8676L71.1084 81.8964C70.6808 82.3159 70.2945 82.7672 69.9346 83.2458C69.8684 83.3337 69.739 83.2607 69.7863 83.1591C70.1088 82.4682 70.4837 81.8075 70.9289 81.1892L71.0189 81.0661C71.315 80.6668 71.7126 79.9617 72.2355 79.8438C72.8739 79.6999 73.5113 80.3403 73.9758 80.6958L74.0052 80.7181C74.2262 80.8839 74.4446 81.0527 74.6627 81.2226C74.6398 80.0178 74.7919 78.8004 75.4138 77.7621C75.8522 77.0298 76.5091 76.4875 77.0712 75.8583C77.697 75.1576 78.0238 74.2964 78.5903 73.5667C78.6632 73.4728 78.7638 73.4222 78.8727 73.4062C78.8944 72.8195 78.9808 72.2271 79.0475 71.6467L79.0669 71.473C79.1343 70.8425 79.2938 70.0723 78.9852 69.4818C78.6937 68.9241 78.0249 68.5304 77.5296 68.1519L77.1252 67.8381M48.082 60.0546C47.8234 60.2042 47.5817 60.3904 47.3624 60.623C46.6721 61.3555 46.1786 62.2671 45.6983 63.1441C45.4398 63.6164 45.1905 64.0939 44.9298 64.5651C44.8164 64.7701 44.6997 64.9729 44.5819 65.1753C44.5274 65.2686 44.3654 65.454 44.2851 65.5683C44.3743 65.6933 44.4665 65.8165 44.5606 65.9382C44.5965 65.9847 47.0727 68.6831 47.9358 69.7392C49.2575 71.3569 50.4389 73.0656 51.4489 74.8945C52.4379 76.6855 53.1909 78.5817 54.1071 80.4073C54.5657 81.3214 55.0778 82.2289 55.7306 83.0199C55.7558 83.0508 55.7824 83.0799 55.8082 83.1104C56.0574 82.437 56.6958 81.7161 57.0093 81.3021L57.0386 81.263C57.7498 80.3041 58.5007 79.374 59.2681 78.4597C59.9689 77.6248 60.6876 76.808 61.4236 76.0046L61.7005 75.704C62.2133 75.1498 62.8647 74.3206 63.6154 73.9247C63.535 73.7812 63.4419 73.6393 63.3348 73.4993C62.6314 72.5798 61.6372 71.9125 60.6561 71.3104L60.0198 70.9232C57.6215 69.4611 55.2606 67.9313 53.1785 66.0316C52.0769 65.0264 50.9906 63.9735 50.0647 62.801L49.7372 62.3865M52.0837 59.3308C50.9606 59.4251 49.7478 59.4026 48.7099 59.7687C49.6326 60.6413 50.5096 61.5835 51.4106 62.4708C51.4907 61.8707 51.6547 61.2779 51.7936 60.6927" fill="black"/>
<path fill-rule="evenodd" clip-rule="evenodd" d="M63.4984 3.83805C71.4788 3.83805 79.7332 10.0393 82.6585 13.9966C85.118 17.3236 86.4422 32.3683 86.4422 42.5356C86.4422 44.6621 87.6127 48.6706 87.2711 50.7046C86.0194 58.1581 80.5658 64.4091 69.7719 64.4091C58.978 64.4091 51.239 60.1199 43.2162 48.6039C39.3235 48.6039 37.4369 45.6112 37.4095 40.8884C37.3821 36.1656 41.167 34.4473 41.167 34.4473C41.167 34.4473 39.8175 15.8091 43.2162 10.9566C46.6149 6.10412 55.518 3.83805 63.4984 3.83805Z" fill="#EDB98A"/>
<path fill-rule="evenodd" clip-rule="evenodd" d="M60.1401 1.20269C65.1787 0.691223 70.1162 1.12097 75.0817 2.01019C75.4612 2.07909 75.6763 2.32862 75.7562 2.6286C78.0951 2.73569 80.4366 2.90772 82.7724 3.03594C83.62 3.08244 84.1006 3.92207 83.7141 4.68025C83.6369 4.83087 83.5567 4.97741 83.4751 5.12394L83.5775 5.0901C84.2802 4.86411 85.0392 4.7527 85.7239 5.1114C86.5953 5.56792 86.937 6.57522 86.7444 7.50234C86.6951 7.73905 86.6123 7.9659 86.5181 8.18726C86.7093 8.17457 86.9018 8.1788 87.093 8.20416C88.1105 8.33943 88.8667 9.12142 88.9201 10.1627C88.9988 11.735 87.9883 13.3301 86.7978 14.4558C86.9706 14.8124 87.0368 15.2323 86.9649 15.6578C86.8216 16.499 86.2035 17.0027 85.4869 17.3313C85.7857 18.2825 85.927 19.2769 85.8437 20.2933C85.8158 20.6325 85.5198 20.9128 85.2074 20.9816C86.372 24.1961 86.9614 27.6473 87.3853 31.0101C87.6875 33.4028 87.8365 35.8093 87.8546 38.22C87.8635 39.3084 87.8456 40.398 87.8 41.4865L87.7817 41.8947C87.7254 43.0713 87.7226 44.3069 87.5118 45.4709C88.2314 46.698 88.5209 48.2212 88.6432 49.5963C88.795 51.2984 88.5547 53.054 88.0191 54.673C85.998 60.7908 79.8983 64.6515 73.7717 65.6548C68.1007 66.5834 61.5386 65.3336 58.2244 60.1694C58.1724 60.0877 58.2835 60.0202 58.3481 60.0738C60.7192 62.0068 63.4695 62.8691 66.4577 63.289C71.6243 64.0133 77.4316 62.7845 81.5777 59.5271C83.5679 57.9631 85.0029 55.6861 85.6341 53.2357C85.9559 51.9833 86.067 50.677 85.9403 49.3879C85.811 48.0803 85.2335 46.9644 84.8695 45.7287C84.7472 45.3115 84.8765 44.924 85.1309 44.648C85.2025 43.6447 85.3713 42.633 85.4358 41.6327C85.5075 40.4955 85.5512 39.3585 85.5666 38.22C85.5961 35.8585 85.4978 33.4928 85.2996 31.1413C84.937 26.8353 83.9742 22.6338 83.4092 18.3643C83.2 18.5524 82.9001 18.6297 82.5858 18.4653L82.5533 18.4475L82.3818 18.349C82.372 18.349 82.3607 18.3504 82.3508 18.3517C81.1773 18.4659 79.9602 18.3025 78.8358 17.9515C77.6593 17.5853 76.5673 17.0217 75.5918 16.2707C75.4064 17.2132 75.329 18.1657 75.3277 19.1266C75.3263 19.7268 74.6924 20.0384 74.1893 19.7819C71.9588 18.6461 69.8281 17.3373 67.8056 15.8663C67.5693 17.0795 67.3333 18.2925 67.0957 19.507C67.0045 19.975 66.4098 20.1638 66.0289 19.9412C64.514 19.0576 63.2055 17.9009 62.1401 16.5256C61.9274 16.9334 61.7141 17.3411 61.4993 17.7479L61.1759 18.3573C60.8569 18.9561 60.4296 19.6185 59.7311 19.81C58.9918 20.0129 58.3747 19.5325 58.126 18.8617C58.0502 18.6533 57.9799 18.439 57.9152 18.2234C57.2854 19.665 56.5744 21.074 55.7705 22.4182C54.5646 24.4343 53.1168 26.2308 51.6735 28.0738C51.235 28.6333 50.4845 28.0991 50.424 27.5554C50.3889 27.2356 50.3594 26.9143 50.3339 26.5943C49.4929 28.2958 48.6153 29.9814 47.6592 31.6181L47.7961 32.1559C48.1906 33.745 48.5182 35.3453 48.8743 36.9429C48.9893 37.4583 48.7161 38.1952 48.1154 38.283C47.3977 38.3878 46.7188 38.7554 45.9837 38.5025C45.1821 38.2266 45.0238 37.5321 44.6454 36.8738C44.5699 36.7427 44.4821 36.6222 44.3876 36.5078L44.3636 36.5391C44.3046 36.6167 44.164 36.5322 44.1992 36.4434L44.2403 36.3408C43.9152 35.9949 43.5262 35.7063 43.1685 35.3959C42.3185 35.2524 41.3623 35.4096 40.7767 35.7558C39.4429 36.5447 38.8302 38.1707 38.8176 39.6658C38.8021 41.4157 39.3431 43.3827 40.2566 44.8791C40.6587 45.5371 41.2097 46.1315 41.9376 46.4233C42.6602 46.7135 43.443 46.6234 44.1781 46.8966C44.6644 47.0785 44.9637 47.6196 44.67 48.1098C44.6503 48.1437 44.6278 48.1746 44.6066 48.2071L44.8252 48.498C44.9756 48.6995 45.1324 48.9153 45.2786 49.1398C45.6524 49.5711 46.046 49.9867 46.4268 50.4108C47.1308 51.1927 47.814 51.9959 48.5068 52.7891C49.1605 53.5374 49.852 54.2403 50.5646 54.9322C51.2378 55.5875 52.0783 56.1383 52.6967 56.8373C53.2981 57.5192 53.4613 58.7097 52.4717 59.1044C51.3769 59.542 50.4077 58.5163 49.6708 57.8324L49.6398 57.8037C48.2888 56.5574 47.0689 55.1332 46.1001 53.5652C45.1404 54.2201 43.7523 54.2826 42.7968 53.6279C42.2939 53.2834 41.9081 52.7044 41.7206 52.0746C41.5438 52.1143 41.3671 52.1376 41.1948 52.1349C41.1061 52.1864 41.0171 52.2366 40.9272 52.2834C40.2145 52.6552 39.339 52.4891 39.0129 51.6985C38.716 50.9808 39.022 50.1657 39.2894 49.4742L39.3446 49.3314C39.4964 48.937 39.6637 48.5073 39.8717 48.1029C39.2926 47.6661 38.7978 47.1235 38.3791 46.5065C36.9722 44.4282 36.2694 41.3888 36.58 38.9091C36.767 37.4128 37.4682 35.8629 38.6164 34.8539L38.5744 34.744C38.2526 33.9255 37.9601 33.1039 37.7705 32.2389C37.5484 31.2273 37.4401 30.179 37.3418 29.149C37.1338 26.9735 37.19 24.7487 37.4669 22.5816C37.9869 18.5026 39.3053 14.4982 41.6454 11.1039C40.9819 10.3077 40.4564 9.37068 40.7303 8.29293C40.8555 7.79823 41.1407 7.32917 41.5709 7.04582C41.8083 6.88956 42.0909 6.86561 42.3285 6.73598L42.3999 6.69656C42.5042 6.63553 42.4244 6.64199 42.3622 6.35837C42.1162 5.22539 42.32 4.13074 43.5639 3.75453C44.7346 3.40088 45.8422 4.15187 46.5351 5.04659C48.3481 3.75721 50.7374 3.08244 52.8386 2.50898C55.228 1.85929 57.679 1.45363 60.1401 1.20269ZM40.5562 39.2035C40.5476 38.2806 41.4204 37.7114 42.2793 37.8623C42.856 37.9629 43.3371 38.308 43.7889 38.6646L44.0092 38.8393C44.5593 39.2723 45.1909 39.739 45.5188 40.352C45.9995 41.2566 44.9835 42.4738 44.0348 41.8398C43.384 41.4025 42.9668 40.702 42.54 40.0512L42.4958 39.9841C42.3018 39.6924 42.1317 39.3825 41.866 39.1486L41.8086 39.0982C41.7212 39.0235 41.6274 38.9554 41.5146 38.9231C41.297 38.8604 40.8939 38.9482 40.7979 39.208L40.7894 39.2345C40.7542 39.3657 40.5576 39.3374 40.5562 39.2035Z" fill="black"/>
<path fill-rule="evenodd" clip-rule="evenodd" d="M75.9648 53.2798C74.9273 53.5804 73.8136 53.6073 72.756 53.2969C71.7967 53.0152 70.8117 52.3955 70.1057 51.5754C69.4786 50.8468 69.0724 49.9615 69.0883 49.0165C69.0901 48.9085 69.1287 48.8184 69.1881 48.7485C69.252 48.6732 69.3412 48.6216 69.4368 48.5991C69.5351 48.576 69.639 48.5842 69.7275 48.6244C69.8076 48.6608 69.8762 48.7227 69.9192 48.813C70.0277 48.9556 70.1357 49.0961 70.2442 49.2327C71.1166 50.3103 71.9615 51.1157 73.2733 51.4045C73.985 51.5613 74.6959 51.4918 75.3481 51.2526C76.0463 50.9966 76.6775 50.5465 77.172 49.9704C77.3956 49.7101 77.6594 49.6039 77.9175 49.6021C78.2099 49.6 78.4989 49.736 78.7166 49.9532C78.9306 50.1668 79.0739 50.4569 79.0869 50.7605C79.0983 51.0269 79.0114 51.3052 78.7803 51.5535C78.019 52.3713 77.0324 52.9705 75.9648 53.2798ZM75.9328 39.7827C76.9964 40.4295 78.6169 41.9376 77.4727 43.5409C76.126 44.9546 74.1869 43.3337 73.2314 42.6006C72.3453 42.0325 71.3498 43.4937 72.1719 44.1571C79.0766 49.2711 81.8787 39.9519 76.4707 39.0223C75.8753 38.9199 75.6541 39.5827 75.9328 39.7827ZM65.9836 36.937C65.6417 36.7183 65.2396 36.6432 64.794 36.846C64.4457 37.0045 63.8349 37.5326 63.4098 38.227C63.119 38.702 62.9128 39.2592 62.9557 39.8396C62.9657 39.9744 62.9159 40.0738 62.8373 40.1473C62.7753 40.2054 62.6857 40.248 62.5805 40.2614C62.4911 40.2727 62.3911 40.2625 62.3098 40.2371C62.1552 40.1888 62.0733 40.0884 62.0424 40.0065C61.7448 39.2157 61.873 38.3333 62.2066 37.5372C62.6568 36.4628 63.4743 35.5629 64.0099 35.2727C64.9265 34.776 66.0078 34.7532 66.9257 35.2592C67.707 35.6898 68.1956 36.3851 68.6815 37.0938C68.7848 37.2445 68.8873 37.3941 68.9933 37.541C69.2056 37.8354 69.2267 38.1274 69.1445 38.3778C69.0534 38.6551 68.8211 38.8892 68.5306 39.0117C68.2622 39.1249 67.9506 39.1409 67.6749 39.0245C67.4419 38.9263 67.2282 38.7347 67.0929 38.4096C66.8651 37.8622 66.4856 37.2582 65.9836 36.937ZM83.345 38.155C83.1108 38.277 82.9277 38.3138 82.668 38.2359C82.5244 38.1928 82.3824 38.1101 82.2713 37.9989C82.1612 37.8887 82.0817 37.7517 82.0508 37.5997C81.9749 37.2246 81.7697 36.8735 81.4773 36.6446C81.2274 36.4489 80.912 36.3452 80.5622 36.4037C80.1846 36.4668 79.825 36.709 79.5772 36.9945C79.4944 37.0901 79.4295 37.1986 79.3643 37.3064C79.2422 37.508 79.1236 37.6954 78.9552 37.8434C78.8914 37.8998 78.7953 37.9388 78.7022 37.9388C78.6643 37.9388 78.6259 37.9326 78.5893 37.9212C78.2135 37.5439 78.1413 37.2577 78.1534 36.9738C78.1661 36.6761 78.2834 36.3747 78.473 36.0935C78.9177 35.4338 79.7621 34.8929 80.3319 34.7704C81.1123 34.6026 81.8873 34.804 82.5086 35.24C83.1479 35.6887 83.6217 36.3852 83.7694 37.1702C83.8049 37.3592 83.7898 37.5633 83.7178 37.7402C83.6475 37.9131 83.525 38.0612 83.345 38.155ZM67.7046 29.9036C67.2363 30.36 66.682 30.4307 66.1213 30.4936C65.8097 30.5289 65.561 30.5573 65.3162 30.6126C64.6435 30.7645 63.9785 30.9933 63.3719 31.3228C62.7377 31.6673 62.0466 32.0827 61.5494 32.6149C61.4312 32.7415 61.3197 32.8744 61.2081 33.0076C61.1063 33.129 61.0083 33.246 60.905 33.3587C60.7863 33.4882 60.6737 33.6239 60.5616 33.7592C60.4923 33.8734 60.4786 33.9015 60.4646 33.9308C60.4436 33.9747 60.4192 34.0239 60.3913 34.0766C60.3531 34.1489 60.3083 34.228 60.2615 34.2997C60.1835 34.4307 60.1416 34.4668 60.1054 34.483C60.0454 34.5097 59.9885 34.5229 59.9333 34.5157C59.8816 34.509 59.8328 34.4842 59.7846 34.4435C59.5442 34.2402 59.4733 33.9067 59.4806 33.5527C59.4916 33.0155 59.6897 32.4207 59.8722 32.0551C60.2968 31.2055 60.8856 30.3223 61.5936 29.6882C62.4015 28.9644 63.2854 28.4164 64.3006 28.0389C64.9315 27.8041 65.6619 27.5887 66.3493 27.6159C66.844 27.6355 67.3163 27.7826 67.7064 28.15C67.9459 28.3756 68.0608 28.6964 68.0608 29.0169C68.0608 29.3439 67.9414 29.6728 67.7046 29.9036ZM84.2974 34.0834C84.2676 34.1322 84.2264 34.1659 84.1805 34.1861C84.1324 34.2073 84.0788 34.2134 84.0272 34.2047C83.976 34.196 83.9272 34.1728 83.8885 34.1373C83.8515 34.1032 83.8233 34.058 83.8106 34.0027C83.4997 32.6366 82.896 31.6202 81.6074 30.9647C80.9736 30.6423 80.2447 30.4374 79.5547 30.2741C79.3541 30.2266 79.1423 30.1959 78.9289 30.1647C78.2602 30.067 77.5867 29.9552 77.1507 29.4144C76.888 29.0887 76.7778 28.6721 76.8401 28.2912C76.8988 27.9325 77.1083 27.6036 77.4892 27.4065C78.4375 26.916 79.6158 27.3973 80.5734 27.8073C80.6444 27.8377 80.7142 27.8675 80.7824 27.8963C81.7188 28.2917 82.5729 28.8137 83.2749 29.5602C83.832 30.1523 84.3481 31.0278 84.556 31.9284C84.7289 32.6776 84.6882 33.4425 84.2974 34.0834Z" fill="black"/>
</svg>
