<svg width="24" height="26" viewBox="0 0 24 26" fill="none" xmlns="http://www.w3.org/2000/svg">
<path d="M14.5369 25.2655C14.3115 25.2655 14.0922 25.1924 13.9119 25.0572L9.74524 21.9322C9.61587 21.8351 9.51087 21.7093 9.43855 21.5647C9.36622 21.42 9.32857 21.2605 9.32857 21.0988V15.2447L2.02024 7.02279C1.5012 6.43725 1.1623 5.71427 1.04428 4.94075C0.926261 4.16722 1.03414 3.37608 1.35495 2.66239C1.67576 1.94871 2.19586 1.34286 2.85272 0.917655C3.50958 0.492454 4.27527 0.265997 5.05774 0.265503H19.8494C20.6318 0.266421 21.3973 0.493252 22.0539 0.918739C22.7105 1.34423 23.2303 1.95027 23.5507 2.66403C23.8712 3.37779 23.9787 4.16891 23.8604 4.94232C23.7421 5.71573 23.403 6.43852 22.8838 7.02384L15.5786 15.2447V24.2238C15.5786 24.5001 15.4688 24.7651 15.2735 24.9604C15.0781 25.1558 14.8132 25.2655 14.5369 25.2655Z" fill="black"/>
</svg>
