<svg width="15" height="15" viewBox="0 0 15 15" fill="none" xmlns="http://www.w3.org/2000/svg">
<path d="M9.69899 7.25792L14.0629 2.88954C14.3462 2.56752 14.4963 2.14969 14.4826 1.72099C14.4689 1.29229 14.2925 0.884893 13.9892 0.581602C13.6859 0.27831 13.2785 0.101891 12.8498 0.0882039C12.4211 0.0745167 12.0033 0.224589 11.6812 0.507915L7.31286 4.87179L2.93661 0.494415C2.77986 0.337666 2.59377 0.213326 2.38897 0.128494C2.18417 0.0436625 1.96466 1.65163e-09 1.74299 0C1.52131 -1.65161e-09 1.3018 0.0436625 1.097 0.128494C0.892199 0.213326 0.70611 0.337666 0.549361 0.494415C0.392612 0.651164 0.268272 0.837253 0.18344 1.04206C0.0986082 1.24686 0.0549457 1.46636 0.0549457 1.68804C0.0549457 1.90972 0.0986082 2.12922 0.18344 2.33403C0.268272 2.53883 0.392612 2.72492 0.549361 2.88166L4.92674 7.25792L0.562861 11.6252C0.391718 11.7782 0.253587 11.9644 0.15692 12.1727C0.060253 12.3809 0.00708232 12.6066 0.000660506 12.8361C-0.00576131 13.0655 0.0347009 13.2939 0.119572 13.5072C0.204443 13.7205 0.331938 13.9142 0.494257 14.0765C0.656576 14.2388 0.850306 14.3663 1.06359 14.4512C1.27688 14.5361 1.50524 14.5765 1.73471 14.5701C1.96417 14.5637 2.18991 14.5105 2.39812 14.4139C2.60633 14.3172 2.79262 14.1791 2.94561 14.0079L7.31286 9.64404L11.6756 14.0079C11.9922 14.3245 12.4215 14.5023 12.8692 14.5023C13.3169 14.5023 13.7463 14.3245 14.0629 14.0079C14.3794 13.6913 14.5573 13.262 14.5573 12.8143C14.5573 12.3666 14.3794 11.9372 14.0629 11.6207L9.69899 7.25792Z" fill="black"/>
</svg>
