<svg width="17" height="18" viewBox="0 0 17 18" fill="none" xmlns="http://www.w3.org/2000/svg">
<path d="M8.59188 0.88208C6.38567 0.884099 4.27051 1.6139 2.71041 2.91138C1.15031 4.20887 0.272668 5.96808 0.27002 7.80308C0.27002 9.58535 1.92922 12.3746 5.20177 16.093C5.59136 16.537 6.10146 16.8981 6.69055 17.1471C7.27965 17.396 7.9311 17.5258 8.59188 17.5258C9.25266 17.5258 9.90411 17.396 10.4932 17.1471C11.0823 16.8981 11.5924 16.537 11.982 16.093C15.2545 12.3746 16.9137 9.58535 16.9137 7.80308C16.9111 5.96808 16.0335 4.20887 14.4733 2.91138C12.9132 1.6139 10.7981 0.884099 8.59188 0.88208ZM8.59188 10.5618C7.93226 10.5618 7.28746 10.3991 6.73901 10.0943C6.19056 9.78948 5.76309 9.35625 5.51067 8.84937C5.25824 8.3425 5.1922 7.78475 5.32088 7.24666C5.44957 6.70856 5.7672 6.21429 6.23362 5.82635C6.70004 5.43841 7.2943 5.17421 7.94124 5.06718C8.58818 4.96014 9.25875 5.01508 9.86816 5.22503C10.4776 5.43499 10.9984 5.79053 11.3649 6.2467C11.7314 6.70288 11.927 7.23919 11.927 7.78783C11.927 8.52352 11.5756 9.22909 10.9501 9.74931C10.3247 10.2695 9.4764 10.5618 8.59188 10.5618Z" fill="black"/>
</svg>
