<svg width="9" height="9" viewBox="0 0 9 9" fill="none" xmlns="http://www.w3.org/2000/svg">
<path d="M5.82558 4.45942L8.24996 2.03255C8.40736 1.85365 8.49073 1.62152 8.48313 1.38335C8.47553 1.14519 8.37752 0.918853 8.20902 0.750358C8.04053 0.581863 7.81419 0.483852 7.57602 0.476248C7.33786 0.468644 7.10573 0.552018 6.92683 0.709421L4.49996 3.1338L2.06871 0.701921C1.98162 0.614838 1.87824 0.545761 1.76446 0.498632C1.65068 0.451503 1.52874 0.427246 1.40558 0.427246C1.28243 0.427246 1.16048 0.451503 1.0467 0.498632C0.932922 0.545761 0.829539 0.614838 0.742456 0.701921C0.655374 0.789004 0.586296 0.892387 0.539167 1.00617C0.492038 1.11994 0.467781 1.24189 0.467781 1.36505C0.467781 1.4882 0.492038 1.61015 0.539167 1.72393C0.586296 1.83771 0.655374 1.94109 0.742456 2.02817L3.17433 4.45942L0.749957 6.88567C0.654877 6.97066 0.578138 7.07416 0.524434 7.18983C0.47073 7.3055 0.44119 7.43092 0.437623 7.5584C0.434055 7.68588 0.456534 7.81274 0.503685 7.93124C0.550835 8.04973 0.621666 8.15736 0.711843 8.24754C0.80202 8.33771 0.909648 8.40854 1.02814 8.45569C1.14663 8.50284 1.2735 8.52532 1.40098 8.52176C1.52846 8.51819 1.65387 8.48865 1.76955 8.43494C1.88522 8.38124 1.98871 8.3045 2.07371 8.20942L4.49996 5.78505L6.92371 8.20942C7.09958 8.38529 7.33811 8.4841 7.58683 8.4841C7.83555 8.4841 8.07409 8.38529 8.24996 8.20942C8.42583 8.03355 8.52463 7.79502 8.52463 7.5463C8.52463 7.29758 8.42583 7.05904 8.24996 6.88317L5.82558 4.45942Z" fill="black"/>
</svg>
