<svg width="17" height="18" viewBox="0 0 17 18" fill="none" xmlns="http://www.w3.org/2000/svg">
<path d="M8.32186 0.935059C6.11566 0.937077 4.00049 1.66688 2.44039 2.96436C0.88029 4.26184 0.00264823 6.02105 0 7.85606C0 9.63832 1.6592 12.4275 4.93175 16.146C5.32134 16.5899 5.83144 16.9511 6.42053 17.2C7.00963 17.449 7.66108 17.5788 8.32186 17.5788C8.98265 17.5788 9.63409 17.449 10.2232 17.2C10.8123 16.9511 11.3224 16.5899 11.712 16.146C14.9845 12.4275 16.6437 9.63832 16.6437 7.85606C16.6411 6.02105 15.7634 4.26184 14.2033 2.96436C12.6432 1.66688 10.5281 0.937077 8.32186 0.935059ZM8.32186 10.6148C7.66224 10.6148 7.01744 10.4521 6.46899 10.1473C5.92054 9.84245 5.49307 9.40922 5.24065 8.90235C4.98822 8.39548 4.92218 7.83773 5.05086 7.29963C5.17955 6.76154 5.49718 6.26727 5.9636 5.87933C6.43002 5.49138 7.02428 5.22719 7.67122 5.12016C8.31816 5.01312 8.98873 5.06806 9.59814 5.27801C10.2075 5.48796 10.7284 5.84351 11.0949 6.29968C11.4613 6.75586 11.6569 7.29217 11.6569 7.84081C11.6569 8.5765 11.3056 9.28207 10.6801 9.80228C10.0547 10.3225 9.20638 10.6148 8.32186 10.6148Z" fill="black"/>
</svg>
