<svg width="18" height="18" viewBox="0 0 18 18" fill="none" xmlns="http://www.w3.org/2000/svg">
<path d="M16.0953 8.53566C15.8607 7.94721 15.5233 7.39772 15.1013 6.91708V4.33305C15.1013 3.90319 14.9083 3.50394 14.571 3.23684C14.2392 2.97461 13.815 2.88001 13.4041 2.9767C12.1373 3.27927 11.187 3.99848 10.6781 5.02584H6.95539C5.16378 5.02584 3.55542 5.8313 2.49961 7.09097C1.66663 6.96925 1.76728 5.72001 2.60582 5.7214C3.51308 5.71792 3.51377 4.33375 2.60582 4.33027C0.394936 4.32331 -0.260346 7.39493 1.72563 8.30126C0.504612 10.8192 1.56667 14.0619 3.99413 15.4044V15.4593C3.99552 17.7902 7.28442 18.3237 8.04036 16.1549H9.66676C10.4227 18.3251 13.7116 17.7888 13.713 15.4593V15.3953C14.7959 14.7672 15.6365 13.7955 16.0953 12.6451C16.6652 12.5233 17.1838 12.0552 17.1838 11.2859V9.8948C17.1838 9.1255 16.6645 8.65739 16.0953 8.53566ZM13.0188 9.8948C12.1109 9.89063 12.1109 8.50784 13.0188 8.50367C13.9268 8.50784 13.9268 9.89063 13.0188 9.8948ZM4.72507 3.99083C4.33496 0.101921 10.0978 -0.27438 10.2422 3.6347H6.95609C6.17794 3.6347 5.42895 3.76338 4.72507 3.99083Z" fill="black"/>
</svg>
