<svg width="13" height="15" viewBox="0 0 13 15" fill="none" xmlns="http://www.w3.org/2000/svg">
<path d="M10.2548 1.68571L6.49575 0.467146C6.37268 0.427293 6.23963 0.427293 6.11655 0.467146L2.35755 1.68571C1.7599 1.87872 1.24 2.24994 0.87174 2.74661C0.503477 3.24328 0.305575 3.84015 0.306154 4.45242V7.43729C0.306154 11.849 5.82615 14.2855 6.06255 14.387C6.13924 14.4201 6.22223 14.4373 6.30615 14.4373C6.39007 14.4373 6.47306 14.4201 6.54975 14.387C6.78615 14.2855 12.3062 11.849 12.3062 7.43729V4.45242C12.3067 3.84015 12.1088 3.24328 11.7406 2.74661C11.3723 2.24994 10.8524 1.87872 10.2548 1.68571ZM9.13695 6.10556L6.57375 8.59752C6.46886 8.70018 6.34404 8.78156 6.20654 8.83693C6.06903 8.89231 5.92159 8.92058 5.77275 8.9201H5.75295C5.60109 8.91784 5.45127 8.88566 5.31256 8.8255C5.17385 8.76534 5.04914 8.67846 4.94595 8.57011L3.56235 7.17013C3.50243 7.11608 3.4545 7.05069 3.4215 6.97799C3.38851 6.90529 3.37114 6.82679 3.37046 6.74733C3.36979 6.66786 3.38582 6.5891 3.41757 6.51588C3.44933 6.44265 3.49614 6.37651 3.55513 6.3215C3.61413 6.2665 3.68406 6.22379 3.76064 6.196C3.83722 6.16822 3.91883 6.15594 4.00047 6.15991C4.0821 6.16389 4.16204 6.18404 4.23538 6.21913C4.30872 6.25422 4.37391 6.30351 4.42695 6.36397L5.77335 7.72895L8.28615 5.27899C8.39931 5.17273 8.55087 5.11394 8.70819 5.11526C8.86551 5.11659 9.016 5.17794 9.12724 5.28609C9.23849 5.39425 9.30159 5.54055 9.30296 5.6935C9.30432 5.84644 9.24385 5.99379 9.13455 6.10381L9.13695 6.10556Z" fill="#4FB053"/>
</svg>
