<svg width="28" height="28" viewBox="0 0 28 28" fill="none" xmlns="http://www.w3.org/2000/svg">
<path d="M4.52598 15.7164H4.52806L2.14616 13.9182C1.67489 13.5625 1.31946 13.0579 1.13661 12.4731C0.953668 11.888 0.954491 11.2573 1.13894 10.6727C1.3233 10.0884 1.68 9.58493 2.15215 9.2305C2.62361 8.87658 3.1872 8.6882 3.76241 8.68722C3.76261 8.68722 3.76281 8.68722 3.76301 8.68722L8.86151 8.68722H9.59794L9.81647 7.98396L11.3655 2.99897L11.3656 2.99871C11.5482 2.41051 11.9052 1.90313 12.3792 1.54609C12.8526 1.18944 13.4194 1 13.9977 1C14.576 1 15.1427 1.18944 15.6162 1.54609C16.0901 1.90313 16.4472 2.41051 16.6298 2.99871L16.6298 2.99897L18.1789 7.98396L18.3974 8.68722H19.1338L24.237 8.68722C24.2372 8.68722 24.2374 8.68722 24.2376 8.68722C24.8128 8.6882 25.3764 8.87658 25.8479 9.2305C26.32 9.58493 26.6767 10.0884 26.8611 10.6727C27.0455 11.2573 27.0463 11.888 26.8634 12.4731C26.6806 13.0578 26.3253 13.5622 25.8543 13.9179L4.52598 15.7164ZM4.52598 15.7164L6.29669 17.0516L6.85936 17.4759L6.64902 18.1485L5.07082 23.195L5.06726 23.2064L5.06719 23.2063C4.87696 23.7901 4.87453 24.4228 5.06034 25.0083C5.24605 25.5934 5.60805 26.0949 6.08604 26.442L6.09551 26.4488L6.10482 26.4559C6.57442 26.814 7.13918 27.0029 7.7149 27C8.29063 26.997 8.85367 26.8022 9.31995 26.4392L9.32918 26.432L9.32922 26.4321L13.3926 23.3442L13.9972 22.8847L14.6022 23.3437L18.6667 26.428L18.6671 26.4283C19.1385 26.7863 19.7035 26.978 20.2809 26.9809C20.8583 26.9838 21.425 26.7978 21.8996 26.4447C22.3747 26.0911 22.7342 25.5871 22.9204 25.0012C23.1066 24.415 23.1081 23.7821 22.9245 23.195C22.9245 23.195 22.9245 23.195 22.9245 23.195L21.3463 18.1485L21.136 17.4759L21.6986 17.0516L25.8538 13.9182L4.52598 15.7164Z" stroke="#FFD12B" stroke-width="2"/>
</svg>
