<svg width="13" height="13" viewBox="0 0 13 13" fill="none" xmlns="http://www.w3.org/2000/svg">
<path d="M8.59163 6.41221L12.2359 2.76415C12.4725 2.49523 12.5979 2.1463 12.5864 1.78829C12.575 1.43028 12.4277 1.09005 12.1744 0.836773C11.9211 0.583493 11.5809 0.436164 11.2229 0.424734C10.8649 0.413304 10.5159 0.53863 10.247 0.775238L6.59896 4.41954L2.94433 0.763964C2.81342 0.633061 2.65802 0.529224 2.48699 0.458381C2.31596 0.387537 2.13265 0.351074 1.94752 0.351074C1.7624 0.351074 1.57909 0.387537 1.40806 0.458381C1.23702 0.529224 1.08162 0.633061 0.950718 0.763964C0.819816 0.894866 0.715979 1.05027 0.645135 1.2213C0.574292 1.39233 0.537829 1.57564 0.537829 1.76077C0.537829 1.94589 0.574292 2.1292 0.645135 2.30023C0.715979 2.47127 0.819816 2.62667 0.950718 2.75757L4.60629 6.41221L0.961992 10.0593C0.819069 10.1871 0.703716 10.3427 0.622988 10.5165C0.542261 10.6904 0.497858 10.8789 0.492495 11.0706C0.487132 11.2622 0.520922 11.4529 0.591799 11.631C0.662675 11.8091 0.769147 11.9709 0.904701 12.1065C1.04025 12.242 1.20204 12.3485 1.38016 12.4194C1.55828 12.4902 1.74898 12.524 1.94061 12.5187C2.13224 12.5133 2.32075 12.4689 2.49463 12.3882C2.6685 12.3075 2.82408 12.1921 2.95184 12.0492L6.59896 8.40487L10.2423 12.0492C10.5067 12.3135 10.8653 12.4621 11.2391 12.4621C11.613 12.4621 11.9716 12.3135 12.2359 12.0492C12.5003 11.7848 12.6488 11.4262 12.6488 11.0524C12.6488 10.6785 12.5003 10.3199 12.2359 10.0556L8.59163 6.41221Z" fill="black"/>
</svg>
