<svg width="15" height="15" viewBox="0 0 15 15" fill="none" xmlns="http://www.w3.org/2000/svg">
<path d="M7.24807 0.251953C5.32654 0.253711 3.4843 0.889345 2.1255 2.01941C0.766704 3.14948 0.00230652 4.68169 0 6.27992C0 7.83222 1.44511 10.2615 4.2954 13.5002C4.63471 13.8868 5.07899 14.2014 5.59208 14.4182C6.10516 14.6351 6.67255 14.7481 7.24807 14.7481C7.82359 14.7481 8.39098 14.6351 8.90407 14.4182C9.41715 14.2014 9.86143 13.8868 10.2007 13.5002C13.051 10.2615 14.4961 7.83222 14.4961 6.27992C14.4938 4.68169 13.7294 3.14948 12.3706 2.01941C11.0118 0.889345 9.16961 0.253711 7.24807 0.251953ZM7.24807 8.68266C6.67357 8.68266 6.11196 8.54096 5.63428 8.27548C5.1566 8.01001 4.78429 7.63268 4.56443 7.19121C4.34458 6.74974 4.28706 6.26396 4.39914 5.79529C4.51122 5.32663 4.78787 4.89614 5.1941 4.55825C5.60034 4.22037 6.11792 3.99026 6.68138 3.89704C7.24485 3.80382 7.8289 3.85166 8.35967 4.03452C8.89044 4.21739 9.3441 4.52705 9.66328 4.92437C9.98246 5.32168 10.1528 5.78879 10.1528 6.26664C10.1528 6.9074 9.84678 7.52193 9.30204 7.97502C8.75729 8.42811 8.01846 8.68266 7.24807 8.68266Z" fill="black"/>
</svg>
