<svg width="11" height="11" viewBox="0 0 11 11" fill="none" xmlns="http://www.w3.org/2000/svg">
<path d="M7.31835 5.24522L10.1618 2.3988C10.3464 2.18898 10.4442 1.91672 10.4353 1.63738C10.4264 1.35804 10.3114 1.09258 10.1138 0.89496C9.9162 0.697337 9.65074 0.582383 9.3714 0.573465C9.09206 0.564546 8.81981 0.662332 8.60998 0.846947L5.76356 3.69043L2.91202 0.83815C2.80988 0.736013 2.68863 0.654994 2.55518 0.599718C2.42173 0.544441 2.2787 0.515991 2.13426 0.515991C1.98981 0.515991 1.84678 0.544441 1.71334 0.599718C1.57989 0.654994 1.45863 0.736013 1.3565 0.83815C1.25436 0.940287 1.17334 1.06154 1.11806 1.19499C1.06279 1.32844 1.03434 1.47147 1.03434 1.61591C1.03434 1.76035 1.06279 1.90338 1.11806 2.03683C1.17334 2.17028 1.25436 2.29153 1.3565 2.39367L4.20878 5.24522L1.36529 8.0909C1.25378 8.19059 1.16377 8.31198 1.10078 8.44764C1.0378 8.58331 1.00315 8.7304 0.998966 8.87992C0.994781 9.02944 1.02115 9.17824 1.07645 9.31721C1.13175 9.45619 1.21482 9.58243 1.32059 9.68819C1.42636 9.79396 1.55259 9.87703 1.69157 9.93234C1.83055 9.98764 1.97935 10.014 2.12886 10.0098C2.27838 10.0056 2.42547 9.97099 2.56114 9.908C2.69681 9.84501 2.8182 9.75501 2.91788 9.64349L5.76356 6.80001L8.60631 9.64349C8.81259 9.84977 9.09236 9.96565 9.38407 9.96565C9.67579 9.96565 9.95556 9.84977 10.1618 9.64349C10.3681 9.43721 10.484 9.15744 10.484 8.86573C10.484 8.57401 10.3681 8.29424 10.1618 8.08797L7.31835 5.24522Z" fill="black"/>
</svg>
