<svg width="64" height="95" viewBox="0 0 64 95" fill="none" xmlns="http://www.w3.org/2000/svg">
<path d="M31.7062 63.341C25.4758 63.341 19.3853 61.5009 14.2049 58.0533C9.02445 54.6058 4.98681 49.7057 2.60252 43.9726C0.218239 38.2396 -0.405598 31.9311 0.809899 25.8449C2.0254 19.7588 5.02564 14.1683 9.43122 9.78038C13.8368 5.3925 19.4499 2.40431 25.5606 1.1937C31.6713 -0.0169166 38.0052 0.604415 43.7614 2.97912C49.5176 5.35383 54.4375 9.37525 57.8989 14.5349C61.3603 19.6945 63.2079 25.7605 63.2079 31.9659C63.1985 40.2842 59.8766 48.2592 53.9709 54.1411C48.0652 60.0231 40.0581 63.3317 31.7062 63.341ZM31.7062 71.1848C23.1748 71.181 14.8782 68.4004 8.08001 63.2665V84.9114C8.07999 86.7584 8.60377 88.5678 9.59104 90.1313C10.5783 91.6948 11.9889 92.9488 13.6604 93.7488C15.3319 94.5488 17.1962 94.8623 19.0387 94.6532C20.8813 94.4441 22.627 93.7209 24.075 92.5669L30.4777 87.4684C30.8266 87.191 31.2598 87.0398 31.7062 87.0398C32.1527 87.0398 32.5859 87.191 32.9348 87.4684L39.3375 92.5669C40.7854 93.7209 42.5312 94.4441 44.3737 94.6532C46.2163 94.8623 48.0806 94.5488 49.7521 93.7488C51.4236 92.9488 52.8342 91.6948 53.8215 90.1313C54.8087 88.5678 55.3325 86.7584 55.3325 84.9114V63.2665C48.534 68.3999 40.2376 71.1804 31.7062 71.1848Z" fill="black"/>
</svg>
