<svg width="14" height="15" viewBox="0 0 14 15" fill="none" xmlns="http://www.w3.org/2000/svg">
<path d="M10.285 13.0082C9.59832 13.4656 8.83399 13.7759 8.03584 13.923C7.23774 14.0701 6.41989 14.0515 5.62845 13.8681C4.83694 13.6846 4.08588 13.3396 3.41848 12.851C2.751 12.3624 2.17996 11.7395 1.73943 11.0166L1.09066 11.412L1.73943 11.0166C1.29887 10.2936 0.997893 9.48539 0.854958 8.63792C0.71202 7.79044 0.730171 6.92169 0.908289 6.08173C1.0864 5.24179 1.42069 4.44842 1.8907 3.74666C2.36067 3.04497 2.95675 2.44914 3.6435 1.99174C4.33017 1.5344 5.09449 1.22407 5.89265 1.07694C6.69075 0.929813 7.5086 0.948444 8.30004 1.13188C9.09155 1.31533 9.84261 1.66037 10.51 2.14893C11.1775 2.63755 11.7485 3.26043 12.1891 3.98335C12.6296 4.70633 12.9306 5.51456 13.0735 6.36203C13.2165 7.20952 13.1983 8.07827 13.0202 8.91823C12.8421 9.75816 12.5078 10.5515 12.0378 11.2533C11.5678 11.955 10.9717 12.5508 10.285 13.0082Z" stroke="#33363F" stroke-width="1.51947" stroke-linecap="square"/>
</svg>
