<svg width="15" height="15" viewBox="0 0 15 15" fill="none" xmlns="http://www.w3.org/2000/svg">
<path d="M10.1419 7.25792L14.5057 2.88954C14.7891 2.56752 14.9391 2.14969 14.9254 1.72099C14.9118 1.29229 14.7353 0.884893 14.432 0.581602C14.1288 0.27831 13.7214 0.101891 13.2927 0.0882039C12.864 0.0745167 12.4461 0.224589 12.1241 0.507915L7.75573 4.87179L3.37948 0.494415C3.22273 0.337666 3.03664 0.213326 2.83184 0.128494C2.62704 0.0436625 2.40753 1.65163e-09 2.18586 0C1.96418 -1.65161e-09 1.74467 0.0436625 1.53987 0.128494C1.33507 0.213326 1.14898 0.337666 0.992232 0.494415C0.835483 0.651164 0.711143 0.837253 0.626311 1.04206C0.541479 1.24686 0.497817 1.46636 0.497817 1.68804C0.497817 1.90972 0.541479 2.12922 0.626311 2.33403C0.711143 2.53883 0.835483 2.72492 0.992232 2.88166L5.36961 7.25792L1.00573 11.6252C0.834589 11.7782 0.696458 11.9644 0.599791 12.1727C0.503124 12.3809 0.449953 12.6066 0.443532 12.8361C0.43711 13.0655 0.477572 13.2939 0.562443 13.5072C0.647314 13.7205 0.774809 13.9142 0.937128 14.0765C1.09945 14.2388 1.29318 14.3663 1.50647 14.4512C1.71975 14.5361 1.94812 14.5765 2.17758 14.5701C2.40704 14.5637 2.63278 14.5105 2.84099 14.4139C3.0492 14.3172 3.2355 14.1791 3.38848 14.0079L7.75573 9.64404L12.1185 14.0079C12.4351 14.3245 12.8644 14.5023 13.3121 14.5023C13.7598 14.5023 14.1892 14.3245 14.5057 14.0079C14.8223 13.6913 15.0001 13.262 15.0001 12.8143C15.0001 12.3666 14.8223 11.9372 14.5057 11.6207L10.1419 7.25792Z" fill="black"/>
</svg>
