<svg width="42" height="42" viewBox="0 0 42 42" fill="none" xmlns="http://www.w3.org/2000/svg">
<path d="M2.30848 22.0745L8.5419 26.7751L6.1746 34.3448C5.79204 35.5188 5.78719 36.7891 6.16078 37.9662C6.53438 39.1433 7.26641 40.1642 8.24774 40.8767C9.21226 41.6121 10.3811 42.0061 11.5801 41.9999C12.7791 41.9937 13.944 41.5877 14.9014 40.8424L20.9965 36.2105L27.0933 40.837C28.0561 41.5682 29.2187 41.9653 30.4138 41.9713C31.609 41.9773 32.7752 41.5919 33.7448 40.8704C34.7145 40.1489 35.4376 39.1286 35.8101 37.956C36.1827 36.7835 36.1856 35.5191 35.8184 34.3448L33.4511 26.7751L39.6845 22.0745C40.646 21.3487 41.3608 20.3276 41.7267 19.1573C42.0927 17.9869 42.091 16.7271 41.7221 15.5577C41.3531 14.3884 40.6357 13.3693 39.6723 12.6461C38.7089 11.9229 37.5488 11.5326 36.3577 11.5308H28.7007L26.3772 4.05334C26.0118 2.87632 25.2938 1.84953 24.3268 1.12104C23.3597 0.392549 22.1936 0 20.9965 0C19.7994 0 18.6333 0.392549 17.6662 1.12104C16.6992 1.84953 15.9812 2.87632 15.6158 4.05334L13.2923 11.5308H5.64231C4.4512 11.5326 3.2911 11.9229 2.3277 12.6461C1.3643 13.3693 0.646884 14.3884 0.277922 15.5577C-0.0910397 16.7271 -0.0926728 17.9869 0.273256 19.1573C0.639185 20.3276 1.35396 21.3487 2.31548 22.0745H2.30848Z" fill="#FFD12B"/>
</svg>
