<svg width="28" height="28" viewBox="0 0 28 28" fill="none" xmlns="http://www.w3.org/2000/svg">
<path d="M1.53898 14.7164L5.6946 17.8501L4.1164 22.8965C3.86136 23.6792 3.85813 24.526 4.10719 25.3108C4.35625 26.0955 4.84427 26.7761 5.49849 27.2511C6.14151 27.7414 6.92073 28.0041 7.72006 28C8.51939 27.9958 9.29603 27.7251 9.93427 27.2283L13.9977 24.1404L18.0622 27.2246C18.7041 27.7121 19.4791 27.9769 20.2759 27.9809C21.0727 27.9849 21.8501 27.7279 22.4966 27.2469C23.143 26.766 23.625 26.0857 23.8734 25.304C24.1218 24.5223 24.1237 23.6794 23.8789 22.8965L22.3007 17.8501L26.4563 14.7164C27.0974 14.2324 27.5739 13.5518 27.8178 12.7715C28.0618 11.9913 28.0607 11.1514 27.8147 10.3718C27.5687 9.59226 27.0905 8.91289 26.4482 8.43076C25.8059 7.94863 25.0325 7.68839 24.2385 7.68722H19.1338L17.5848 2.70223C17.3412 1.91755 16.8626 1.23302 16.2179 0.747361C15.5731 0.2617 14.7957 0 13.9977 0C13.1996 0 12.4222 0.2617 11.7775 0.747361C11.1328 1.23302 10.6541 1.91755 10.4105 2.70223L8.86151 7.68722H3.76154C2.96747 7.68839 2.19407 7.94863 1.5518 8.43076C0.909534 8.91289 0.431256 9.59226 0.185281 10.3718C-0.0606932 11.1514 -0.0617819 11.9913 0.182171 12.7715C0.426123 13.5518 0.902638 14.2324 1.54365 14.7164H1.53898Z" fill="#FFD12B"/>
</svg>
