<svg width="9" height="9" viewBox="0 0 9 9" fill="none" xmlns="http://www.w3.org/2000/svg">
<path d="M7.4375 3.39691H5.3125V1.27191C5.3125 0.990119 5.20056 0.719868 5.0013 0.520611C4.80204 0.321353 4.53179 0.209412 4.25 0.209412C3.96821 0.209412 3.69796 0.321353 3.4987 0.520611C3.29944 0.719868 3.1875 0.990119 3.1875 1.27191V3.39691H1.0625C0.780707 3.39691 0.510456 3.50885 0.311199 3.70811C0.111941 3.90737 0 4.17762 0 4.45941C0 4.7412 0.111941 5.01146 0.311199 5.21071C0.510456 5.40997 0.780707 5.52191 1.0625 5.52191H3.1875V7.64691C3.1875 7.9287 3.29944 8.19895 3.4987 8.39821C3.69796 8.59747 3.96821 8.70941 4.25 8.70941C4.53179 8.70941 4.80204 8.59747 5.0013 8.39821C5.20056 8.19895 5.3125 7.9287 5.3125 7.64691V5.52191H7.4375C7.71929 5.52191 7.98954 5.40997 8.1888 5.21071C8.38806 5.01146 8.5 4.7412 8.5 4.45941C8.5 4.17762 8.38806 3.90737 8.1888 3.70811C7.98954 3.50885 7.71929 3.39691 7.4375 3.39691Z" fill="black"/>
</svg>
