<svg width="44" height="44" viewBox="0 0 44 44" fill="none" xmlns="http://www.w3.org/2000/svg">
<path d="M42.5495 12.7018L31.8265 1.97542C31.0678 1.18983 30.0572 0.696271 28.9716 0.581118C27.8859 0.465965 26.7944 0.736546 25.888 1.34552C25.3536 1.72588 24.9085 2.21833 24.5838 2.78853C24.2591 3.35874 24.0626 3.99297 24.008 4.64699C23.9534 5.30101 24.042 5.95908 24.2677 6.5753C24.4933 7.19152 24.8506 7.75107 25.3145 8.2149L26.3821 9.28159C26.6541 9.5555 26.8068 9.926 26.8068 10.3122C26.8068 10.6984 26.6541 11.0689 26.3821 11.3428L22.595 15.133C22.2626 15.4642 21.8502 15.7036 21.398 15.8279C20.9458 15.9522 20.4691 15.9572 20.0143 15.8423L18.5355 15.4633C16.8302 15.0178 15.0585 14.8839 13.3057 15.068C12.1538 15.188 11.0601 15.635 10.1536 16.3564C9.24713 17.0778 8.56563 18.0436 8.18946 19.1399C7.77743 20.273 7.6972 21.5004 7.9582 22.6776C8.21921 23.8548 8.81059 24.933 9.66284 25.7854L12.8116 29.0487L1.10573 40.7678C0.933488 40.9343 0.796102 41.1334 0.701588 41.3536C0.607074 41.5738 0.557325 41.8107 0.555244 42.0503C0.553163 42.29 0.598792 42.5276 0.689468 42.7495C0.780145 42.9713 0.914052 43.1728 1.08338 43.3423C1.2527 43.5117 1.45406 43.6457 1.67569 43.7365C1.89732 43.8272 2.13479 43.8729 2.37424 43.8708C2.61369 43.8688 2.85034 43.819 3.07036 43.7244C3.29038 43.6298 3.48937 43.4923 3.65573 43.3199L15.3183 31.6477L17.5725 33.9832C19.1007 35.6059 21.2085 36.5572 23.4354 36.6292C24.1553 36.63 24.87 36.5079 25.5489 36.2682C26.585 35.9104 27.4951 35.2596 28.1692 34.3947C28.8433 33.5298 29.2524 32.4878 29.3469 31.395C29.5294 29.6568 29.3987 27.8998 28.961 26.2078L28.5786 24.356C28.4714 23.9043 28.4814 23.4327 28.6077 22.986C28.734 22.5393 28.9723 22.1324 29.3 21.8039L33.0673 18.0389C33.3603 17.7698 33.7393 17.6138 34.1367 17.5985C34.3112 17.5981 34.484 17.6326 34.645 17.6998C34.806 17.7671 34.952 17.8658 35.0745 17.9902L35.987 18.9034C36.7418 19.71 37.7591 20.221 38.8564 20.3447C39.9536 20.4684 41.059 20.1967 41.9743 19.5785C42.5088 19.1982 42.954 18.7059 43.2788 18.1358C43.6037 17.5656 43.8004 16.9314 43.8551 16.2774C43.9099 15.6234 43.8215 14.9653 43.596 14.349C43.3705 13.7327 43.0134 13.173 42.5495 12.7091V12.7018Z" fill="black"/>
</svg>
