<svg width="26" height="25" viewBox="0 0 26 25" fill="none" xmlns="http://www.w3.org/2000/svg">
<path d="M19.2242 0.898987C18.0512 0.918691 16.9038 1.27232 15.8979 1.92417C14.892 2.57601 14.0631 3.50299 13.495 4.61149C12.927 3.50299 12.0981 2.57601 11.0922 1.92417C10.0862 1.27232 8.93884 0.918691 7.76587 0.898987C5.89601 0.986726 4.13431 1.87015 2.86564 3.35625C1.59697 4.84235 0.92446 6.81033 0.995033 8.83024C0.995033 13.9456 5.98045 19.5324 10.1617 23.3202C11.0953 24.1675 12.2756 24.632 13.495 24.632C14.7145 24.632 15.8948 24.1675 16.8284 23.3202C21.0096 19.5324 25.995 13.9456 25.995 8.83024C26.0656 6.81033 25.3931 4.84235 24.1244 3.35625C22.8558 1.87015 21.0941 0.986726 19.2242 0.898987Z" fill="#FF3737"/>
</svg>
