<svg width="12" height="12" viewBox="0 0 12 12" fill="none" xmlns="http://www.w3.org/2000/svg">
<path d="M10.5854 4.58441H7.83545V1.83441C7.83545 1.46974 7.69058 1.12 7.43272 0.86214C7.17486 0.604277 6.82512 0.459412 6.46045 0.459412C6.09578 0.459412 5.74604 0.604277 5.48818 0.86214C5.23031 1.12 5.08545 1.46974 5.08545 1.83441V4.58441H2.33545C1.97078 4.58441 1.62104 4.72928 1.36318 4.98714C1.10531 5.245 0.960449 5.59474 0.960449 5.95941C0.960449 6.32408 1.10531 6.67382 1.36318 6.93168C1.62104 7.18955 1.97078 7.33441 2.33545 7.33441H5.08545V10.0844C5.08545 10.4491 5.23031 10.7988 5.48818 11.0567C5.74604 11.3145 6.09578 11.4594 6.46045 11.4594C6.82512 11.4594 7.17486 11.3145 7.43272 11.0567C7.69058 10.7988 7.83545 10.4491 7.83545 10.0844V7.33441H10.5854C10.9501 7.33441 11.2999 7.18955 11.5577 6.93168C11.8156 6.67382 11.9604 6.32408 11.9604 5.95941C11.9604 5.59474 11.8156 5.245 11.5577 4.98714C11.2999 4.72928 10.9501 4.58441 10.5854 4.58441Z" fill="black"/>
</svg>
