<svg width="16" height="19" viewBox="0 0 16 19" fill="none" xmlns="http://www.w3.org/2000/svg">
<path d="M7.68164 0.56929C5.69332 0.571473 3.78705 1.36075 2.38102 2.76396C0.974994 4.16717 0.184027 6.06974 0.181641 8.05428C0.181641 9.98178 1.67698 12.9983 4.62634 17.0198C4.97745 17.4999 5.43717 17.8904 5.96809 18.1597C6.499 18.4289 7.08611 18.5693 7.68164 18.5693C8.27717 18.5693 8.86428 18.4289 9.3952 18.1597C9.92611 17.8904 10.3858 17.4999 10.7369 17.0198C13.6863 12.9983 15.1816 9.98178 15.1816 8.05428C15.1793 6.06974 14.3883 4.16717 12.9823 2.76396C11.5762 1.36075 9.66996 0.571473 7.68164 0.56929ZM7.68164 11.0378C7.08717 11.0378 6.50604 10.8618 6.01176 10.5322C5.51747 10.2025 5.13222 9.734 4.90473 9.18583C4.67723 8.63765 4.61771 8.03445 4.73368 7.45251C4.84966 6.87057 5.13593 6.33602 5.55628 5.91646C5.97664 5.4969 6.5122 5.21118 7.09526 5.09543C7.67831 4.97967 8.28265 5.03908 8.83188 5.26614C9.3811 5.49321 9.85052 5.87772 10.1808 6.37107C10.5111 6.86442 10.6874 7.44444 10.6874 8.03778C10.6874 8.83343 10.3707 9.59649 9.807 10.1591C9.24332 10.7217 8.4788 11.0378 7.68164 11.0378Z" fill="black"/>
</svg>
