<svg width="30" height="46" viewBox="0 0 30 46" fill="none" xmlns="http://www.w3.org/2000/svg">
<path d="M15 30.5C12.0333 30.5 9.13319 29.6202 6.66645 27.972C4.19971 26.3238 2.27713 23.9811 1.14181 21.2402C0.00649924 18.4993 -0.290551 15.4833 0.288227 12.5736C0.867006 9.66392 2.29562 6.99118 4.3934 4.8934C6.49119 2.79561 9.16393 1.367 12.0736 0.788227C14.9834 0.20945 17.9994 0.506499 20.7403 1.64181C23.4811 2.77712 25.8238 4.69971 27.472 7.16644C29.1203 9.63317 30 12.5333 30 15.5C29.9955 19.4769 28.4137 23.2896 25.6017 26.1016C22.7896 28.9137 18.9769 30.4955 15 30.5ZM15 34.2499C10.9376 34.2481 6.98709 32.9188 3.75001 30.4643V40.8124C3.74999 41.6955 3.9994 42.5605 4.4695 43.308C4.93961 44.0555 5.61129 44.655 6.40718 45.0375C7.20308 45.4199 8.09083 45.5698 8.96818 45.4699C9.84553 45.3699 10.6768 45.0241 11.3663 44.4724L14.415 42.0349C14.5811 41.9023 14.7874 41.83 15 41.83C15.2126 41.83 15.4189 41.9023 15.585 42.0349L18.6338 44.4724C19.3232 45.0241 20.1545 45.3699 21.0318 45.4699C21.9092 45.5698 22.7969 45.4199 23.5928 45.0375C24.3887 44.655 25.0604 44.0555 25.5305 43.308C26.0006 42.5605 26.25 41.6955 26.25 40.8124V30.4643C23.0128 32.9185 19.0624 34.2479 15 34.2499Z" fill="black"/>
</svg>
