<svg width="20" height="21" viewBox="0 0 20 21" fill="none" xmlns="http://www.w3.org/2000/svg">
<path d="M19.8855 7.33843V17.7164C19.8855 17.9553 19.7984 18.1845 19.6434 18.3534C19.4884 18.5223 19.2781 18.6173 19.0589 18.6173C18.8396 18.6173 18.6293 18.5223 18.4743 18.3534C18.3193 18.1845 18.2322 17.9553 18.2322 17.7164V10.2861L12.1148 13.4715C11.4698 13.8864 10.7335 14.1025 9.98451 14.0967C9.19905 14.098 8.42786 13.868 7.7525 13.431L1.65168 10.2662C1.17211 9.98521 0.770291 9.56945 0.48791 9.0621C0.205529 8.55476 0.0528758 7.9743 0.0457906 7.38098C0.0387055 6.78765 0.177446 6.20307 0.447617 5.68788C0.717788 5.1727 1.10954 4.74569 1.58224 4.45116C1.60456 4.43674 1.62853 4.42323 1.65168 4.41062L7.81615 1.20534C8.48168 0.788835 9.237 0.573048 10.0044 0.580173C10.7719 0.587298 11.5237 0.817078 12.1826 1.24588L18.2793 4.41062C18.7604 4.70068 19.1624 5.12436 19.4445 5.63861C19.7266 6.15286 19.8788 6.73933 19.8855 7.33843ZM9.98368 15.8966C8.92602 15.8992 7.88653 15.5971 6.97047 15.021L3.35214 13.1391V15.5714C3.35263 16.5331 3.63516 17.4695 4.15849 18.2438C4.68183 19.0182 5.41857 19.59 6.26119 19.8758C7.46509 20.2524 8.71304 20.4355 9.9655 20.419C11.2181 20.4343 12.4661 20.2501 13.6698 19.8722C14.5124 19.5864 15.2492 19.0146 15.7725 18.2402C16.2958 17.4659 16.5784 16.5295 16.5789 15.5678V13.1436L12.8927 15.0624C12.0079 15.6164 11.0041 15.9049 9.98368 15.8984V15.8966Z" fill="black"/>
</svg>
