<svg width="64" height="60" viewBox="0 0 64 60" fill="none" xmlns="http://www.w3.org/2000/svg">
<g clip-path="url(#clip0_222_744)">
<path d="M61.2719 0H17.612C16.1052 0 14.8838 1.23099 14.8838 2.74951V15L40.1861 22.5L64.0001 15V2.74951C64.0001 1.23099 62.7786 0 61.2719 0Z" fill="#41A5EE"/>
<path d="M64.0001 15H14.8838V30L40.1861 34.5L64.0001 30V15Z" fill="#2B7CD3"/>
<path d="M14.8838 30V45L38.6977 48L64.0001 45V30H14.8838Z" fill="#185ABD"/>
<path d="M17.612 60H61.2719C62.7787 60 64.0001 58.769 64.0001 57.2505V45H14.8838V57.2505C14.8838 58.769 16.1052 60 17.612 60Z" fill="#103F91"/>
<path opacity="0.1" d="M32.9928 12H14.8838V49.5H32.9928C34.4975 49.4951 35.7161 48.2669 35.721 46.7505V14.7495C35.7161 13.2331 34.4975 12.0049 32.9928 12Z" fill="black"/>
<path opacity="0.2" d="M31.5044 13.5H14.8838V51H31.5044C33.0091 50.9951 34.2277 49.7669 34.2326 48.2505V16.2495C34.2277 14.7331 33.0091 13.5049 31.5044 13.5Z" fill="black"/>
<path opacity="0.2" d="M31.5044 13.5H14.8838V48H31.5044C33.0091 47.9951 34.2277 46.7669 34.2326 45.2505V16.2495C34.2277 14.7331 33.0091 13.5049 31.5044 13.5Z" fill="black"/>
<path opacity="0.2" d="M30.0161 13.5H14.8838V48H30.0161C31.5208 47.9951 32.7394 46.7669 32.7443 45.2505V16.2495C32.7394 14.7331 31.5208 13.5049 30.0161 13.5Z" fill="black"/>
<path d="M2.72819 13.5H30.016C31.5227 13.5 32.7442 14.731 32.7442 16.2495V43.7505C32.7442 45.269 31.5227 46.5 30.016 46.5H2.72819C1.22145 46.5 0 45.269 0 43.7505V16.2495C0 14.731 1.22145 13.5 2.72819 13.5Z" fill="url(#paint0_linear_222_744)"/>
<path d="M11.1955 34.5871C11.2491 35.0116 11.2848 35.3806 11.3012 35.6971H11.3637C11.3875 35.3971 11.4371 35.0356 11.5125 34.6126C11.588 34.1896 11.6559 33.8321 11.7164 33.5401L14.586 21.0631H18.2965L21.2733 33.3526C21.4463 34.1168 21.5701 34.8914 21.6439 35.6716H21.693C21.7485 34.9157 21.8519 34.1642 22.0026 33.4216L24.3766 21.0571H27.7537L23.5832 38.9371H19.6376L16.8097 27.0961C16.7278 26.7556 16.6341 26.3101 16.5314 25.7626C16.4287 25.2151 16.3647 24.8146 16.3393 24.5626H16.2902C16.2575 24.8536 16.1935 25.2856 16.0982 25.8586C16.003 26.4316 15.9266 26.8556 15.869 27.1306L13.2107 38.9341H9.19809L5.00537 21.0631H8.44349L11.0288 33.5656C11.0869 33.8221 11.142 34.1641 11.1955 34.5871Z" fill="white"/>
</g>
<defs>
<linearGradient id="paint0_linear_222_744" x1="5.68833" y1="11.3516" x2="27.3063" y2="48.5027" gradientUnits="userSpaceOnUse">
<stop stop-color="#2368C4"/>
<stop offset="0.5" stop-color="#1A5DBE"/>
<stop offset="1" stop-color="#1146AC"/>
</linearGradient>
<clipPath id="clip0_222_744">
<rect width="64" height="60" fill="white"/>
</clipPath>
</defs>
</svg>
