<svg width="25" height="33" viewBox="0 0 25 33" fill="none" xmlns="http://www.w3.org/2000/svg">
<path d="M19.8964 3.14374C18.6654 2.12035 17.2356 1.36278 15.697 0.918749C14.1585 0.474719 12.5445 0.35386 10.9569 0.563788C8.01993 0.944974 5.33821 2.42855 3.45631 4.71327C1.57441 6.99799 0.633385 9.91259 0.824319 12.8653C1.01525 15.8179 2.32383 18.5874 4.48434 20.6112C6.64486 22.635 9.49536 23.7615 12.457 23.762H19.2406C20.5285 23.7605 21.7632 23.2487 22.6739 22.3388C23.5846 21.429 24.0969 20.1955 24.0984 18.9088V11.3825C23.9956 9.79595 23.5699 8.24701 22.8474 6.83043C22.1249 5.41384 21.1208 4.15937 19.8964 3.14374ZM8.55326 7.26118H12.4396C12.6972 7.26118 12.9444 7.36344 13.1266 7.54547C13.3088 7.7275 13.4111 7.97439 13.4111 8.23182C13.4111 8.48925 13.3088 8.73613 13.1266 8.91816C12.9444 9.10019 12.6972 9.20245 12.4396 9.20245H8.55326C8.29558 9.20245 8.04846 9.10019 7.86625 8.91816C7.68405 8.73613 7.58169 8.48925 7.58169 8.23182C7.58169 7.97439 7.68405 7.7275 7.86625 7.54547C8.04846 7.36344 8.29558 7.26118 8.55326 7.26118ZM16.3258 16.9675H8.55326C8.29558 16.9675 8.04846 16.8653 7.86625 16.6833C7.68405 16.5012 7.58169 16.2543 7.58169 15.9969C7.58169 15.7395 7.68405 15.4926 7.86625 15.3106C8.04846 15.1285 8.29558 15.0263 8.55326 15.0263H16.3258C16.5835 15.0263 16.8306 15.1285 17.0129 15.3106C17.1951 15.4926 17.2974 15.7395 17.2974 15.9969C17.2974 16.2543 17.1951 16.5012 17.0129 16.6833C16.8306 16.8653 16.5835 16.9675 16.3258 16.9675ZM16.3258 13.085H8.55326C8.29558 13.085 8.04846 12.9827 7.86625 12.8007C7.68405 12.6187 7.58169 12.3718 7.58169 12.1144C7.58169 11.8569 7.68405 11.6101 7.86625 11.428C8.04846 11.246 8.29558 11.1437 8.55326 11.1437H16.3258C16.5835 11.1437 16.8306 11.246 17.0129 11.428C17.1951 11.6101 17.2974 11.8569 17.2974 12.1144C17.2974 12.3718 17.1951 12.6187 17.0129 12.8007C16.8306 12.9827 16.5835 13.085 16.3258 13.085Z" fill="black"/>
<path d="M7.38582 32.2342C7.05063 32.2342 6.73967 32.1817 6.45295 32.0767C6.17026 31.9677 5.92392 31.8142 5.71392 31.6164C5.50796 31.4185 5.34643 31.1863 5.22932 30.9197C5.1122 30.6492 5.05365 30.3523 5.05365 30.0293C5.05365 29.7062 5.1122 29.4114 5.22932 29.1449C5.34643 28.8743 5.50796 28.6401 5.71392 28.4422C5.92392 28.2443 6.17026 28.0929 6.45295 27.9879C6.73967 27.8788 7.05063 27.8243 7.38582 27.8243C7.77754 27.8243 8.12686 27.893 8.43378 28.0303C8.74473 28.1676 9.00319 28.3655 9.20915 28.6239L8.44589 29.3145C8.30859 29.1529 8.15715 29.0298 7.99157 28.945C7.83004 28.8602 7.64831 28.8178 7.44639 28.8178C7.27274 28.8178 7.11322 28.846 6.96784 28.9026C6.82246 28.9591 6.69727 29.0419 6.59227 29.1509C6.49131 29.2559 6.41054 29.3831 6.34997 29.5326C6.29343 29.682 6.26516 29.8475 6.26516 30.0293C6.26516 30.211 6.29343 30.3766 6.34997 30.526C6.41054 30.6754 6.49131 30.8046 6.59227 30.9137C6.69727 31.0187 6.82246 31.0994 6.96784 31.156C7.11322 31.2125 7.27274 31.2408 7.44639 31.2408C7.64831 31.2408 7.83004 31.1984 7.99157 31.1136C8.15715 31.0288 8.30859 30.9056 8.44589 30.7441L9.20915 31.4346C9.00319 31.6891 8.74473 31.8869 8.43378 32.0283C8.12686 32.1656 7.77754 32.2342 7.38582 32.2342Z" fill="black"/>
<path d="M11.8277 28.8117C12.0821 28.8117 12.3123 28.8642 12.5183 28.9692C12.7242 29.0702 12.8858 29.2277 13.0029 29.4417C13.124 29.6557 13.1846 29.9324 13.1846 30.2716V32.1494H12.0337V30.4594C12.0337 30.2251 11.9852 30.0555 11.8883 29.9505C11.7954 29.8415 11.6642 29.787 11.4946 29.787C11.3734 29.787 11.2624 29.8152 11.1614 29.8718C11.0604 29.9243 10.9817 30.0071 10.9251 30.1201C10.8686 30.2332 10.8403 30.3806 10.8403 30.5623V32.1494H9.6894V27.6547H10.8403V29.7991L10.5738 29.5265C10.699 29.2882 10.8706 29.1105 11.0887 28.9934C11.3068 28.8723 11.5531 28.8117 11.8277 28.8117Z" fill="black"/>
<path d="M15.9123 32.1494V31.5376L15.8335 31.3862V30.2595C15.8335 30.0777 15.777 29.9384 15.6639 29.8415C15.5549 29.7405 15.3792 29.69 15.1369 29.69C14.9794 29.69 14.8199 29.7163 14.6584 29.7688C14.4968 29.8173 14.3595 29.8859 14.2465 29.9748L13.8588 29.1933C14.0445 29.0722 14.2666 28.9793 14.5251 28.9147C14.7876 28.846 15.0481 28.8117 15.3065 28.8117C15.8396 28.8117 16.2515 28.9349 16.5423 29.1812C16.8371 29.4235 16.9845 29.8051 16.9845 30.3261V32.1494H15.9123ZM14.9431 32.2039C14.6806 32.2039 14.4585 32.1595 14.2767 32.0707C14.095 31.9818 13.9557 31.8607 13.8588 31.7072C13.7659 31.5538 13.7194 31.3821 13.7194 31.1923C13.7194 30.9904 13.7699 30.8168 13.8709 30.6714C13.9759 30.522 14.1354 30.4089 14.3494 30.3322C14.5635 30.2514 14.8401 30.211 15.1793 30.211H15.9547V30.8107H15.3368C15.151 30.8107 15.0198 30.841 14.9431 30.9016C14.8704 30.9621 14.834 31.0429 14.834 31.1439C14.834 31.2448 14.8724 31.3256 14.9491 31.3862C15.0259 31.4467 15.1309 31.477 15.2641 31.477C15.3893 31.477 15.5024 31.4467 15.6033 31.3862C15.7083 31.3216 15.7851 31.2246 15.8335 31.0954L15.991 31.5194C15.9305 31.7456 15.8113 31.9172 15.6336 32.0343C15.46 32.1474 15.2298 32.2039 14.9431 32.2039Z" fill="black"/>
<path d="M19.1769 32.2039C18.7569 32.2039 18.4298 32.101 18.1956 31.895C17.9613 31.685 17.8442 31.37 17.8442 30.95V28.1333H18.9952V30.9379C18.9952 31.055 19.0275 31.1479 19.0921 31.2166C19.1567 31.2812 19.2395 31.3135 19.3405 31.3135C19.4778 31.3135 19.5949 31.2792 19.6918 31.2105L19.9765 32.0162C19.8796 32.0808 19.7604 32.1272 19.6191 32.1555C19.4778 32.1878 19.3304 32.2039 19.1769 32.2039ZM17.3657 29.8475V28.9874H19.7463V29.8475H17.3657Z" fill="black"/>
</svg>
