<svg width="25" height="29" viewBox="0 0 25 29" fill="none" xmlns="http://www.w3.org/2000/svg">
<path d="M2.91751 12.2379C2.45772 11.5615 2.36581 10.7002 2.67251 9.94198C3.35795 8.5437 4.5062 7.42578 5.92232 6.77805C6.94761 6.26818 8.05819 5.95197 9.19822 5.84519C8.70148 6.45644 8.20418 7.10862 7.70633 7.80183C6.69309 9.33615 5.82577 10.962 5.11575 12.6581L4.81012 13.3434C4.04454 13.28 3.34875 12.8736 2.91751 12.2379ZM4.0819 15.7942C3.35042 16.8042 2.8254 17.9486 2.53698 19.1619C2.35717 19.9502 2.85046 20.7351 3.63884 20.9149C3.85339 20.9638 4.07619 20.9638 4.29074 20.9148C5.50214 20.6259 6.64476 20.1012 7.65339 19.3707C8.64101 18.3835 8.64141 16.7826 7.65423 15.795C6.66708 14.8074 5.06618 14.807 4.07856 15.7942H4.0819ZM10.7642 18.3031L10.0739 18.6096V18.8571C10.0755 19.4501 10.313 20.0181 10.7339 20.4357C11.1343 20.8251 11.6707 21.0432 12.2292 21.0436C14.2136 21.015 15.8225 19.2082 16.667 17.5261C17.1843 16.485 17.5016 15.3561 17.6024 14.198C16.985 14.7031 16.3229 15.2083 15.6162 15.7134C14.0825 16.7269 12.4569 17.594 10.7609 18.3032L10.7642 18.3031ZM22.7027 3.23355C22.5907 6.89843 19.9521 10.533 14.6354 14.3469C13.1886 15.2848 11.6622 16.0939 10.0739 16.765V16.291C10.066 14.6668 8.75132 13.3521 7.12715 13.3442H6.65316C7.32572 11.7559 8.13622 10.2295 9.07539 8.78271C12.88 3.47855 16.5087 0.836588 20.1677 0.717041C21.9913 0.717041 22.7027 1.45962 22.7027 3.23355ZM17.6512 7.8717C17.6512 6.70926 16.7088 5.76688 15.5463 5.76688C14.3839 5.76688 13.4415 6.70922 13.4415 7.8717C13.4415 9.03414 14.3839 9.97651 15.5463 9.97651C16.7088 9.97651 17.6512 9.03414 17.6512 7.8717Z" fill="black"/>
<path d="M0.995117 28.6068V24.9844H2.70798C3.10816 24.9844 3.46005 25.0586 3.76364 25.2069C4.06723 25.3553 4.30354 25.564 4.47259 25.8331C4.64508 26.1022 4.73133 26.423 4.73133 26.7956C4.73133 27.1647 4.64508 27.4856 4.47259 27.7581C4.30354 28.0272 4.06723 28.2359 3.76364 28.3842C3.46005 28.5326 3.10816 28.6068 2.70798 28.6068H0.995117ZM2.01973 27.7891H2.66658C2.87357 27.7891 3.05297 27.7512 3.20476 27.6753C3.36 27.5959 3.48075 27.4821 3.567 27.3338C3.65324 27.182 3.69637 27.0026 3.69637 26.7956C3.69637 26.5851 3.65324 26.4057 3.567 26.2574C3.48075 26.1091 3.36 25.9969 3.20476 25.921C3.05297 25.8417 2.87357 25.802 2.66658 25.802H2.01973V27.7891Z" fill="black"/>
<path d="M5.22382 28.6068V25.802H6.20704V28.6068H5.22382ZM5.71543 25.4915C5.53604 25.4915 5.39114 25.4415 5.28075 25.3415C5.17035 25.2414 5.11515 25.1172 5.11515 24.9689C5.11515 24.8205 5.17035 24.6963 5.28075 24.5963C5.39114 24.4962 5.53604 24.4462 5.71543 24.4462C5.89482 24.4462 6.03972 24.4945 6.15011 24.5911C6.26051 24.6843 6.31571 24.805 6.31571 24.9533C6.31571 25.1086 6.26051 25.238 6.15011 25.3415C6.04317 25.4415 5.89827 25.4915 5.71543 25.4915Z" fill="black"/>
<path d="M7.86544 28.6533C7.6274 28.6533 7.39453 28.6257 7.16684 28.5705C6.9426 28.5153 6.76148 28.4463 6.62349 28.3635L6.91845 27.6908C7.04955 27.7702 7.20307 27.834 7.37901 27.8823C7.55495 27.9271 7.72745 27.9496 7.89649 27.9496C8.06208 27.9496 8.17593 27.9323 8.23803 27.8978C8.30358 27.8633 8.33635 27.8167 8.33635 27.7581C8.33635 27.7029 8.3053 27.6632 8.2432 27.6391C8.18455 27.6115 8.10521 27.5908 8.00516 27.577C7.90857 27.5632 7.80162 27.5477 7.68432 27.5304C7.56703 27.5132 7.44801 27.4907 7.32726 27.4631C7.20997 27.4321 7.1013 27.3872 7.00125 27.3286C6.90465 27.2665 6.82703 27.1837 6.76838 27.0802C6.70973 26.9767 6.68041 26.8456 6.68041 26.6869C6.68041 26.5075 6.73216 26.3488 6.83566 26.2108C6.9426 26.0694 7.09785 25.959 7.30139 25.8796C7.50493 25.7968 7.75332 25.7554 8.04656 25.7554C8.2432 25.7554 8.44157 25.7761 8.64166 25.8175C8.84521 25.8555 9.01597 25.9141 9.15397 25.9935L8.859 26.661C8.72101 26.5817 8.58301 26.5282 8.44502 26.5006C8.30703 26.4696 8.17593 26.454 8.05173 26.454C7.88614 26.454 7.76885 26.473 7.69985 26.511C7.6343 26.5489 7.60153 26.5955 7.60153 26.6507C7.60153 26.7059 7.63085 26.749 7.6895 26.7801C7.74815 26.8077 7.82577 26.8301 7.92236 26.8473C8.02241 26.8611 8.13108 26.8767 8.24838 26.8939C8.36567 26.9077 8.48297 26.9301 8.60026 26.9612C8.72101 26.9922 8.82968 27.0388 8.92628 27.1009C9.02632 27.1595 9.10567 27.2406 9.16432 27.3441C9.22297 27.4442 9.25229 27.5735 9.25229 27.7322C9.25229 27.9047 9.19882 28.06 9.09187 28.198C8.98837 28.3359 8.83313 28.4463 8.62614 28.5291C8.4226 28.6119 8.16903 28.6533 7.86544 28.6533Z" fill="black"/>
<path d="M11.1094 28.6533C10.7989 28.6533 10.5212 28.5912 10.2763 28.467C10.0348 28.3428 9.84502 28.1721 9.70703 27.9547C9.56903 27.7339 9.50003 27.4821 9.50003 27.1992C9.50003 26.9163 9.56903 26.6662 9.70703 26.4489C9.84502 26.2315 10.0348 26.0625 10.2763 25.9417C10.5212 25.8175 10.7989 25.7554 11.1094 25.7554C11.4268 25.7554 11.7011 25.8227 11.9322 25.9573C12.1633 26.0918 12.3272 26.2816 12.4238 26.5265L11.6631 26.9146C11.5976 26.7835 11.5165 26.6886 11.4199 26.63C11.3233 26.5679 11.2181 26.5368 11.1042 26.5368C10.9904 26.5368 10.8869 26.5627 10.7937 26.6145C10.7006 26.6662 10.6264 26.7421 10.5712 26.8422C10.5195 26.9388 10.4936 27.0578 10.4936 27.1992C10.4936 27.3441 10.5195 27.4666 10.5712 27.5666C10.6264 27.6667 10.7006 27.7426 10.7937 27.7943C10.8869 27.8461 10.9904 27.8719 11.1042 27.8719C11.2181 27.8719 11.3233 27.8426 11.4199 27.784C11.5165 27.7219 11.5976 27.6253 11.6631 27.4942L12.4238 27.8823C12.3272 28.1272 12.1633 28.317 11.9322 28.4515C11.7011 28.5861 11.4268 28.6533 11.1094 28.6533Z" fill="black"/>
<path d="M14.1712 28.6533C13.8642 28.6533 13.5916 28.5912 13.3536 28.467C13.1156 28.3428 12.9275 28.1721 12.7896 27.9547C12.655 27.7339 12.5877 27.4821 12.5877 27.1992C12.5877 26.9163 12.655 26.6662 12.7896 26.4489C12.9275 26.2315 13.1156 26.0625 13.3536 25.9417C13.5916 25.8175 13.8642 25.7554 14.1712 25.7554C14.4783 25.7554 14.7508 25.8175 14.9888 25.9417C15.2303 26.0625 15.4184 26.2315 15.5529 26.4489C15.6874 26.6662 15.7547 26.9163 15.7547 27.1992C15.7547 27.4821 15.6874 27.7339 15.5529 27.9547C15.4184 28.1721 15.2303 28.3428 14.9888 28.467C14.7508 28.5912 14.4783 28.6533 14.1712 28.6533ZM14.1712 27.8719C14.2851 27.8719 14.3851 27.8461 14.4714 27.7943C14.5611 27.7426 14.6318 27.6667 14.6835 27.5666C14.7353 27.4631 14.7612 27.3407 14.7612 27.1992C14.7612 27.0578 14.7353 26.9388 14.6835 26.8422C14.6318 26.7421 14.5611 26.6662 14.4714 26.6145C14.3851 26.5627 14.2851 26.5368 14.1712 26.5368C14.0608 26.5368 13.9608 26.5627 13.8711 26.6145C13.7848 26.6662 13.7141 26.7421 13.6589 26.8422C13.6072 26.9388 13.5813 27.0578 13.5813 27.1992C13.5813 27.3407 13.6072 27.4631 13.6589 27.5666C13.7141 27.6667 13.7848 27.7426 13.8711 27.7943C13.9608 27.8461 14.0608 27.8719 14.1712 27.8719Z" fill="black"/>
<path d="M16.9158 28.6068L15.7618 25.802H16.7709L17.692 28.1462H17.1849L18.1526 25.802H19.0892L17.93 28.6068H16.9158Z" fill="black"/>
<path d="M20.7372 28.6533C20.406 28.6533 20.1162 28.5912 19.8678 28.467C19.6229 28.3394 19.4314 28.1669 19.2934 27.9496C19.1589 27.7288 19.0916 27.4787 19.0916 27.1992C19.0916 26.9198 19.1572 26.6714 19.2883 26.454C19.4228 26.2333 19.6074 26.0625 19.842 25.9417C20.0766 25.8175 20.3405 25.7554 20.6337 25.7554C20.9097 25.7554 21.1615 25.8124 21.3892 25.9262C21.6169 26.0366 21.798 26.2005 21.9326 26.4178C22.0671 26.6352 22.1344 26.8991 22.1344 27.2096C22.1344 27.2441 22.1327 27.2837 22.1292 27.3286C22.1258 27.3734 22.1223 27.4148 22.1189 27.4528H19.8989V26.9353H21.5962L21.2236 27.0802C21.2271 26.9526 21.2029 26.8422 21.1512 26.749C21.1029 26.6559 21.0339 26.5834 20.9442 26.5317C20.858 26.4799 20.7562 26.454 20.6389 26.454C20.5216 26.454 20.4181 26.4799 20.3284 26.5317C20.2422 26.5834 20.1749 26.6576 20.1266 26.7542C20.0783 26.8473 20.0541 26.9577 20.0541 27.0854V27.2354C20.0541 27.3734 20.0817 27.4925 20.1369 27.5925C20.1956 27.6925 20.2784 27.7702 20.3853 27.8254C20.4923 27.8771 20.6199 27.903 20.7683 27.903C20.9063 27.903 21.0235 27.884 21.1201 27.8461C21.2202 27.8047 21.3185 27.7426 21.4151 27.6598L21.9326 28.198C21.798 28.3463 21.6325 28.4601 21.4358 28.5395C21.2392 28.6154 21.0063 28.6533 20.7372 28.6533Z" fill="black"/>
<path d="M22.5877 28.6068V25.802H23.5244V26.6196L23.3846 26.3868C23.4674 26.1763 23.602 26.0194 23.7883 25.9159C23.9746 25.8089 24.2005 25.7554 24.4662 25.7554V26.6403C24.4213 26.6334 24.3817 26.63 24.3472 26.63C24.3161 26.6265 24.2816 26.6248 24.2437 26.6248C24.0436 26.6248 23.8814 26.68 23.7572 26.7904C23.633 26.8974 23.5709 27.0733 23.5709 27.3182V28.6068H22.5877Z" fill="black"/>
</svg>
