<svg width="12" height="13" viewBox="0 0 12 13" fill="none" xmlns="http://www.w3.org/2000/svg">
<path d="M6.14719 0.689941C2.97804 0.689941 0.399902 3.26808 0.399902 6.43723C0.399902 9.60638 2.97804 12.1845 6.14719 12.1845C9.31634 12.1845 11.8945 9.60638 11.8945 6.43723C11.8945 3.26808 9.31634 0.689941 6.14719 0.689941ZM8.06295 6.91617H6.14719C5.88281 6.91617 5.66825 6.70208 5.66825 6.43723V3.56358C5.66825 3.29873 5.88281 3.08464 6.14719 3.08464C6.41156 3.08464 6.62613 3.29873 6.62613 3.56358V5.95829H8.06295C8.3278 5.95829 8.54189 6.17237 8.54189 6.43723C8.54189 6.70208 8.3278 6.91617 8.06295 6.91617Z" fill="black"/>
</svg>
