<svg width="17" height="17" viewBox="0 0 17 17" fill="none" xmlns="http://www.w3.org/2000/svg">
<path d="M8.32186 0.178223C3.73305 0.178223 0 3.91127 0 8.50008C0 13.0889 3.73305 16.8219 8.32186 16.8219C12.9107 16.8219 16.6437 13.0889 16.6437 8.50008C16.6437 3.91127 12.9107 0.178223 8.32186 0.178223ZM11.0958 9.19357H8.32186C7.93906 9.19357 7.62837 8.88358 7.62837 8.50008V4.33915C7.62837 3.95565 7.93906 3.64566 8.32186 3.64566C8.70467 3.64566 9.01535 3.95565 9.01535 4.33915V7.8066H11.0958C11.4793 7.8066 11.7893 8.11658 11.7893 8.50008C11.7893 8.88358 11.4793 9.19357 11.0958 9.19357Z" fill="black"/>
</svg>
