<svg width="15" height="15" viewBox="0 0 15 15" fill="none" xmlns="http://www.w3.org/2000/svg">
<path d="M7.24807 0.251953C3.25136 0.251953 0 3.50332 0 7.50003C0 11.4967 3.25136 14.7481 7.24807 14.7481C11.2448 14.7481 14.4961 11.4967 14.4961 7.50003C14.4961 3.50332 11.2448 0.251953 7.24807 0.251953ZM9.6641 8.10403H7.24807C6.91466 8.10403 6.64407 7.83404 6.64407 7.50003V3.87599C6.64407 3.54197 6.91466 3.27198 7.24807 3.27198C7.58148 3.27198 7.85208 3.54197 7.85208 3.87599V6.89602H9.6641C9.99811 6.89602 10.2681 7.16601 10.2681 7.50003C10.2681 7.83404 9.99811 8.10403 9.6641 8.10403Z" fill="black"/>
</svg>
