<svg width="13" height="14" viewBox="0 0 13 14" fill="none" xmlns="http://www.w3.org/2000/svg">
<g clip-path="url(#clip0_222_993)">
<path d="M1.09538 10.6617C0.709747 11.0472 0.493036 11.5701 0.49292 12.1154L0.49292 13.1707H1.54826C2.09355 13.1706 2.61647 12.9539 3.00199 12.5683L9.86093 5.70934L7.95433 3.80273L1.09538 10.6617Z" fill="black"/>
<path d="M12.3905 1.2732C12.2653 1.14789 12.1167 1.04848 11.9531 0.980662C11.7895 0.912839 11.6141 0.87793 11.437 0.87793C11.2598 0.87793 11.0845 0.912839 10.9208 0.980662C10.7572 1.04848 10.6086 1.14789 10.4834 1.2732L8.68115 3.07596L10.5878 4.98257L12.3905 3.18032C12.5158 3.05514 12.6152 2.90649 12.6831 2.74288C12.7509 2.57926 12.7858 2.40388 12.7858 2.22676C12.7858 2.04964 12.7509 1.87426 12.6831 1.71064C12.6152 1.54702 12.5158 1.39837 12.3905 1.2732V1.2732Z" fill="black"/>
</g>
<defs>
<clipPath id="clip0_222_993">
<rect width="12.3372" height="12.3372" fill="white" transform="translate(0.493164 0.833496)"/>
</clipPath>
</defs>
</svg>
