<svg width="19" height="20" viewBox="0 0 19 20" fill="none" xmlns="http://www.w3.org/2000/svg">
<g clip-path="url(#clip0_222_879)">
<path d="M0.927833 15.1448C0.333927 15.7385 0.000179352 16.5438 0 17.3836L0 19.0089H1.62529C2.46508 19.0087 3.2704 18.6749 3.86412 18.081L14.4273 7.51783L11.491 4.58154L0.927833 15.1448Z" fill="black"/>
<path d="M18.323 0.685887C18.1302 0.492906 17.9013 0.339814 17.6493 0.235363C17.3973 0.130911 17.1273 0.0771484 16.8545 0.0771484C16.5817 0.0771484 16.3116 0.130911 16.0596 0.235363C15.8076 0.339814 15.5787 0.492906 15.3859 0.685887L12.6104 3.46226L15.5466 6.39855L18.323 3.62297C18.516 3.43019 18.6691 3.20127 18.7735 2.94928C18.878 2.6973 18.9318 2.4272 18.9318 2.15443C18.9318 1.88166 18.878 1.61156 18.7735 1.35957C18.6691 1.10759 18.516 0.878666 18.323 0.685887V0.685887Z" fill="black"/>
</g>
<defs>
<clipPath id="clip0_222_879">
<rect width="19" height="19" fill="white" transform="translate(0 0.00878906)"/>
</clipPath>
</defs>
</svg>
