<svg width="24" height="25" viewBox="0 0 24 25" fill="none" xmlns="http://www.w3.org/2000/svg">
<g clip-path="url(#clip0_204_2280)">
<path d="M6.0791 23.4594C6.07945 23.0617 6.23772 22.6804 6.5191 22.3994L14.1911 14.7274C14.4233 14.4952 14.6075 14.2196 14.7332 13.9163C14.8589 13.6129 14.9236 13.2878 14.9236 12.9594C14.9236 12.631 14.8589 12.3059 14.7332 12.0025C14.6075 11.6992 14.4233 11.4236 14.1911 11.1914L6.5291 3.5244C6.25586 3.24149 6.10467 2.86259 6.10809 2.4693C6.11151 2.076 6.26926 1.69978 6.54737 1.42167C6.82549 1.14356 7.2017 0.985805 7.595 0.982387C7.9883 0.978969 8.3672 1.13016 8.6501 1.4034L16.3121 9.0644C17.3423 10.0967 17.9209 11.4955 17.9209 12.9539C17.9209 14.4123 17.3423 15.8111 16.3121 16.8434L8.6401 24.5154C8.43062 24.725 8.16374 24.8679 7.87315 24.926C7.58255 24.9841 7.28126 24.9548 7.00729 24.8418C6.73332 24.7289 6.49895 24.5373 6.33376 24.2912C6.16857 24.0452 6.07995 23.7557 6.0791 23.4594Z" fill="black"/>
</g>
<defs>
<clipPath id="clip0_204_2280">
<rect width="24" height="24" fill="white" transform="translate(0 0.959412)"/>
</clipPath>
</defs>
</svg>
