<svg width="24" height="34" viewBox="0 0 24 34" fill="none" xmlns="http://www.w3.org/2000/svg">
<path d="M4.84274 33.8979C4.4834 33.8979 4.15674 33.8373 3.86274 33.7159C3.57341 33.5899 3.33307 33.4103 3.14174 33.1769L3.89774 32.2809C4.0284 32.4489 4.16374 32.5773 4.30374 32.6659C4.44374 32.7499 4.59074 32.7919 4.74474 32.7919C5.15541 32.7919 5.36074 32.5539 5.36074 32.0779V29.9709H3.66674V28.8999H6.73274V31.9939C6.73274 32.6333 6.57174 33.1116 6.24974 33.4289C5.92774 33.7416 5.45874 33.8979 4.84274 33.8979Z" fill="black"/>
<path d="M9.50922 33.8629C9.09389 33.8629 8.72522 33.7789 8.40322 33.6109C8.08122 33.4429 7.82689 33.2119 7.64022 32.9179C7.45822 32.6193 7.36722 32.2786 7.36722 31.8959C7.36722 31.5133 7.45822 31.1749 7.64022 30.8809C7.82689 30.5869 8.08122 30.3583 8.40322 30.1949C8.72522 30.0269 9.09389 29.9429 9.50922 29.9429C9.92456 29.9429 10.2932 30.0269 10.6152 30.1949C10.9419 30.3583 11.1962 30.5869 11.3782 30.8809C11.5602 31.1749 11.6512 31.5133 11.6512 31.8959C11.6512 32.2786 11.5602 32.6193 11.3782 32.9179C11.1962 33.2119 10.9419 33.4429 10.6152 33.6109C10.2932 33.7789 9.92456 33.8629 9.50922 33.8629ZM9.50922 32.8059C9.66322 32.8059 9.79856 32.7709 9.91522 32.7009C10.0366 32.6309 10.1322 32.5283 10.2022 32.3929C10.2722 32.2529 10.3072 32.0873 10.3072 31.8959C10.3072 31.7046 10.2722 31.5436 10.2022 31.4129C10.1322 31.2776 10.0366 31.1749 9.91522 31.1049C9.79856 31.0349 9.66322 30.9999 9.50922 30.9999C9.35989 30.9999 9.22456 31.0349 9.10322 31.1049C8.98656 31.1749 8.89089 31.2776 8.81622 31.4129C8.74622 31.5436 8.71122 31.7046 8.71122 31.8959C8.71122 32.0873 8.74622 32.2529 8.81622 32.3929C8.89089 32.5283 8.98656 32.6309 9.10322 32.7009C9.22456 32.7709 9.35989 32.8059 9.50922 32.8059Z" fill="black"/>
<path d="M14.6543 33.8629C14.3137 33.8629 14.029 33.7929 13.8003 33.6529C13.5763 33.5129 13.4083 33.2983 13.2963 33.0089C13.1843 32.7196 13.1283 32.3486 13.1283 31.8959C13.1283 31.4526 13.1867 31.0863 13.3033 30.7969C13.4247 30.5076 13.5997 30.2929 13.8283 30.1529C14.057 30.0129 14.3323 29.9429 14.6543 29.9429C14.9997 29.9429 15.3123 30.0223 15.5923 30.1809C15.877 30.3396 16.101 30.5659 16.2643 30.8599C16.4323 31.1493 16.5163 31.4946 16.5163 31.8959C16.5163 32.3019 16.4323 32.6519 16.2643 32.9459C16.101 33.2353 15.877 33.4616 15.5923 33.6249C15.3123 33.7836 14.9997 33.8629 14.6543 33.8629ZM12.2673 33.7999V28.6059H13.5973V30.6429L13.5273 31.8959L13.5343 33.1489V33.7999H12.2673ZM14.3743 32.8059C14.5237 32.8059 14.6567 32.7709 14.7733 32.7009C14.8947 32.6309 14.9903 32.5283 15.0603 32.3929C15.135 32.2529 15.1723 32.0873 15.1723 31.8959C15.1723 31.7046 15.135 31.5436 15.0603 31.4129C14.9903 31.2776 14.8947 31.1749 14.7733 31.1049C14.6567 31.0349 14.5237 30.9999 14.3743 30.9999C14.225 30.9999 14.0897 31.0349 13.9683 31.1049C13.8517 31.1749 13.756 31.2776 13.6813 31.4129C13.6113 31.5436 13.5763 31.7046 13.5763 31.8959C13.5763 32.0873 13.6113 32.2529 13.6813 32.3929C13.756 32.5283 13.8517 32.6309 13.9683 32.7009C14.0897 32.7709 14.225 32.8059 14.3743 32.8059Z" fill="black"/>
<path d="M18.5135 33.8629C18.1915 33.8629 17.8765 33.8256 17.5685 33.7509C17.2652 33.6763 17.0202 33.5829 16.8335 33.4709L17.2325 32.5609C17.4099 32.6683 17.6175 32.7546 17.8555 32.8199C18.0935 32.8806 18.3269 32.9109 18.5555 32.9109C18.7795 32.9109 18.9335 32.8876 19.0175 32.8409C19.1062 32.7943 19.1505 32.7313 19.1505 32.6519C19.1505 32.5773 19.1085 32.5236 19.0245 32.4909C18.9452 32.4536 18.8379 32.4256 18.7025 32.4069C18.5719 32.3883 18.4272 32.3673 18.2685 32.3439C18.1099 32.3206 17.9489 32.2903 17.7855 32.2529C17.6269 32.2109 17.4799 32.1503 17.3445 32.0709C17.2139 31.9869 17.1089 31.8749 17.0295 31.7349C16.9502 31.5949 16.9105 31.4176 16.9105 31.2029C16.9105 30.9603 16.9805 30.7456 17.1205 30.5589C17.2652 30.3676 17.4752 30.2183 17.7505 30.1109C18.0259 29.9989 18.3619 29.9429 18.7585 29.9429C19.0245 29.9429 19.2929 29.9709 19.5635 30.0269C19.8389 30.0783 20.0699 30.1576 20.2565 30.2649L19.8575 31.1679C19.6709 31.0606 19.4842 30.9883 19.2975 30.9509C19.1109 30.9089 18.9335 30.8879 18.7655 30.8879C18.5415 30.8879 18.3829 30.9136 18.2895 30.9649C18.2009 31.0163 18.1565 31.0793 18.1565 31.1539C18.1565 31.2286 18.1962 31.2869 18.2755 31.3289C18.3549 31.3663 18.4599 31.3966 18.5905 31.4199C18.7259 31.4386 18.8729 31.4596 19.0315 31.4829C19.1902 31.5016 19.3489 31.5319 19.5075 31.5739C19.6709 31.6159 19.8179 31.6789 19.9485 31.7629C20.0839 31.8423 20.1912 31.9519 20.2705 32.0919C20.3499 32.2273 20.3895 32.4023 20.3895 32.6169C20.3895 32.8503 20.3172 33.0603 20.1725 33.2469C20.0325 33.4336 19.8225 33.5829 19.5425 33.6949C19.2672 33.8069 18.9242 33.8629 18.5135 33.8629Z" fill="black"/>
<path d="M19.1095 4.71159H18.0338C17.8068 3.60793 17.2063 2.61626 16.3334 1.90372C15.4606 1.19118 14.3687 0.801349 13.242 0.799927H11.2861C10.1594 0.801349 9.06756 1.19118 8.1947 1.90372C7.32185 2.61626 6.72132 3.60793 6.49435 4.71159H5.41864C4.12232 4.71315 2.87954 5.2288 1.9629 6.14543C1.04626 7.06207 0.530613 8.30486 0.52906 9.60118V12.5349H23.9991V9.60118C23.9975 8.30486 23.4819 7.06207 22.5652 6.14543C21.6486 5.2288 20.4058 4.71315 19.1095 4.71159ZM8.53233 4.71159C8.73386 4.14156 9.10659 3.64771 9.59953 3.29761C10.0925 2.94751 10.6815 2.75827 11.2861 2.75576H13.242C13.8466 2.75827 14.4357 2.94751 14.9286 3.29761C15.4215 3.64771 15.7943 4.14156 15.9958 4.71159H8.53233Z" fill="black"/>
<path d="M13.242 15.4687C13.242 15.728 13.1389 15.9768 12.9555 16.1602C12.7721 16.3436 12.5234 16.4466 12.2641 16.4466C12.0047 16.4466 11.756 16.3436 11.5726 16.1602C11.3892 15.9768 11.2861 15.728 11.2861 15.4687V14.4908H0.529053V19.3803C0.530606 20.6767 1.04626 21.9194 1.96289 22.8361C2.87953 23.7527 4.12231 24.2684 5.41864 24.2699H19.1095C20.4058 24.2684 21.6486 23.7527 22.5652 22.8361C23.4818 21.9194 23.9975 20.6767 23.9991 19.3803V14.4908H13.242V15.4687Z" fill="black"/>
</svg>
