<svg width="21" height="20" viewBox="0 0 21 20" fill="none" xmlns="http://www.w3.org/2000/svg">
<g clip-path="url(#clip0_222_843)">
<path d="M10.1193 0.121094C7.93227 0.1235 5.83553 0.993288 4.28901 2.53965C2.7425 4.08601 1.8725 6.18266 1.86987 8.36965C1.86987 10.4938 3.51463 13.818 6.75867 18.2497C7.14487 18.7788 7.65052 19.2092 8.23449 19.5059C8.81845 19.8027 9.46423 19.9573 10.1193 19.9573C10.7743 19.9573 11.4201 19.8027 12.004 19.5059C12.588 19.2092 13.0936 18.7788 13.4798 18.2497C16.7239 13.818 18.3686 10.4938 18.3686 8.36965C18.366 6.18266 17.496 4.08601 15.9495 2.53965C14.403 0.993288 12.3062 0.1235 10.1193 0.121094ZM10.1193 11.6575C9.46538 11.6575 8.8262 11.4636 8.28252 11.1003C7.73885 10.7371 7.3151 10.2207 7.06488 9.61663C6.81465 9.01253 6.74918 8.3478 6.87675 7.70649C7.00431 7.06518 7.31918 6.4761 7.78154 6.01375C8.24389 5.55139 8.83297 5.23652 9.47428 5.10896C10.1156 4.98139 10.7803 5.04686 11.3844 5.29709C11.9885 5.54732 12.5049 5.97106 12.8681 6.51473C13.2314 7.05841 13.4253 7.6976 13.4253 8.35147C13.4253 9.22828 13.077 10.0692 12.457 10.6892C11.837 11.3092 10.9961 11.6575 10.1193 11.6575Z" fill="black"/>
</g>
<defs>
<clipPath id="clip0_222_843">
<rect width="19.8362" height="19.8362" fill="white" transform="translate(0.201172 0.0864258)"/>
</clipPath>
</defs>
</svg>
