<svg width="22" height="33" viewBox="0 0 22 33" fill="none" xmlns="http://www.w3.org/2000/svg">
<path d="M10.6836 12.4643C13.9004 12.4643 16.5082 9.8565 16.5082 6.63966C16.5082 3.42282 13.9004 0.815063 10.6836 0.815063C7.46676 0.815063 4.859 3.42282 4.859 6.63966C4.859 9.8565 7.46676 12.4643 10.6836 12.4643Z" fill="black"/>
<path d="M10.6836 14.4058C5.86055 14.4112 1.95207 18.3197 1.9467 23.1427C1.9467 23.6788 2.38131 24.1134 2.91745 24.1134H18.4497C18.9858 24.1134 19.4204 23.6788 19.4204 23.1427C19.4151 18.3197 15.5066 14.4111 10.6836 14.4058Z" fill="black"/>
<path d="M0.429932 32.5009V28.2606H2.36836C2.75604 28.2606 3.08921 28.3232 3.36786 28.4483C3.65055 28.5735 3.86862 28.7553 4.02208 28.9935C4.17554 29.2278 4.25226 29.5064 4.25226 29.8295C4.25226 30.1485 4.17554 30.4251 4.02208 30.6594C3.86862 30.8936 3.65055 31.0753 3.36786 31.2045C3.08921 31.3297 2.75604 31.3923 2.36836 31.3923H1.09627L1.62933 30.8714V32.5009H0.429932ZM1.62933 30.9986L1.09627 30.4473H2.29567C2.54605 30.4473 2.73181 30.3928 2.85296 30.2838C2.97815 30.1748 3.04075 30.0233 3.04075 29.8295C3.04075 29.6316 2.97815 29.4781 2.85296 29.3691C2.73181 29.2601 2.54605 29.2055 2.29567 29.2055H1.09627L1.62933 28.6543V30.9986Z" fill="black"/>
<path d="M4.8062 32.5009V29.2177H5.90262V30.1748L5.73907 29.9022C5.83599 29.6558 5.99349 29.4721 6.21156 29.3509C6.42963 29.2257 6.69415 29.1631 7.0051 29.1631V30.199C6.9526 30.1909 6.90616 30.1869 6.86578 30.1869C6.82943 30.1828 6.78905 30.1808 6.74463 30.1808C6.5104 30.1808 6.3206 30.2454 6.17522 30.3747C6.02983 30.4998 5.95714 30.7058 5.95714 30.9925V32.5009H4.8062Z" fill="black"/>
<path d="M9.09814 32.5554C8.73872 32.5554 8.41969 32.4827 8.14104 32.3373C7.86239 32.1919 7.6423 31.992 7.48077 31.7376C7.32327 31.4792 7.24452 31.1844 7.24452 30.8532C7.24452 30.5221 7.32327 30.2293 7.48077 29.9749C7.6423 29.7204 7.86239 29.5226 8.14104 29.3812C8.41969 29.2358 8.73872 29.1631 9.09814 29.1631C9.45756 29.1631 9.77659 29.2358 10.0552 29.3812C10.3379 29.5226 10.558 29.7204 10.7155 29.9749C10.873 30.2293 10.9518 30.5221 10.9518 30.8532C10.9518 31.1844 10.873 31.4792 10.7155 31.7376C10.558 31.992 10.3379 32.1919 10.0552 32.3373C9.77659 32.4827 9.45756 32.5554 9.09814 32.5554ZM9.09814 31.6407C9.23141 31.6407 9.34852 31.6104 9.44948 31.5498C9.55448 31.4893 9.63726 31.4004 9.69784 31.2833C9.75842 31.1621 9.7887 31.0188 9.7887 30.8532C9.7887 30.6876 9.75842 30.5483 9.69784 30.4352C9.63726 30.3181 9.55448 30.2293 9.44948 30.1687C9.34852 30.1081 9.23141 30.0778 9.09814 30.0778C8.96891 30.0778 8.8518 30.1081 8.7468 30.1687C8.64584 30.2293 8.56305 30.3181 8.49844 30.4352C8.43786 30.5483 8.40758 30.6876 8.40758 30.8532C8.40758 31.0188 8.43786 31.1621 8.49844 31.2833C8.56305 31.4004 8.64584 31.4893 8.7468 31.5498C8.8518 31.6104 8.96891 31.6407 9.09814 31.6407Z" fill="black"/>
<path d="M11.6182 32.5009V29.254C11.6182 28.8582 11.7353 28.5432 11.9695 28.309C12.2078 28.0708 12.547 27.9516 12.9872 27.9516C13.1285 27.9516 13.2679 27.9658 13.4052 27.994C13.5425 28.0223 13.6576 28.0647 13.7505 28.1212L13.4658 28.933C13.4173 28.9047 13.3628 28.8825 13.3022 28.8663C13.2416 28.8461 13.181 28.836 13.1205 28.836C12.9993 28.836 12.9044 28.8724 12.8358 28.9451C12.7711 29.0137 12.7388 29.1207 12.7388 29.2661V29.5024L12.7691 29.9809V32.5009H11.6182ZM11.1396 30.199V29.3388H13.5203V30.199H11.1396ZM14.0473 32.5009V29.2177H15.1982V32.5009H14.0473ZM14.6227 28.8542C14.4128 28.8542 14.2431 28.7956 14.1139 28.6785C13.9847 28.5614 13.9201 28.416 13.9201 28.2424C13.9201 28.0687 13.9847 27.9234 14.1139 27.8062C14.2431 27.6891 14.4128 27.6306 14.6227 27.6306C14.8327 27.6306 15.0024 27.6871 15.1316 27.8002C15.2608 27.9092 15.3254 28.0506 15.3254 28.2242C15.3254 28.4059 15.2608 28.5574 15.1316 28.6785C15.0064 28.7956 14.8368 28.8542 14.6227 28.8542Z" fill="black"/>
<path d="M15.9453 32.5009V28.0061H17.0962V32.5009H15.9453Z" fill="black"/>
<path d="M19.5646 32.5554C19.1769 32.5554 18.8376 32.4827 18.5469 32.3373C18.2602 32.1879 18.036 31.986 17.8745 31.7316C17.717 31.4731 17.6382 31.1803 17.6382 30.8532C17.6382 30.5261 17.715 30.2353 17.8684 29.9809C18.0259 29.7225 18.242 29.5226 18.5166 29.3812C18.7912 29.2358 19.1001 29.1631 19.4434 29.1631C19.7665 29.1631 20.0613 29.2298 20.3278 29.363C20.5943 29.4923 20.8064 29.6841 20.9639 29.9385C21.1213 30.1929 21.2001 30.5019 21.2001 30.8653C21.2001 30.9057 21.1981 30.9521 21.194 31.0046C21.19 31.0571 21.186 31.1056 21.1819 31.15H18.5832V30.5443H20.5701L20.134 30.7139C20.138 30.5645 20.1097 30.4352 20.0492 30.3262C19.9926 30.2172 19.9119 30.1324 19.8069 30.0718C19.7059 30.0112 19.5868 29.9809 19.4495 29.9809C19.3122 29.9809 19.191 30.0112 19.086 30.0718C18.985 30.1324 18.9063 30.2192 18.8498 30.3323C18.7932 30.4413 18.7649 30.5705 18.7649 30.7199V30.8956C18.7649 31.0571 18.7973 31.1965 18.8619 31.3136C18.9305 31.4307 19.0274 31.5216 19.1526 31.5862C19.2778 31.6467 19.4272 31.677 19.6009 31.677C19.7624 31.677 19.8997 31.6548 20.0128 31.6104C20.1299 31.5619 20.245 31.4893 20.3581 31.3923L20.9639 32.0223C20.8064 32.196 20.6125 32.3292 20.3823 32.4221C20.1521 32.511 19.8795 32.5554 19.5646 32.5554Z" fill="black"/>
</svg>
