<svg width="22" height="33" viewBox="0 0 22 33" fill="none" xmlns="http://www.w3.org/2000/svg">
<path d="M10.6836 12.128C13.9004 12.128 16.5082 9.52019 16.5082 6.30336C16.5082 3.08652 13.9004 0.47876 10.6836 0.47876C7.46676 0.47876 4.859 3.08652 4.859 6.30336C4.859 9.52019 7.46676 12.128 10.6836 12.128Z" fill="black"/>
<path d="M10.6836 14.0695C5.86055 14.0749 1.95207 17.9834 1.9467 22.8064C1.9467 23.3425 2.38131 23.7771 2.91745 23.7771H18.4497C18.9858 23.7771 19.4204 23.3425 19.4204 22.8064C19.4151 17.9834 15.5066 14.0748 10.6836 14.0695Z" fill="black"/>
<path d="M0.429932 32.1646V27.9243H2.36836C2.75604 27.9243 3.08921 27.9869 3.36786 28.112C3.65055 28.2372 3.86862 28.419 4.02208 28.6572C4.17554 28.8914 4.25226 29.1701 4.25226 29.4932C4.25226 29.8122 4.17554 30.0888 4.02208 30.3231C3.86862 30.5573 3.65055 30.739 3.36786 30.8682C3.08921 30.9934 2.75604 31.056 2.36836 31.056H1.09627L1.62933 30.5351V32.1646H0.429932ZM1.62933 30.6623L1.09627 30.111H2.29567C2.54605 30.111 2.73181 30.0565 2.85296 29.9475C2.97815 29.8385 3.04075 29.687 3.04075 29.4932C3.04075 29.2953 2.97815 29.1418 2.85296 29.0328C2.73181 28.9238 2.54605 28.8692 2.29567 28.8692H1.09627L1.62933 28.318V30.6623Z" fill="black"/>
<path d="M4.8062 32.1646V28.8814H5.90262V29.8385L5.73907 29.5659C5.83599 29.3195 5.99349 29.1358 6.21156 29.0146C6.42963 28.8894 6.69415 28.8268 7.0051 28.8268V29.8627C6.9526 29.8546 6.90616 29.8506 6.86578 29.8506C6.82943 29.8465 6.78905 29.8445 6.74463 29.8445C6.5104 29.8445 6.3206 29.9091 6.17522 30.0384C6.02983 30.1635 5.95714 30.3695 5.95714 30.6562V32.1646H4.8062Z" fill="black"/>
<path d="M9.09814 32.2191C8.73872 32.2191 8.41969 32.1464 8.14104 32.001C7.86239 31.8556 7.6423 31.6557 7.48077 31.4013C7.32327 31.1429 7.24452 30.848 7.24452 30.5169C7.24452 30.1858 7.32327 29.893 7.48077 29.6386C7.6423 29.3841 7.86239 29.1863 8.14104 29.0449C8.41969 28.8995 8.73872 28.8268 9.09814 28.8268C9.45756 28.8268 9.77659 28.8995 10.0552 29.0449C10.3379 29.1863 10.558 29.3841 10.7155 29.6386C10.873 29.893 10.9518 30.1858 10.9518 30.5169C10.9518 30.848 10.873 31.1429 10.7155 31.4013C10.558 31.6557 10.3379 31.8556 10.0552 32.001C9.77659 32.1464 9.45756 32.2191 9.09814 32.2191ZM9.09814 31.3044C9.23141 31.3044 9.34852 31.2741 9.44948 31.2135C9.55448 31.1529 9.63726 31.0641 9.69784 30.947C9.75842 30.8258 9.7887 30.6825 9.7887 30.5169C9.7887 30.3513 9.75842 30.212 9.69784 30.0989C9.63726 29.9818 9.55448 29.893 9.44948 29.8324C9.34852 29.7718 9.23141 29.7415 9.09814 29.7415C8.96891 29.7415 8.8518 29.7718 8.7468 29.8324C8.64584 29.893 8.56305 29.9818 8.49844 30.0989C8.43786 30.212 8.40758 30.3513 8.40758 30.5169C8.40758 30.6825 8.43786 30.8258 8.49844 30.947C8.56305 31.0641 8.64584 31.1529 8.7468 31.2135C8.8518 31.2741 8.96891 31.3044 9.09814 31.3044Z" fill="black"/>
<path d="M11.6182 32.1646V28.9177C11.6182 28.5219 11.7353 28.2069 11.9695 27.9727C12.2078 27.7345 12.547 27.6153 12.9872 27.6153C13.1285 27.6153 13.2679 27.6295 13.4052 27.6577C13.5425 27.686 13.6576 27.7284 13.7505 27.7849L13.4657 28.5966C13.4173 28.5684 13.3628 28.5462 13.3022 28.53C13.2416 28.5098 13.181 28.4997 13.1205 28.4997C12.9993 28.4997 12.9044 28.5361 12.8358 28.6088C12.7711 28.6774 12.7388 28.7844 12.7388 28.9298V29.1661L12.7691 29.6446V32.1646H11.6182ZM11.1396 29.8627V29.0025H13.5203V29.8627H11.1396ZM14.0473 32.1646V28.8814H15.1982V32.1646H14.0473ZM14.6227 28.5179C14.4128 28.5179 14.2431 28.4593 14.1139 28.3422C13.9847 28.2251 13.9201 28.0797 13.9201 27.9061C13.9201 27.7324 13.9847 27.5871 14.1139 27.4699C14.2431 27.3528 14.4128 27.2943 14.6227 27.2943C14.8327 27.2943 15.0024 27.3508 15.1316 27.4639C15.2608 27.5729 15.3254 27.7143 15.3254 27.8879C15.3254 28.0696 15.2608 28.2211 15.1316 28.3422C15.0064 28.4593 14.8368 28.5179 14.6227 28.5179Z" fill="black"/>
<path d="M15.9453 32.1646V27.6698H17.0962V32.1646H15.9453Z" fill="black"/>
<path d="M19.5646 32.2191C19.1769 32.2191 18.8376 32.1464 18.5469 32.001C18.2602 31.8516 18.036 31.6497 17.8745 31.3952C17.717 31.1368 17.6382 30.844 17.6382 30.5169C17.6382 30.1898 17.715 29.899 17.8684 29.6446C18.0259 29.3862 18.242 29.1863 18.5166 29.0449C18.7912 28.8995 19.1001 28.8268 19.4434 28.8268C19.7665 28.8268 20.0613 28.8935 20.3278 29.0267C20.5943 29.156 20.8064 29.3478 20.9639 29.6022C21.1213 29.8566 21.2001 30.1656 21.2001 30.529C21.2001 30.5694 21.1981 30.6158 21.194 30.6683C21.19 30.7208 21.186 30.7693 21.1819 30.8137H18.5832V30.208H20.5701L20.134 30.3776C20.138 30.2282 20.1097 30.0989 20.0492 29.9899C19.9926 29.8809 19.9119 29.796 19.8069 29.7355C19.7059 29.6749 19.5868 29.6446 19.4495 29.6446C19.3122 29.6446 19.191 29.6749 19.086 29.7355C18.985 29.796 18.9063 29.8829 18.8498 29.9959C18.7932 30.105 18.7649 30.2342 18.7649 30.3836V30.5593C18.7649 30.7208 18.7973 30.8602 18.8619 30.9773C18.9305 31.0944 19.0274 31.1853 19.1526 31.2499C19.2778 31.3104 19.4272 31.3407 19.6009 31.3407C19.7624 31.3407 19.8997 31.3185 20.0128 31.2741C20.1299 31.2256 20.245 31.1529 20.3581 31.056L20.9639 31.686C20.8064 31.8597 20.6125 31.9929 20.3823 32.0858C20.1521 32.1747 19.8795 32.2191 19.5646 32.2191Z" fill="black"/>
</svg>
