<svg width="25" height="26" viewBox="0 0 25 26" fill="none" xmlns="http://www.w3.org/2000/svg">
<path d="M24.5417 22.6043L19.703 17.7636C23.3235 12.9253 22.3363 6.068 17.498 2.44746C12.6597 -1.17309 5.80244 -0.185882 2.18189 4.65242C-1.43865 9.49073 -0.451446 16.348 4.38686 19.9686C8.27339 22.8769 13.6115 22.8769 17.498 19.9686L22.3388 24.8093C22.9471 25.4176 23.9334 25.4176 24.5416 24.8093C25.15 24.201 25.15 23.2147 24.5416 22.6064L24.5417 22.6043ZM10.9828 19.0343C6.68273 19.0343 3.19688 15.5484 3.19688 11.2484C3.19688 6.94829 6.68273 3.46245 10.9828 3.46245C15.2828 3.46245 18.7687 6.94829 18.7687 11.2484C18.7641 15.5465 15.2809 19.0297 10.9828 19.0343Z" fill="black"/>
</svg>
