<svg width="12" height="13" viewBox="0 0 12 13" fill="none" xmlns="http://www.w3.org/2000/svg">
<g clip-path="url(#clip0_222_132)">
<path d="M0.663474 7.15939L2.44347 8.45939L1.76747 10.5529C1.65823 10.8776 1.65685 11.2289 1.76353 11.5544C1.87021 11.88 2.07925 12.1623 2.35947 12.3594C2.6349 12.5628 2.96867 12.6717 3.31105 12.67C3.65343 12.6683 3.9861 12.556 4.25947 12.3499L5.99997 11.0689L7.74098 12.3484C8.0159 12.5506 8.34787 12.6605 8.68916 12.6621C9.03045 12.6638 9.36347 12.5572 9.64036 12.3576C9.91724 12.1581 10.1237 11.8759 10.2301 11.5516C10.3365 11.2273 10.3373 10.8777 10.2325 10.5529L9.55648 8.45939L11.3365 7.15939C11.611 6.95864 11.8152 6.67626 11.9196 6.35258C12.0241 6.0289 12.0237 5.68048 11.9183 5.35708C11.813 5.03368 11.6081 4.75185 11.333 4.55184C11.0579 4.35183 10.7266 4.24387 10.3865 4.24339H8.19998L7.53648 2.17539C7.43214 1.84987 7.22711 1.5659 6.95096 1.36442C6.67481 1.16295 6.34181 1.05438 5.99997 1.05438C5.65814 1.05438 5.32514 1.16295 5.04899 1.36442C4.77284 1.5659 4.56781 1.84987 4.46347 2.17539L3.79997 4.24339H1.61547C1.27535 4.24387 0.94407 4.35183 0.668964 4.55184C0.393858 4.75185 0.188995 5.03368 0.0836351 5.35708C-0.0217246 5.68048 -0.0221909 6.0289 0.0823027 6.35258C0.186796 6.67626 0.390905 6.95864 0.665474 7.15939H0.663474Z" fill="#FFD12B"/>
</g>
<defs>
<clipPath id="clip0_222_132">
<rect width="12" height="12" fill="white" transform="translate(0 0.959412)"/>
</clipPath>
</defs>
</svg>
