<svg width="12" height="12" viewBox="0 0 12 12" fill="none" xmlns="http://www.w3.org/2000/svg">
<g clip-path="url(#clip0_222_1325)">
<path d="M0.663474 6.20022L2.44347 7.50022L1.76747 9.59372C1.65823 9.91842 1.65685 10.2697 1.76353 10.5953C1.87021 10.9208 2.07925 11.2032 2.35947 11.4002C2.6349 11.6036 2.96867 11.7126 3.31105 11.7109C3.65343 11.7091 3.9861 11.5969 4.25947 11.3907L5.99997 10.1097L7.74098 11.3892C8.0159 11.5914 8.34787 11.7013 8.68916 11.703C9.03045 11.7046 9.36347 11.598 9.64036 11.3985C9.91724 11.1989 10.1237 10.9167 10.2301 10.5925C10.3365 10.2682 10.3373 9.91851 10.2325 9.59372L9.55648 7.50022L11.3365 6.20022C11.611 5.99948 11.8152 5.7171 11.9196 5.39342C12.0241 5.06974 12.0237 4.72131 11.9183 4.39792C11.813 4.07452 11.6081 3.79268 11.333 3.59267C11.0579 3.39266 10.7266 3.28471 10.3865 3.28422H8.19998L7.53648 1.21622C7.43214 0.8907 7.22711 0.606728 6.95096 0.405254C6.67481 0.20378 6.34181 0.0952148 5.99997 0.0952148C5.65814 0.0952148 5.32514 0.20378 5.04899 0.405254C4.77284 0.606728 4.56781 0.8907 4.46347 1.21622L3.79997 3.28422H1.61547C1.27535 3.28471 0.94407 3.39266 0.668964 3.59267C0.393858 3.79268 0.188995 4.07452 0.0836351 4.39792C-0.0217246 4.72131 -0.0221909 5.06974 0.0823027 5.39342C0.186796 5.7171 0.390905 5.99948 0.665474 6.20022H0.663474Z" fill="#FFD12B"/>
</g>
<defs>
<clipPath id="clip0_222_1325">
<rect width="12" height="12" fill="white"/>
</clipPath>
</defs>
</svg>
