<svg width="16" height="29" viewBox="0 0 16 29" fill="none" xmlns="http://www.w3.org/2000/svg">
<path d="M2.86431 13.6331C1.97219 12.8091 1.29172 11.7822 0.880479 10.6395C0.469239 9.49678 0.339335 8.2718 0.501762 7.06824C0.662366 5.84785 1.11649 4.68461 1.82522 3.67821C2.53395 2.67181 3.47613 1.85226 4.57103 1.28982C5.66592 0.727383 6.88087 0.438818 8.11174 0.448862C9.3426 0.458905 10.5527 0.767258 11.6383 1.34749C12.7238 1.92772 13.6525 2.76253 14.3447 3.78036C15.0369 4.7982 15.472 5.9687 15.6127 7.19154C15.7533 8.41438 15.5954 9.6531 15.1524 10.8015C14.7094 11.9499 13.9945 12.9738 13.069 13.7854C12.4731 14.2977 12.0104 14.9471 11.7207 15.6776H8.89714V9.60081C9.39021 9.42649 9.81738 9.10408 10.1202 8.6777C10.423 8.25131 10.5867 7.74178 10.5889 7.2188C10.5889 6.99446 10.4998 6.77931 10.3412 6.62068C10.1825 6.46204 9.96736 6.37292 9.74302 6.37292C9.51868 6.37292 9.30353 6.46204 9.14489 6.62068C8.98626 6.77931 8.89714 6.99446 8.89714 7.2188C8.89714 7.44315 8.80802 7.6583 8.64939 7.81693C8.49075 7.97557 8.2756 8.06469 8.05126 8.06469C7.82692 8.06469 7.61176 7.97557 7.45313 7.81693C7.2945 7.6583 7.20538 7.44315 7.20538 7.2188C7.20538 6.99446 7.11626 6.77931 6.95762 6.62068C6.79899 6.46204 6.58384 6.37292 6.35949 6.37292C6.13515 6.37292 5.92 6.46204 5.76137 6.62068C5.60273 6.77931 5.51361 6.99446 5.51361 7.2188C5.51578 7.74178 5.67948 8.25131 5.9823 8.6777C6.28513 9.10408 6.7123 9.42649 7.20538 9.60081V15.6776H4.29808C3.9747 14.8999 3.48538 14.2021 2.86431 13.6331ZM4.66773 17.3694V17.6316C4.66863 18.4592 4.99776 19.2526 5.58293 19.8377C6.16809 20.4229 6.96149 20.752 7.78903 20.7529H8.31348C9.14103 20.752 9.93442 20.4229 10.5196 19.8377C11.1048 19.2526 11.4339 18.4592 11.4348 17.6316V17.3694H4.66773Z" fill="black"/>
<path d="M3.51396 27.918V25.1081H2.40137V24.2957H5.64598V25.1081H4.53857V27.918H3.51396Z" fill="black"/>
<path d="M5.98113 27.918V25.1133H6.96434V27.918H5.98113ZM6.47273 24.8028C6.29334 24.8028 6.14844 24.7528 6.03805 24.6527C5.92765 24.5527 5.87245 24.4285 5.87245 24.2801C5.87245 24.1318 5.92765 24.0076 6.03805 23.9076C6.14844 23.8075 6.29334 23.7575 6.47273 23.7575C6.65213 23.7575 6.79702 23.8058 6.90742 23.9024C7.01781 23.9955 7.07301 24.1163 7.07301 24.2646C7.07301 24.4199 7.01781 24.5492 6.90742 24.6527C6.80047 24.7528 6.65558 24.8028 6.47273 24.8028Z" fill="black"/>
<path d="M9.36792 27.9646C9.12987 27.9646 8.92633 27.9129 8.75729 27.8094C8.58824 27.7024 8.45887 27.5437 8.36918 27.3333C8.28293 27.1194 8.23981 26.8469 8.23981 26.5157C8.23981 26.181 8.28121 25.9085 8.364 25.698C8.4468 25.4842 8.57099 25.3255 8.73659 25.222C8.90563 25.1185 9.11607 25.0667 9.36792 25.0667C9.62321 25.0667 9.85435 25.1271 10.0613 25.2478C10.2718 25.3651 10.4374 25.5325 10.5581 25.7498C10.6823 25.9637 10.7444 26.219 10.7444 26.5157C10.7444 26.8124 10.6823 27.0694 10.5581 27.2867C10.4374 27.5041 10.2718 27.6714 10.0613 27.7887C9.85435 27.906 9.62321 27.9646 9.36792 27.9646ZM7.60331 28.9219V25.1133H8.53995V25.5894L8.53477 26.5157L8.58652 27.4471V28.9219H7.60331ZM9.16092 27.1832C9.27132 27.1832 9.36964 27.1573 9.45589 27.1056C9.54558 27.0538 9.61631 26.9779 9.66805 26.8779C9.72325 26.7779 9.75085 26.6571 9.75085 26.5157C9.75085 26.3742 9.72325 26.2535 9.66805 26.1534C9.61631 26.0534 9.54558 25.9775 9.45589 25.9257C9.36964 25.874 9.27132 25.8481 9.16092 25.8481C9.05053 25.8481 8.95048 25.874 8.86078 25.9257C8.77454 25.9775 8.70382 26.0534 8.64862 26.1534C8.59687 26.2535 8.571 26.3742 8.571 26.5157C8.571 26.6571 8.59687 26.7779 8.64862 26.8779C8.70382 26.9779 8.77454 27.0538 8.86078 27.1056C8.95048 27.1573 9.05053 27.1832 9.16092 27.1832Z" fill="black"/>
<path d="M12.2209 27.9646C11.9828 27.9646 11.7499 27.937 11.5223 27.8818C11.298 27.8266 11.1169 27.7576 10.9789 27.6748L11.2739 27.0021C11.405 27.0814 11.5585 27.1453 11.7344 27.1936C11.9104 27.2384 12.0829 27.2608 12.2519 27.2608C12.4175 27.2608 12.5313 27.2436 12.5934 27.2091C12.659 27.1746 12.6918 27.128 12.6918 27.0694C12.6918 27.0142 12.6607 26.9745 12.5986 26.9503C12.54 26.9227 12.4606 26.902 12.3606 26.8882C12.264 26.8744 12.157 26.8589 12.0397 26.8417C11.9224 26.8244 11.8034 26.802 11.6827 26.7744C11.5654 26.7434 11.4567 26.6985 11.3567 26.6399C11.2601 26.5778 11.1824 26.495 11.1238 26.3915C11.0651 26.288 11.0358 26.1569 11.0358 25.9982C11.0358 25.8188 11.0876 25.6601 11.1911 25.5221C11.298 25.3807 11.4533 25.2703 11.6568 25.1909C11.8603 25.1081 12.1087 25.0667 12.402 25.0667C12.5986 25.0667 12.797 25.0874 12.9971 25.1288C13.2006 25.1668 13.3714 25.2254 13.5094 25.3048L13.2144 25.9723C13.0764 25.893 12.9384 25.8395 12.8004 25.8119C12.6624 25.7808 12.5313 25.7653 12.4071 25.7653C12.2416 25.7653 12.1243 25.7843 12.0553 25.8222C11.9897 25.8602 11.9569 25.9068 11.9569 25.962C11.9569 26.0172 11.9863 26.0603 12.0449 26.0913C12.1036 26.1189 12.1812 26.1414 12.2778 26.1586C12.3778 26.1724 12.4865 26.1879 12.6038 26.2052C12.7211 26.219 12.8384 26.2414 12.9557 26.2724C13.0764 26.3035 13.1851 26.3501 13.2817 26.4122C13.3817 26.4708 13.4611 26.5519 13.5197 26.6554C13.5784 26.7554 13.6077 26.8848 13.6077 27.0435C13.6077 27.216 13.5542 27.3712 13.4473 27.5092C13.3438 27.6472 13.1885 27.7576 12.9815 27.8404C12.778 27.9232 12.5244 27.9646 12.2209 27.9646Z" fill="black"/>
</svg>
