<svg width="22" height="29" viewBox="0 0 22 29" fill="none" xmlns="http://www.w3.org/2000/svg">
<path d="M19.8324 18.2137H5.4524C4.89154 18.2137 4.35366 17.9909 3.95708 17.5943C3.56049 17.1977 3.33769 16.6599 3.33769 16.099V1.71902C3.33769 1.38251 3.20402 1.05978 2.96606 0.821825C2.72811 0.583874 2.40538 0.450195 2.06887 0.450195C1.73236 0.450195 1.40963 0.583874 1.17168 0.821825C0.933728 1.05978 0.800049 1.38251 0.800049 1.71902V16.099C0.801392 17.3325 1.29198 18.515 2.16417 19.3872C3.03637 20.2594 4.21893 20.75 5.4524 20.7514H19.8324C20.1689 20.7514 20.4916 20.6177 20.7296 20.3797C20.9675 20.1418 21.1012 19.8191 21.1012 19.4825C21.1012 19.146 20.9675 18.8233 20.7296 18.5853C20.4916 18.3474 20.1689 18.2137 19.8324 18.2137Z" fill="black"/>
<path d="M19.8324 3.81342H17.222C17.0547 3.81346 16.8912 3.86309 16.7521 3.95604C16.6131 4.04899 16.5047 4.18108 16.4407 4.33562C16.3767 4.49017 16.3599 4.66022 16.3925 4.82428C16.4252 4.98834 16.5057 5.13904 16.624 5.25734L17.244 5.87653L14.2098 8.90901C14.1705 8.9484 14.1239 8.97965 14.0725 9.00097C14.0211 9.02229 13.966 9.03327 13.9104 9.03327C13.8547 9.03327 13.7997 9.02229 13.7483 9.00097C13.6969 8.97965 13.6502 8.9484 13.6109 8.90901L13.4671 8.76521C12.9032 8.22653 12.1534 7.92593 11.3736 7.92593C10.5937 7.92593 9.8439 8.22653 9.28001 8.76521L5.8119 12.2333C5.69071 12.3504 5.59405 12.4904 5.52755 12.6452C5.46106 12.8 5.42605 12.9665 5.42459 13.135C5.42313 13.3034 5.45523 13.4705 5.51903 13.6264C5.58282 13.7824 5.67704 13.924 5.79617 14.0432C5.9153 14.1623 6.05697 14.2565 6.2129 14.3203C6.36884 14.3841 6.53592 14.4162 6.70439 14.4148C6.87286 14.4133 7.03936 14.3783 7.19416 14.3118C7.34896 14.2453 7.48897 14.1486 7.60601 14.0274L11.0741 10.5593C11.1134 10.5199 11.1601 10.4887 11.2115 10.4674C11.2629 10.4461 11.3179 10.4351 11.3736 10.4351C11.4292 10.4351 11.4843 10.4461 11.5357 10.4674C11.5871 10.4887 11.6337 10.5199 11.673 10.5593L11.8168 10.7031C12.3809 11.2414 13.1307 11.5418 13.9104 11.5418C14.6901 11.5418 15.4398 11.2414 16.0039 10.7031L19.0373 7.67064L19.6564 8.29067C19.7747 8.40923 19.9255 8.49002 20.0897 8.52281C20.2539 8.5556 20.4241 8.53891 20.5788 8.47487C20.7336 8.41083 20.8658 8.30231 20.9588 8.16306C21.0518 8.0238 21.1013 7.86008 21.1012 7.69264V5.08224C21.1012 4.74573 20.9675 4.423 20.7296 4.18505C20.4916 3.9471 20.1689 3.81342 19.8324 3.81342Z" fill="black"/>
<path d="M2.9321 27.9889C2.39737 27.9889 1.97993 27.8423 1.67979 27.5491C1.37966 27.2558 1.22959 26.8401 1.22959 26.3019V24.2941H2.2542V26.2709C2.2542 26.5814 2.31457 26.8039 2.43532 26.9384C2.55951 27.073 2.72855 27.1403 2.94245 27.1403C3.15634 27.1403 3.32366 27.073 3.4444 26.9384C3.56515 26.8039 3.62552 26.5814 3.62552 26.2709V24.2941H4.63461V26.3019C4.63461 26.8401 4.48454 27.2558 4.1844 27.5491C3.88426 27.8423 3.46683 27.9889 2.9321 27.9889Z" fill="black"/>
<path d="M7.04676 27.9631C6.80871 27.9631 6.60517 27.9113 6.43613 27.8078C6.26709 27.7009 6.13771 27.5422 6.04802 27.3317C5.96177 27.1178 5.91865 26.8453 5.91865 26.5141C5.91865 26.1795 5.96005 25.9069 6.04284 25.6965C6.12564 25.4826 6.24984 25.3239 6.41543 25.2204C6.58447 25.1169 6.79492 25.0652 7.04676 25.0652C7.30205 25.0652 7.53319 25.1255 7.74018 25.2463C7.95062 25.3636 8.11622 25.5309 8.23696 25.7482C8.36116 25.9621 8.42325 26.2174 8.42325 26.5141C8.42325 26.8108 8.36116 27.0678 8.23696 27.2852C8.11622 27.5025 7.95062 27.6698 7.74018 27.7871C7.53319 27.9044 7.30205 27.9631 7.04676 27.9631ZM5.28215 28.9204V25.1117H6.21879V25.5878L6.21361 26.5141L6.26536 27.4456V28.9204H5.28215ZM6.83976 27.1817C6.95016 27.1817 7.04848 27.1558 7.13473 27.104C7.22442 27.0523 7.29515 26.9764 7.34689 26.8763C7.40209 26.7763 7.42969 26.6555 7.42969 26.5141C7.42969 26.3727 7.40209 26.2519 7.34689 26.1519C7.29515 26.0518 7.22442 25.9759 7.13473 25.9242C7.04848 25.8724 6.95016 25.8466 6.83976 25.8466C6.72937 25.8466 6.62932 25.8724 6.53962 25.9242C6.45338 25.9759 6.38266 26.0518 6.32746 26.1519C6.27571 26.2519 6.24984 26.3727 6.24984 26.5141C6.24984 26.6555 6.27571 26.7763 6.32746 26.8763C6.38266 26.9764 6.45338 27.0523 6.53962 27.104C6.62932 27.1558 6.72937 27.1817 6.83976 27.1817Z" fill="black"/>
<path d="M9.89969 27.9631C9.66165 27.9631 9.42878 27.9355 9.20109 27.8803C8.97685 27.8251 8.79573 27.7561 8.65774 27.6733L8.9527 27.0005C9.0838 27.0799 9.23732 27.1437 9.41326 27.192C9.5892 27.2369 9.7617 27.2593 9.93074 27.2593C10.0963 27.2593 10.2102 27.242 10.2723 27.2075C10.3378 27.173 10.3706 27.1265 10.3706 27.0678C10.3706 27.0126 10.3395 26.9729 10.2775 26.9488C10.2188 26.9212 10.1395 26.9005 10.0394 26.8867C9.94281 26.8729 9.83587 26.8574 9.71857 26.8401C9.60128 26.8229 9.48226 26.8004 9.36151 26.7728C9.24422 26.7418 9.13555 26.6969 9.0355 26.6383C8.9389 26.5762 8.86128 26.4934 8.80263 26.3899C8.74398 26.2864 8.71466 26.1553 8.71466 25.9966C8.71466 25.8172 8.76641 25.6585 8.8699 25.5205C8.97685 25.3791 9.1321 25.2687 9.33564 25.1894C9.53918 25.1066 9.78757 25.0652 10.0808 25.0652C10.2775 25.0652 10.4758 25.0859 10.6759 25.1273C10.8795 25.1652 11.0502 25.2239 11.1882 25.3032L10.8933 25.9708C10.7553 25.8914 10.6173 25.8379 10.4793 25.8103C10.3413 25.7793 10.2102 25.7638 10.086 25.7638C9.92039 25.7638 9.80309 25.7827 9.7341 25.8207C9.66855 25.8586 9.63578 25.9052 9.63578 25.9604C9.63578 26.0156 9.6651 26.0587 9.72375 26.0898C9.7824 26.1174 9.86002 26.1398 9.95661 26.157C10.0567 26.1708 10.1653 26.1864 10.2826 26.2036C10.3999 26.2174 10.5172 26.2398 10.6345 26.2709C10.7553 26.3019 10.8639 26.3485 10.9605 26.4106C11.0606 26.4693 11.1399 26.5503 11.1986 26.6538C11.2572 26.7539 11.2865 26.8832 11.2865 27.0419C11.2865 27.2144 11.2331 27.3697 11.1261 27.5077C11.0226 27.6457 10.8674 27.7561 10.6604 27.8389C10.4568 27.9217 10.2033 27.9631 9.89969 27.9631Z" fill="black"/>
<path d="M12.5278 27.399L12.5537 26.2243L13.6974 25.1117H14.8617L13.5939 26.421L13.0919 26.8246L12.5278 27.399ZM11.7102 27.9165V24.0768H12.6934V27.9165H11.7102ZM13.7698 27.9165L12.9108 26.8401L13.5214 26.0846L14.96 27.9165H13.7698Z" fill="black"/>
<path d="M15.2578 27.9165V25.1117H16.241V27.9165H15.2578ZM15.7494 24.8012C15.57 24.8012 15.4251 24.7512 15.3147 24.6512C15.2043 24.5511 15.1491 24.4269 15.1491 24.2786C15.1491 24.1302 15.2043 24.006 15.3147 23.906C15.4251 23.806 15.57 23.7559 15.7494 23.7559C15.9288 23.7559 16.0737 23.8042 16.1841 23.9008C16.2945 23.994 16.3497 24.1147 16.3497 24.2631C16.3497 24.4183 16.2945 24.5477 16.1841 24.6512C16.0771 24.7512 15.9322 24.8012 15.7494 24.8012Z" fill="black"/>
<path d="M16.88 27.9165V24.0768H17.8632V27.9165H16.88Z" fill="black"/>
<path d="M18.5022 27.9165V24.0768H19.4854V27.9165H18.5022Z" fill="black"/>
</svg>
