<svg width="13" height="13" viewBox="0 0 13 13" fill="none" xmlns="http://www.w3.org/2000/svg">
<path d="M11.572 5.9757C11.4099 5.5693 11.1769 5.1898 10.8855 4.85786V3.07327C10.8855 2.7764 10.7522 2.50066 10.5192 2.3162C10.2901 2.1351 9.99714 2.06976 9.71334 2.13654C8.83843 2.3455 8.18213 2.84221 7.83073 3.55172H5.2597C4.02237 3.55172 2.9116 4.108 2.18243 4.97796C1.60715 4.89389 1.67666 4.03114 2.25578 4.0321C2.88236 4.0297 2.88284 3.07375 2.25578 3.07135C0.72889 3.06654 0.276336 5.18788 1.6479 5.81381C0.804635 7.55277 1.53812 9.79228 3.21458 10.7194V10.7574C3.21554 12.3671 5.48694 12.7355 6.00901 11.2377H7.13224C7.65431 12.7365 9.92571 12.3661 9.92667 10.7574V10.7132C10.6745 10.2794 11.2551 9.6083 11.572 8.81376C11.9656 8.72969 12.3237 8.4064 12.3237 7.8751V6.91435C12.3237 6.38306 11.9651 6.05976 11.572 5.9757ZM9.44727 6.91435C8.82021 6.91147 8.82021 5.95648 9.44727 5.9536C10.0743 5.95648 10.0743 6.91147 9.44727 6.91435ZM3.71939 2.83692C3.44997 0.151144 7.42995 -0.108739 7.52967 2.59097H5.26018C4.72278 2.59097 4.2055 2.67984 3.71939 2.83692Z" fill="black"/>
</svg>
