<svg width="42" height="42" viewBox="0 0 42 42" fill="none" xmlns="http://www.w3.org/2000/svg">
<path d="M42 12.25V14H0V12.25C0 7.41825 3.91825 3.5 8.75 3.5H10.5V1.75C10.5 0.784 11.284 0 12.25 0C13.216 0 14 0.784 14 1.75V3.5H28V1.75C28 0.784 28.784 0 29.75 0C30.716 0 31.5 0.784 31.5 1.75V3.5H33.25C38.0818 3.5 42 7.41825 42 12.25ZM42 29.75C42 36.505 36.5033 42 29.75 42C22.9968 42 17.5 36.505 17.5 29.75C17.5 22.995 22.9968 17.5 29.75 17.5C36.5033 17.5 42 22.995 42 29.75ZM33.25 30.7755L31.5 29.0255V26.25C31.5 25.284 30.716 24.5 29.75 24.5C28.784 24.5 28 25.284 28 26.25V29.75C28 30.2138 28.1837 30.66 28.5127 30.9873L30.7755 33.25C31.458 33.9325 32.5675 33.9325 33.25 33.25C33.9325 32.5675 33.9325 31.458 33.25 30.7755ZM14 29.75C14 24.7993 16.289 20.3875 19.8607 17.5H0V33.25C0 38.0818 3.91825 42 8.75 42H19.8607C16.289 39.1125 14 34.7008 14 29.75Z" fill="black"/>
</svg>
