<svg width="13" height="13" viewBox="0 0 13 13" fill="none" xmlns="http://www.w3.org/2000/svg">
<path d="M6.36179 0.689941C4.83813 0.691336 3.37734 1.19535 2.2999 2.09143C1.22245 2.9875 0.616331 4.20246 0.614502 5.46976C0.614502 6.70064 1.76039 8.62693 4.02049 11.195C4.28955 11.5016 4.64184 11.751 5.04868 11.9229C5.45553 12.0949 5.90543 12.1845 6.36179 12.1845C6.81814 12.1845 7.26805 12.0949 7.67489 11.9229C8.08174 11.751 8.43402 11.5016 8.70308 11.195C10.9632 8.62693 12.1091 6.70064 12.1091 5.46976C12.1072 4.20246 11.5011 2.9875 10.4237 2.09143C9.34623 1.19535 7.88545 0.691336 6.36179 0.689941ZM6.36179 7.37498C5.90624 7.37498 5.46092 7.26262 5.08215 7.05212C4.70337 6.84161 4.40815 6.54241 4.23382 6.19235C4.05949 5.84229 4.01388 5.4571 4.10275 5.08548C4.19163 4.71386 4.41099 4.3725 4.73311 4.10458C5.05524 3.83665 5.46564 3.6542 5.91244 3.58028C6.35923 3.50636 6.82235 3.54429 7.24322 3.68929C7.66409 3.83429 8.02381 4.07984 8.2769 4.39488C8.52999 4.70993 8.66508 5.08032 8.66508 5.45922C8.66508 5.96731 8.42241 6.4546 7.99046 6.81387C7.55851 7.17314 6.97266 7.37498 6.36179 7.37498Z" fill="black"/>
</svg>
