<svg width="39" height="39" viewBox="0 0 39 39" fill="none" xmlns="http://www.w3.org/2000/svg">
<path d="M39 19.7322C39 30.3736 30.2696 39.0001 19.5 39.0001C8.73045 39.0001 0 30.3736 0 19.7322C0 9.09087 8.73045 0.464355 19.5 0.464355C30.2696 0.464355 39 9.09087 39 19.7322Z" fill="#FFD12B"/>
<path d="M29.2196 23.6786C29.0326 23.6786 28.8474 23.642 28.6746 23.571C28.5018 23.4999 28.3449 23.3958 28.2127 23.2646L20.9326 16.0457C20.7123 15.8272 20.4507 15.6538 20.1628 15.5356C19.875 15.4173 19.5664 15.3564 19.2548 15.3564C18.9431 15.3564 18.6346 15.4173 18.3467 15.5356C18.0588 15.6538 17.7972 15.8272 17.5769 16.0457L10.3054 23.2561C10.0369 23.5132 9.67729 23.6555 9.30404 23.6523C8.93079 23.6491 8.57374 23.5006 8.30981 23.2389C8.04587 22.9772 7.89615 22.6231 7.89291 22.253C7.88967 21.8829 8.03315 21.5263 8.29246 21.2601L15.564 14.0497C16.5435 13.0803 17.8708 12.5358 19.2548 12.5358C20.6387 12.5358 21.9661 13.0803 22.9455 14.0497L30.2265 21.2695C30.4254 21.467 30.5608 21.7185 30.6156 21.9922C30.6704 22.266 30.6421 22.5497 30.5344 22.8075C30.4266 23.0653 30.2442 23.2857 30.0102 23.4407C29.7762 23.5958 29.5011 23.6786 29.2196 23.6786Z" fill="black"/>
</svg>
