<svg width="15" height="15" viewBox="0 0 15 15" fill="none" xmlns="http://www.w3.org/2000/svg">
<g style="mix-blend-mode:multiply">
<path d="M10.1416 7.25792L14.5055 2.88954C14.7888 2.56752 14.9389 2.14969 14.9252 1.72099C14.9115 1.29229 14.7351 0.884893 14.4318 0.581602C14.1285 0.27831 13.7211 0.101891 13.2924 0.0882039C12.8637 0.0745167 12.4459 0.224589 12.1239 0.507915L7.75549 4.87179L3.37924 0.494415C3.22249 0.337666 3.0364 0.213326 2.8316 0.128494C2.6268 0.0436625 2.40729 1.65163e-09 2.18561 0C1.96394 -1.65161e-09 1.74443 0.0436625 1.53963 0.128494C1.33483 0.213326 1.14874 0.337666 0.991988 0.494415C0.835239 0.651164 0.710899 0.837253 0.626067 1.04206C0.541235 1.24686 0.497573 1.46636 0.497573 1.68804C0.497573 1.90972 0.541235 2.12922 0.626067 2.33403C0.710899 2.53883 0.835239 2.72492 0.991988 2.88166L5.36936 7.25792L1.00549 11.6252C0.834345 11.7782 0.696214 11.9644 0.599547 12.1727C0.50288 12.3809 0.449709 12.6066 0.443287 12.8361C0.436866 13.0655 0.477328 13.2939 0.562199 13.5072C0.64707 13.7205 0.774565 13.9142 0.936884 14.0765C1.0992 14.2388 1.29293 14.3663 1.50622 14.4512C1.71951 14.5361 1.94787 14.5765 2.17734 14.5701C2.4068 14.5637 2.63254 14.5105 2.84075 14.4139C3.04896 14.3172 3.23525 14.1791 3.38824 14.0079L7.75549 9.64404L12.1182 14.0079C12.4348 14.3245 12.8642 14.5023 13.3119 14.5023C13.7596 14.5023 14.1889 14.3245 14.5055 14.0079C14.8221 13.6913 14.9999 13.262 14.9999 12.8143C14.9999 12.3666 14.8221 11.9372 14.5055 11.6207L10.1416 7.25792Z" fill="black"/>
</g>
</svg>
