<svg width="16" height="19" viewBox="0 0 16 19" fill="none" xmlns="http://www.w3.org/2000/svg">
<path d="M7.68164 0.856445C5.69332 0.858629 3.78705 1.6479 2.38102 3.05111C0.974994 4.45433 0.184027 6.35689 0.181641 8.34143C0.181641 10.2689 1.67698 13.2854 4.62634 17.3069C4.97745 17.787 5.43717 18.1776 5.96809 18.4468C6.499 18.7161 7.08611 18.8564 7.68164 18.8564C8.27717 18.8564 8.86428 18.7161 9.3952 18.4468C9.92611 18.1776 10.3858 17.787 10.7369 17.3069C13.6863 13.2854 15.1816 10.2689 15.1816 8.34143C15.1793 6.35689 14.3883 4.45433 12.9823 3.05111C11.5762 1.6479 9.66996 0.858629 7.68164 0.856445ZM7.68164 11.3249C7.08717 11.3249 6.50604 11.149 6.01176 10.8193C5.51747 10.4897 5.13222 10.0212 4.90473 9.47298C4.67723 8.9248 4.61771 8.32161 4.73368 7.73966C4.84966 7.15772 5.13593 6.62317 5.55628 6.20362C5.97664 5.78406 6.5122 5.49834 7.09526 5.38258C7.67831 5.26683 8.28265 5.32624 8.83188 5.5533C9.3811 5.78036 9.85052 6.16488 10.1808 6.65823C10.5111 7.15157 10.6874 7.73159 10.6874 8.32493C10.6874 9.12058 10.3707 9.88364 9.807 10.4463C9.24332 11.0089 8.4788 11.3249 7.68164 11.3249Z" fill="black"/>
</svg>
