<svg width="12" height="12" viewBox="0 0 12 12" fill="none" xmlns="http://www.w3.org/2000/svg">
<path d="M8.134 6.10013L11.4465 2.7842C11.6616 2.53976 11.7755 2.2226 11.7651 1.89719C11.7547 1.57177 11.6208 1.26252 11.3906 1.0323C11.1604 0.802079 10.8511 0.668163 10.5257 0.657774C10.2003 0.647384 9.88311 0.7613 9.63867 0.976367L6.32275 4.28888L3.00084 0.966119C2.88185 0.847135 2.7406 0.752751 2.58514 0.688357C2.42968 0.623963 2.26306 0.59082 2.09479 0.59082C1.92652 0.59082 1.7599 0.623963 1.60444 0.688357C1.44897 0.752751 1.30772 0.847135 1.18874 0.966119C1.06975 1.0851 0.975367 1.22636 0.910974 1.38182C0.84658 1.53728 0.813436 1.7039 0.813437 1.87217C0.813437 2.04044 0.84658 2.20706 0.910974 2.36252C0.975367 2.51798 1.06975 2.65924 1.18874 2.77822L4.5115 6.10013L1.19898 9.4152C1.06907 9.53133 0.96422 9.67275 0.890843 9.83079C0.817465 9.98884 0.777105 10.1602 0.77223 10.3344C0.767355 10.5086 0.798069 10.6819 0.862493 10.8438C0.926916 11.0057 1.02369 11.1528 1.14691 11.276C1.27012 11.3992 1.41718 11.496 1.57908 11.5604C1.74098 11.6248 1.91432 11.6555 2.0885 11.6506C2.26268 11.6458 2.43404 11.6054 2.59208 11.532C2.75013 11.4587 2.89154 11.3538 3.00767 11.2239L6.32275 7.91138L9.6344 11.2239C9.8747 11.4642 10.2006 11.5992 10.5405 11.5992C10.8803 11.5992 11.2062 11.4642 11.4465 11.2239C11.6868 10.9836 11.8218 10.6577 11.8218 10.3178C11.8218 9.978 11.6868 9.65209 11.4465 9.41179L8.134 6.10013Z" fill="black"/>
</svg>
