<svg width="21" height="21" viewBox="0 0 21 21" fill="none" xmlns="http://www.w3.org/2000/svg">
<path d="M4.17639 9.6733H0.586182C0.587494 8.57747 1.02339 7.5269 1.79826 6.75203C2.57312 5.97716 3.62369 5.54127 4.71952 5.53995H9.67951V1.93237C9.67966 1.70481 9.7372 1.48097 9.84679 1.28154C9.95638 1.08211 10.1145 0.913534 10.3065 0.791407C10.4985 0.66928 10.7182 0.597544 10.9453 0.582833C11.1724 0.568122 11.3995 0.610912 11.6056 0.707245L14.251 1.94725C14.3706 2.02139 14.4693 2.12484 14.5378 2.24781C14.6062 2.37077 14.6422 2.50918 14.6422 2.64992C14.6422 2.79066 14.6062 2.92906 14.5378 3.05203C14.4693 3.175 14.3706 3.27845 14.251 3.35259L11.3328 4.71328V5.53995H16.2928C17.3887 5.54127 18.4392 5.97716 19.2141 6.75203C19.989 7.5269 20.4249 8.57747 20.4262 9.6733H16.836C16.1901 9.67347 15.5697 9.42167 15.1066 8.97146L12.8448 6.50881C12.2127 5.89915 11.3674 5.56054 10.4892 5.56517C9.61093 5.56981 8.76925 5.91731 8.14357 6.53361L5.92976 8.94666C5.46391 9.41048 4.83377 9.67163 4.17639 9.6733ZM10.5062 16.2867C10.2869 16.2867 10.0767 16.3737 9.92164 16.5288C9.76661 16.6838 9.67951 16.8941 9.67951 17.1133V20.42H11.3328V17.1133C11.3328 16.8941 11.2458 16.6838 11.0907 16.5288C10.9357 16.3737 10.7254 16.2867 10.5062 16.2867ZM16.836 11.3266H20.4262V17.94C20.4262 18.5977 20.1649 19.2285 19.6998 19.6936C19.2347 20.1587 18.6039 20.42 17.9462 20.42H12.9862V17.1133C12.9862 16.4556 12.7249 15.8248 12.2598 15.3597C11.7947 14.8946 11.1639 14.6333 10.5062 14.6333C9.84844 14.6333 9.21765 14.8946 8.75256 15.3597C8.28747 15.8248 8.02618 16.4556 8.02618 17.1133V20.42H3.06618C2.40844 20.42 1.77765 20.1587 1.31256 19.6936C0.847467 19.2285 0.586182 18.5977 0.586182 17.94V11.3266H4.17639C4.7251 11.3268 5.26834 11.2176 5.77436 11.0054C6.28038 10.7932 6.73901 10.4823 7.12346 10.0908L9.33728 7.67772C9.64987 7.38443 10.0612 7.21915 10.4898 7.21455C10.9184 7.20996 11.3331 7.3664 11.6519 7.65292L13.9154 10.1156C14.298 10.5004 14.7531 10.8056 15.2544 11.0134C15.7557 11.2213 16.2933 11.3278 16.836 11.3266ZM5.54618 17.94C5.54618 17.7207 5.45909 17.5105 5.30406 17.3554C5.14903 17.2004 4.93876 17.1133 4.71952 17.1133H3.89285C3.6736 17.1133 3.46334 17.2004 3.30831 17.3554C3.15328 17.5105 3.06618 17.7207 3.06618 17.94C3.06618 18.1592 3.15328 18.3695 3.30831 18.5245C3.46334 18.6796 3.6736 18.7667 3.89285 18.7667H4.71952C4.93876 18.7667 5.14903 18.6796 5.30406 18.5245C5.45909 18.3695 5.54618 18.1592 5.54618 17.94ZM5.54618 14.6333C5.54618 14.4141 5.45909 14.2038 5.30406 14.0488C5.14903 13.8937 4.93876 13.8066 4.71952 13.8066H3.89285C3.6736 13.8066 3.46334 13.8937 3.30831 14.0488C3.15328 14.2038 3.06618 14.4141 3.06618 14.6333C3.06618 14.8526 3.15328 15.0628 3.30831 15.2179C3.46334 15.3729 3.6736 15.46 3.89285 15.46H4.71952C4.93876 15.46 5.14903 15.3729 5.30406 15.2179C5.45909 15.0628 5.54618 14.8526 5.54618 14.6333ZM12.1595 11.3266C12.1595 10.9996 12.0625 10.68 11.8809 10.4081C11.6992 10.1362 11.441 9.92429 11.1389 9.79915C10.8368 9.67402 10.5043 9.64127 10.1836 9.70507C9.86292 9.76886 9.56832 9.92633 9.3371 10.1576C9.10588 10.3888 8.94841 10.6834 8.88462 11.0041C8.82082 11.3248 8.85356 11.6572 8.9787 11.9593C9.10384 12.2615 9.31575 12.5197 9.58764 12.7013C9.85953 12.883 10.1792 12.98 10.5062 12.98C10.9447 12.98 11.3652 12.8058 11.6753 12.4957C11.9853 12.1857 12.1595 11.7651 12.1595 11.3266ZM17.9462 17.94C17.9462 17.7207 17.8591 17.5105 17.7041 17.3554C17.549 17.2004 17.3388 17.1133 17.1195 17.1133H16.2928C16.0736 17.1133 15.8633 17.2004 15.7083 17.3554C15.5533 17.5105 15.4662 17.7207 15.4662 17.94C15.4662 18.1592 15.5533 18.3695 15.7083 18.5245C15.8633 18.6796 16.0736 18.7667 16.2928 18.7667H17.1195C17.3388 18.7667 17.549 18.6796 17.7041 18.5245C17.8591 18.3695 17.9462 18.1592 17.9462 17.94ZM17.1195 13.8066H16.2928C16.0736 13.8066 15.8633 13.8937 15.7083 14.0488C15.5533 14.2038 15.4662 14.4141 15.4662 14.6333C15.4662 14.8526 15.5533 15.0628 15.7083 15.2179C15.8633 15.3729 16.0736 15.46 16.2928 15.46H17.1195C17.3388 15.46 17.549 15.3729 17.7041 15.2179C17.8591 15.0628 17.9462 14.8526 17.9462 14.6333C17.9462 14.4141 17.8591 14.2038 17.7041 14.0488C17.549 13.8937 17.3388 13.8066 17.1195 13.8066Z" fill="black"/>
</svg>
