<svg width="15" height="18" viewBox="0 0 15 18" fill="none" xmlns="http://www.w3.org/2000/svg">
<path d="M7.3543 0.191895C9.28248 0.194051 11.1311 0.973623 12.4946 2.35959C13.8581 3.74556 14.6251 5.62474 14.6274 7.58489C14.6274 9.4887 13.1773 12.4681 10.3172 16.4402C9.9767 16.9144 9.53088 17.3002 9.01603 17.5661C8.50117 17.8321 7.93182 17.9707 7.3543 17.9707C6.77679 17.9707 6.20744 17.8321 5.69258 17.5661C5.17772 17.3002 4.73191 16.9144 4.39142 16.4402C1.53128 12.4681 0.0811668 9.4887 0.0811668 7.58489C0.0834813 5.62474 0.850523 3.74556 2.21402 2.35959C3.57752 0.973623 5.42613 0.194051 7.3543 0.191895ZM7.3543 10.5317C7.9308 10.5317 8.49434 10.3579 8.97368 10.0323C9.45301 9.70675 9.82661 9.24397 10.0472 8.70253C10.2678 8.16109 10.3256 7.56531 10.2131 6.99052C10.1006 6.41573 9.82302 5.88775 9.41537 5.47335C9.00773 5.05895 8.48837 4.77674 7.92295 4.66241C7.35754 4.54807 6.77147 4.60675 6.23886 4.83102C5.70625 5.0553 5.25103 5.43509 4.93074 5.92237C4.61046 6.40965 4.43951 6.98254 4.43951 7.5686C4.43951 8.35446 4.74661 9.10815 5.29323 9.66384C5.83986 10.2195 6.58125 10.5317 7.3543 10.5317Z" fill="black"/>
</svg>
