<svg width="10" height="10" viewBox="0 0 10 10" fill="none" xmlns="http://www.w3.org/2000/svg">
<path d="M6.77948 5.24245L9.4875 2.53164C9.66332 2.33181 9.75645 2.07253 9.74795 1.80649C9.73946 1.54046 9.62998 1.28765 9.44177 1.09944C9.25356 0.911232 9.00075 0.801754 8.73472 0.793261C8.46869 0.784767 8.2094 0.877895 8.00957 1.05371L5.29876 3.76173L2.58307 1.04534C2.48579 0.948065 2.37032 0.870906 2.24323 0.818263C2.11614 0.76562 1.97992 0.738525 1.84236 0.738525C1.7048 0.738525 1.56858 0.76562 1.44149 0.818263C1.3144 0.870906 1.19892 0.948065 1.10165 1.04534C1.00438 1.14261 0.927219 1.25809 0.874577 1.38518C0.821934 1.51227 0.794839 1.64848 0.794839 1.78604C0.794839 1.92361 0.821934 2.05982 0.874577 2.18691C0.927219 2.314 1.00438 2.42948 1.10165 2.52675L3.81804 5.24245L1.11003 7.95256C1.00382 8.0475 0.918107 8.1631 0.858119 8.29231C0.798132 8.42151 0.765137 8.5616 0.761152 8.70399C0.757167 8.84639 0.782276 8.9881 0.834943 9.12045C0.88761 9.25281 0.966728 9.37303 1.06746 9.47376C1.16818 9.57449 1.2884 9.6536 1.42076 9.70627C1.55312 9.75894 1.69483 9.78405 1.83722 9.78006C1.97962 9.77608 2.1197 9.74308 2.2489 9.68309C2.37811 9.62311 2.49371 9.53739 2.58865 9.43118L5.29876 6.72317L8.00608 9.43118C8.20253 9.62763 8.46897 9.738 8.74679 9.738C9.02461 9.738 9.29105 9.62763 9.4875 9.43118C9.68395 9.23474 9.79431 8.9683 9.79431 8.69048C9.79431 8.41266 9.68395 8.14622 9.4875 7.94977L6.77948 5.24245Z" fill="black"/>
</svg>
