<svg width="21" height="20" viewBox="0 0 21 20" fill="none" xmlns="http://www.w3.org/2000/svg">
<path d="M20.4224 6.84356V17.2195C20.4224 17.4584 20.3353 17.6875 20.1803 17.8564C20.0253 18.0253 19.8151 18.1202 19.5959 18.1202C19.3767 18.1202 19.1664 18.0253 19.0114 17.8564C18.8564 17.6875 18.7694 17.4584 18.7694 17.2195V9.79062L12.6532 12.9755C12.0083 13.3903 11.2721 13.6063 10.5233 13.6006C9.73795 13.6019 8.96691 13.3719 8.29168 12.9349L2.19202 9.77081C1.71255 9.48983 1.3108 9.07415 1.02847 8.56691C0.746148 8.05965 0.593524 7.47931 0.58644 6.8861C0.579356 6.29289 0.71807 5.70842 0.988189 5.19333C1.25831 4.67825 1.64999 4.25132 2.12259 3.95684C2.14491 3.94243 2.16888 3.92892 2.19202 3.91631L8.35532 0.711644C9.02071 0.295219 9.77589 0.079473 10.5432 0.0865966C11.3105 0.0937202 12.0622 0.323456 12.721 0.752175L18.8165 3.91631C19.2975 4.20631 19.6994 4.62992 19.9815 5.14407C20.2635 5.65822 20.4157 6.24458 20.4224 6.84356ZM10.5224 15.4001C9.46497 15.4027 8.42568 15.1007 7.5098 14.5247L3.89216 12.6431V15.075C3.89265 16.0365 4.17512 16.9727 4.69836 17.7469C5.22159 18.5211 5.95819 19.0927 6.80065 19.3785C8.00433 19.7551 9.25203 19.9381 10.5042 19.9216C11.7566 19.9369 13.0043 19.7527 14.2078 19.3749C15.0503 19.0891 15.7869 18.5175 16.3101 17.7433C16.8334 16.9691 17.1159 16.0329 17.1163 15.0714V12.6476L13.4309 14.5661C12.5463 15.12 11.5427 15.4084 10.5224 15.4019V15.4001Z" fill="black"/>
</svg>
