<svg width="13" height="13" viewBox="0 0 13 13" fill="none" xmlns="http://www.w3.org/2000/svg">
<path d="M8.8287 6.13684L12.4034 2.55849C12.6355 2.29471 12.7584 1.95245 12.7472 1.60128C12.736 1.25011 12.5914 0.916387 12.343 0.667947C12.0946 0.419506 11.7608 0.274992 11.4097 0.26378C11.0585 0.252569 10.7162 0.3755 10.4525 0.607587L6.87411 4.18225L3.28931 0.596528C3.16091 0.468127 3.00848 0.366274 2.84071 0.296784C2.67295 0.227294 2.49314 0.191528 2.31155 0.191528C2.12997 0.191528 1.95016 0.227294 1.7824 0.296784C1.61463 0.366274 1.4622 0.468127 1.3338 0.596528C1.2054 0.724929 1.10354 0.877363 1.03405 1.04513C0.964564 1.21289 0.928798 1.3927 0.928798 1.57428C0.928798 1.75587 0.964564 1.93568 1.03405 2.10344C1.10354 2.27121 1.2054 2.42364 1.3338 2.55204L4.91952 6.13684L1.34486 9.71427C1.20466 9.83959 1.09151 9.99219 1.01233 10.1627C0.933145 10.3333 0.889591 10.5182 0.88433 10.7062C0.87907 10.8941 0.912214 11.0812 0.981736 11.2559C1.05126 11.4306 1.1557 11.5893 1.28866 11.7223C1.42162 11.8553 1.58032 11.9597 1.75503 12.0292C1.92975 12.0987 2.11681 12.1319 2.30477 12.1266C2.49274 12.1214 2.67765 12.0778 2.84821 11.9986C3.01876 11.9194 3.17136 11.8063 3.29668 11.6661L6.87411 8.09143L10.4479 11.6661C10.7072 11.9254 11.0589 12.0711 11.4256 12.0711C11.7923 12.0711 12.1441 11.9254 12.4034 11.6661C12.6627 11.4068 12.8084 11.0551 12.8084 10.6883C12.8084 10.3216 12.6627 9.9699 12.4034 9.71059L8.8287 6.13684Z" fill="black"/>
</svg>
