<svg width="17" height="19" viewBox="0 0 17 19" fill="none" xmlns="http://www.w3.org/2000/svg">
<path d="M8.7069 0.5C6.51991 0.502183 4.42317 1.29146 2.87666 2.69467C1.33014 4.09789 0.460145 6.00046 0.45752 7.985C0.45752 9.9125 2.10227 12.929 5.34632 16.9505C5.73251 17.4306 6.23817 17.8212 6.82213 18.0904C7.4061 18.3597 8.05187 18.5 8.7069 18.5C9.36193 18.5 10.0077 18.3597 10.5917 18.0904C11.1756 17.8212 11.6813 17.4306 12.0675 16.9505C15.3115 12.929 16.9563 9.9125 16.9563 7.985C16.9537 6.00046 16.0837 4.09789 14.5371 2.69467C12.9906 1.29146 10.8939 0.502183 8.7069 0.5ZM8.7069 10.9685C8.05303 10.9685 7.41384 10.7926 6.87017 10.4629C6.32649 10.1333 5.90275 9.66473 5.65252 9.11655C5.4023 8.56837 5.33683 7.96517 5.46439 7.38323C5.59196 6.80129 5.90683 6.26674 6.36918 5.84718C6.83154 5.42762 7.42062 5.1419 8.06193 5.02614C8.70324 4.91039 9.36797 4.9698 9.97207 5.19686C10.5762 5.42392 11.0925 5.80844 11.4558 6.30179C11.819 6.79514 12.0129 7.37516 12.0129 7.9685C12.0129 8.76415 11.6646 9.52721 11.0446 10.0898C10.4246 10.6524 9.58372 10.9685 8.7069 10.9685Z" fill="black"/>
</svg>
