<svg width="12" height="25" viewBox="0 0 12 25" fill="none" xmlns="http://www.w3.org/2000/svg">
<path d="M0.0791016 23.4678C0.0794517 23.0701 0.237717 22.6888 0.519102 22.4078L8.1911 14.7358C8.42332 14.5036 8.60753 14.228 8.7332 13.9247C8.85888 13.6213 8.92357 13.2962 8.92357 12.9678C8.92357 12.6394 8.85888 12.3143 8.7332 12.0109C8.60753 11.7076 8.42332 11.4319 8.1911 11.1998L0.529101 3.53279C0.255864 3.24989 0.104673 2.87098 0.10809 2.47769C0.111508 2.08439 0.269262 1.70817 0.547374 1.43006C0.825486 1.15195 1.2017 0.994197 1.595 0.990779C1.9883 0.987362 2.3672 1.13855 2.6501 1.41179L10.3121 9.07279C11.3423 10.1051 11.9209 11.5039 11.9209 12.9623C11.9209 14.4207 11.3423 15.8195 10.3121 16.8518L2.6401 24.5238C2.43062 24.7334 2.16374 24.8763 1.87315 24.9344C1.58255 24.9925 1.28126 24.9632 1.00729 24.8502C0.73332 24.7372 0.498952 24.5457 0.33376 24.2996C0.168567 24.0536 0.0799539 23.7641 0.0791016 23.4678Z" fill="black"/>
</svg>
