<svg width="17" height="18" viewBox="0 0 17 18" fill="none" xmlns="http://www.w3.org/2000/svg">
<path d="M15.5553 8.34499C15.3207 7.75654 14.9833 7.20704 14.5613 6.72641V4.14238C14.5613 3.71252 14.3683 3.31326 14.0309 3.04616C13.6991 2.78394 13.275 2.68934 12.8641 2.78602C11.5972 3.08859 10.6469 3.80781 10.1381 4.83516H6.41535C4.62374 4.83516 3.01538 5.64063 1.95957 6.9003C1.12659 6.77857 1.22724 5.52934 2.06578 5.53073C2.97304 5.52725 2.97373 4.14307 2.06578 4.1396C-0.145103 4.13264 -0.800385 7.20426 1.18559 8.11058C-0.0354266 10.6285 1.02663 13.8713 3.45409 15.2137V15.2687C3.45548 17.5995 6.74438 18.133 7.50032 15.9642H9.12672C9.88265 18.1344 13.1716 17.5981 13.1729 15.2687V15.2047C14.2558 14.5766 15.0965 13.6049 15.5553 12.4544C16.1252 12.3327 16.6437 11.8646 16.6437 11.0953V9.70413C16.6437 8.93483 16.1245 8.46671 15.5553 8.34499ZM12.4788 9.70413C11.5708 9.69995 11.5708 8.31717 12.4788 8.31299C13.3867 8.31717 13.3867 9.69995 12.4788 9.70413ZM4.18503 3.80016C3.79492 -0.0887533 9.55779 -0.465054 9.70217 3.44403H6.41605C5.6379 3.44403 4.88891 3.57271 4.18503 3.80016Z" fill="black"/>
</svg>
