<svg width="24" height="24" viewBox="0 0 24 24" fill="none" xmlns="http://www.w3.org/2000/svg">
<path d="M12 17.1364C14.2083 17.1364 15.9985 14.8367 15.9985 12C15.9985 9.16321 14.2083 6.86357 12 6.86357C9.79169 6.86357 8.00149 9.16321 8.00149 12C8.00149 14.8367 9.79169 17.1364 12 17.1364Z" fill="black"/>
<path d="M23.2668 8.68571C21.7164 5.44206 18.1897 0 12 0C5.81029 0 2.28359 5.44206 0.733159 8.68571C-0.244386 10.7168 -0.244386 13.2832 0.733159 15.3143C2.28359 18.5579 5.81029 24 12 24C18.1897 24 21.7164 18.5579 23.2668 15.3143C24.2444 13.2832 24.2444 10.7168 23.2668 8.68571ZM12 19.7046C8.68754 19.7046 6.00221 16.2551 6.00221 12C6.00221 7.74484 8.68754 4.29533 12 4.29533C15.3125 4.29533 17.9978 7.74484 17.9978 12C17.9945 16.2533 15.3111 19.7003 12 19.7046Z" fill="black"/>
</svg>
