<svg width="42" height="42" viewBox="0 0 42 42" fill="none" xmlns="http://www.w3.org/2000/svg">
<path d="M21 0C16.8466 0 12.7865 1.23163 9.33303 3.53914C5.8796 5.84665 3.18798 9.1264 1.59854 12.9636C0.00909906 16.8009 -0.406771 21.0233 0.403518 25.0969C1.21381 29.1705 3.21386 32.9123 6.15077 35.8492C9.08767 38.7861 12.8295 40.7862 16.9031 41.5965C20.9767 42.4068 25.1991 41.9909 29.0364 40.4015C32.8736 38.812 36.1534 36.1204 38.4609 32.667C40.7684 29.2135 42 25.1534 42 21C41.994 15.4323 39.7796 10.0944 35.8426 6.15741C31.9056 2.22045 26.5677 0.00602189 21 0ZM14 14C14.9283 14 15.8185 14.3687 16.4749 15.0251C17.1313 15.6815 17.5 16.5717 17.5 17.5C17.5 19.25 15.9338 19.25 14 19.25C12.0663 19.25 10.5 19.25 10.5 17.5C10.5 16.5717 10.8688 15.6815 11.5251 15.0251C12.1815 14.3687 13.0717 14 14 14ZM30.9155 27.5555C28.1367 29.9294 24.6501 31.3164 21 31.5C17.3499 31.3164 13.8633 29.9294 11.0845 27.5555C10.7383 27.2464 10.529 26.8124 10.5027 26.349C10.4897 26.1195 10.5221 25.8898 10.5979 25.6728C10.6737 25.4558 10.7915 25.2559 10.9445 25.0845C11.0976 24.9131 11.2829 24.7734 11.4899 24.6736C11.6969 24.5738 11.9216 24.5157 12.151 24.5027C12.6144 24.4765 13.0693 24.6354 13.4155 24.9445C15.5544 26.7437 18.2112 27.814 21 28C23.7904 27.8139 26.4487 26.7422 28.588 24.941C28.7597 24.7882 28.9598 24.6707 29.1769 24.5952C29.3939 24.5197 29.6238 24.4877 29.8532 24.501C30.0827 24.5143 30.3073 24.5727 30.5141 24.6728C30.721 24.7729 30.9062 24.9128 31.059 25.0845C31.2118 25.2562 31.3293 25.4563 31.4048 25.6733C31.4803 25.8904 31.5123 26.1203 31.499 26.3497C31.4857 26.5792 31.4273 26.8037 31.3272 27.0106C31.2271 27.2175 31.0872 27.4027 30.9155 27.5555ZM28 19.25C26.0663 19.25 24.5 19.25 24.5 17.5C24.5 16.5717 24.8688 15.6815 25.5251 15.0251C26.1815 14.3687 27.0717 14 28 14C28.9283 14 29.8185 14.3687 30.4749 15.0251C31.1313 15.6815 31.5 16.5717 31.5 17.5C31.5 19.25 29.9338 19.25 28 19.25Z" fill="black"/>
</svg>
