<svg width="16" height="31" viewBox="0 0 16 31" fill="none" xmlns="http://www.w3.org/2000/svg">
<path d="M16 1.94058C15.9995 2.45485 15.7857 2.94789 15.4055 3.31131L5.03955 13.2322C4.72579 13.5324 4.4769 13.8889 4.30709 14.2812C4.13728 14.6734 4.04988 15.0939 4.04988 15.5185C4.04988 15.9431 4.13728 16.3636 4.30709 16.7559C4.4769 17.1481 4.72579 17.5046 5.03955 17.8048L15.392 27.7128C15.7612 28.0786 15.9655 28.5686 15.9608 29.0772C15.9562 29.5857 15.7431 30.0722 15.3673 30.4319C14.9915 30.7915 14.4832 30.9955 13.9518 30.9999C13.4204 31.0043 12.9085 30.8088 12.5262 30.4555L2.17378 20.5553C0.781784 19.2204 0 17.4115 0 15.5256C0 13.6397 0.781784 11.8308 2.17378 10.496L12.5397 0.568566C12.8232 0.297117 13.1844 0.112236 13.5776 0.0373198C13.9709 -0.0375968 14.3786 0.000817239 14.749 0.147701C15.1194 0.294585 15.436 0.543337 15.6587 0.862481C15.8814 1.18163 16.0002 1.55682 16 1.94058Z" fill="black"/>
</svg>
