<svg width="70" height="69" viewBox="0 0 70 69" fill="none" xmlns="http://www.w3.org/2000/svg">
<path d="M46.4403 34.466L67.0672 13.837C68.4065 12.3163 69.1158 10.3432 69.0511 8.31869C68.9864 6.29421 68.1525 4.37031 66.719 2.93806C65.2854 1.50581 63.3597 0.672695 61.3333 0.608059C59.307 0.543423 57.332 1.25212 55.8099 2.59009L35.1617 23.1979L14.4763 2.52634C13.7354 1.78611 12.8558 1.19893 11.8878 0.798326C10.9197 0.397718 9.88216 0.191528 8.83435 0.191528C7.78654 0.191528 6.74899 0.397718 5.78095 0.798326C4.8129 1.19893 3.9333 1.78611 3.19239 2.52634C2.45148 3.26656 1.86376 4.14534 1.46278 5.11249C1.0618 6.07964 0.855418 7.11623 0.855418 8.16307C0.855418 9.20991 1.0618 10.2465 1.46278 11.2136C1.86376 12.1808 2.45148 13.0596 3.19239 13.7998L23.8831 34.466L3.2562 55.0898C2.44725 55.8122 1.79434 56.692 1.33742 57.6752C0.880504 58.6585 0.629179 59.7245 0.598825 60.8081C0.568471 61.8917 0.759725 62.9701 1.16089 63.9773C1.56205 64.9846 2.16469 65.8994 2.93193 66.666C3.69917 67.4325 4.61488 68.0346 5.62304 68.4354C6.6312 68.8362 7.71061 69.0272 8.79522 68.9969C9.87984 68.9666 10.9469 68.7155 11.931 68.259C12.9151 67.8025 13.7957 67.1502 14.5189 66.342L35.1617 45.7342L55.7833 66.342C57.2797 67.8369 59.3091 68.6768 61.4253 68.6768C63.5414 68.6768 65.5709 67.8369 67.0672 66.342C68.5636 64.847 69.4042 62.8194 69.4042 60.7053C69.4042 58.5911 68.5636 56.5635 67.0672 55.0685L46.4403 34.466Z" fill="black"/>
</svg>
