<svg width="14" height="13" viewBox="0 0 14 13" fill="none" xmlns="http://www.w3.org/2000/svg">
<path d="M6.31987 2.88169L6.92666 3.99809L7.53345 2.88169C7.77407 2.439 8.12427 2.07036 8.54744 1.81181C8.96457 1.55695 9.43854 1.41759 9.92282 1.40628C10.7098 1.44664 11.4531 1.79974 11.9916 2.39446C12.5351 2.99484 12.8252 3.79244 12.7948 4.61331L12.7943 4.6261V4.63889C12.7943 5.68086 12.2467 6.85591 11.3498 8.0557C10.4645 9.2398 9.30449 10.3615 8.22698 11.2819L8.22651 11.2823C7.86077 11.5953 7.40041 11.7653 6.92666 11.7653C6.45291 11.7653 5.99255 11.5953 5.62681 11.2823L5.62634 11.2819C4.54883 10.3615 3.38879 9.2398 2.50356 8.0557C1.60659 6.85591 1.05899 5.68086 1.05899 4.63889V4.6261L1.05852 4.61331C1.0281 3.79244 1.31818 2.99484 1.86177 2.39446C2.40023 1.79974 3.14348 1.44664 3.9305 1.40628C4.41478 1.41759 4.88875 1.55695 5.30588 1.81181C5.72905 2.07036 6.07925 2.439 6.31987 2.88169Z" stroke="#FF3737" stroke-width="1.38125"/>
</svg>
