<svg width="22" height="22" viewBox="0 0 22 22" fill="none" xmlns="http://www.w3.org/2000/svg">
<path d="M17.4167 0H4.58335C2.0533 0.00305078 0.00305078 2.0533 0 4.58335V17.4167C0.00305078 19.9467 2.0533 21.997 4.58335 22H17.4167C19.9467 21.997 21.997 19.9467 22 17.4167V4.58335C21.997 2.0533 19.9467 0.00305078 17.4167 0ZM18.3333 7.40575L9.8505 15.8886C9.13468 16.6047 7.97388 16.6049 7.25777 15.8891C7.25759 15.8889 7.25742 15.8888 7.25725 15.8886L3.66665 12.2989C3.30795 11.9402 3.30795 11.3587 3.66665 11C4.02536 10.6414 4.60689 10.6413 4.96555 11L8.55521 14.5897L17.039 6.10685C17.3977 5.74943 17.9782 5.75046 18.3356 6.10912C18.693 6.46783 18.692 7.04834 18.3333 7.40575Z" fill="#4FB053"/>
</svg>
