<svg width="44" height="44" viewBox="0 0 44 44" fill="none" xmlns="http://www.w3.org/2000/svg">
<path d="M28.9886 22.1314L41.9735 9.14514C42.8165 8.18785 43.2631 6.94575 43.2223 5.67131C43.1816 4.39688 42.6567 3.18577 41.7542 2.28415C40.8518 1.38253 39.6395 0.858076 38.3639 0.817387C37.0883 0.776697 35.8451 1.22283 34.8869 2.0651L21.8886 15.0379L8.8669 2.02496C8.40049 1.55898 7.84678 1.18935 7.23738 0.937162C6.62798 0.684975 5.97483 0.555176 5.31523 0.555176C4.65562 0.555176 4.00247 0.684975 3.39307 0.937162C2.78368 1.18935 2.22996 1.55898 1.76355 2.02496C1.29714 2.49094 0.92716 3.04414 0.674739 3.65298C0.422319 4.26181 0.292399 4.91435 0.292399 5.57335C0.292399 6.23235 0.422319 6.88489 0.674739 7.49372C0.92716 8.10255 1.29714 8.65575 1.76355 9.12173L14.7886 22.1314L1.80372 35.1142C1.29448 35.569 0.883465 36.1229 0.595828 36.7418C0.308191 37.3608 0.14998 38.0318 0.130872 38.714C0.111763 39.3961 0.23216 40.075 0.484697 40.7091C0.737234 41.3431 1.1166 41.919 1.59959 42.4016C2.08257 42.8841 2.65902 43.2631 3.29367 43.5154C3.92832 43.7677 4.60782 43.888 5.2906 43.8689C5.97337 43.8498 6.64508 43.6918 7.26461 43.4044C7.88414 43.117 8.43847 42.7064 8.89368 42.1976L21.8886 29.2248L34.8701 42.1976C35.8121 43.1387 37.0897 43.6674 38.4218 43.6674C39.7539 43.6674 41.0315 43.1387 41.9735 42.1976C42.9154 41.2565 43.4446 39.9801 43.4446 38.6492C43.4446 37.3183 42.9154 36.042 41.9735 35.1009L28.9886 22.1314Z" fill="black"/>
</svg>
