<svg width="53" height="52" viewBox="0 0 53 52" fill="none" xmlns="http://www.w3.org/2000/svg">
<path d="M53 26C53 40.3594 41.1355 52 26.5 52C11.8645 52 0 40.3594 0 26C0 11.6406 11.8645 0 26.5 0C41.1355 0 53 11.6406 53 26Z" fill="#FFD12B"/>
<path d="M36.625 22.125H29.875V15.375C29.875 14.4799 29.5194 13.6214 28.8865 12.9885C28.2536 12.3556 27.3951 12 26.5 12C25.6049 12 24.7464 12.3556 24.1135 12.9885C23.4806 13.6214 23.125 14.4799 23.125 15.375V22.125H16.375C15.4799 22.125 14.6214 22.4806 13.9885 23.1135C13.3556 23.7464 13 24.6049 13 25.5C13 26.3951 13.3556 27.2536 13.9885 27.8865C14.6214 28.5194 15.4799 28.875 16.375 28.875H23.125V35.625C23.125 36.5201 23.4806 37.3786 24.1135 38.0115C24.7464 38.6444 25.6049 39 26.5 39C27.3951 39 28.2536 38.6444 28.8865 38.0115C29.5194 37.3786 29.875 36.5201 29.875 35.625V28.875H36.625C37.5201 28.875 38.3786 28.5194 39.0115 27.8865C39.6444 27.2536 40 26.3951 40 25.5C40 24.6049 39.6444 23.7464 39.0115 23.1135C38.3786 22.4806 37.5201 22.125 36.625 22.125Z" fill="black"/>
</svg>
