<svg width="16" height="32" viewBox="0 0 16 32" fill="none" xmlns="http://www.w3.org/2000/svg">
<path d="M16 2.44058C15.9995 2.95485 15.7857 3.44789 15.4055 3.81131L5.03955 13.7322C4.72579 14.0324 4.4769 14.3889 4.30709 14.7812C4.13728 15.1734 4.04988 15.5939 4.04988 16.0185C4.04988 16.4431 4.13728 16.8636 4.30709 17.2559C4.4769 17.6481 4.72579 18.0046 5.03955 18.3048L15.392 28.2128C15.7612 28.5786 15.9655 29.0686 15.9608 29.5772C15.9562 30.0857 15.7431 30.5722 15.3673 30.9319C14.9915 31.2915 14.4832 31.4955 13.9518 31.4999C13.4204 31.5043 12.9085 31.3088 12.5262 30.9555L2.17378 21.0553C0.781784 19.7204 0 17.9115 0 16.0256C0 14.1397 0.781784 12.3308 2.17378 10.996L12.5397 1.06857C12.8232 0.797117 13.1844 0.612236 13.5776 0.53732C13.9709 0.462403 14.3786 0.500817 14.749 0.647701C15.1194 0.794585 15.436 1.04334 15.6587 1.36248C15.8814 1.68163 16.0002 2.05682 16 2.44058Z" fill="black"/>
</svg>
