<svg width="54" height="53" viewBox="0 0 54 53" fill="none" xmlns="http://www.w3.org/2000/svg">
<path d="M27 0.738525C21.8452 0.738525 16.8061 2.26711 12.5201 5.13097C8.23398 7.99484 4.89339 12.0654 2.92072 16.8278C0.94806 21.5902 0.431921 26.8307 1.43758 31.8864C2.44323 36.9422 4.92551 41.5862 8.57052 45.2312C12.2155 48.8763 16.8596 51.3585 21.9153 52.3642C26.9711 53.3699 32.2116 52.8537 36.974 50.881C41.7364 48.9084 45.8069 45.5678 48.6708 41.2817C51.5347 36.9956 53.0632 31.9566 53.0632 26.8018C53.0558 19.8917 50.3074 13.2667 45.4213 8.38052C40.5351 3.49434 33.9101 0.745999 27 0.738525ZM18.3123 18.114C19.4643 18.114 20.5692 18.5717 21.3839 19.3863C22.1985 20.2009 22.6561 21.3058 22.6561 22.4579C22.6561 24.6298 20.7123 24.6298 18.3123 24.6298C15.9123 24.6298 13.9684 24.6298 13.9684 22.4579C13.9684 21.3058 14.4261 20.2009 15.2407 19.3863C16.0553 18.5717 17.1602 18.114 18.3123 18.114ZM39.3062 34.9378C35.8575 37.8841 31.5302 39.6056 27 39.8334C22.4698 39.6056 18.1426 37.8841 14.6938 34.9378C14.2641 34.5542 14.0044 34.0156 13.9718 33.4404C13.9557 33.1557 13.9958 32.8705 14.0898 32.6012C14.1839 32.3319 14.3301 32.0838 14.5201 31.8711C14.71 31.6583 14.94 31.485 15.197 31.3611C15.4539 31.2372 15.7327 31.1652 16.0175 31.149C16.5926 31.1164 17.1571 31.3137 17.5868 31.6973C20.2414 33.9303 23.5388 35.2587 27 35.4895C30.4632 35.2585 33.7624 33.9285 36.4175 31.693C36.6306 31.5033 36.8789 31.3574 37.1484 31.2637C37.4178 31.17 37.703 31.1303 37.9878 31.1469C38.2726 31.1634 38.5513 31.2359 38.8081 31.3601C39.0648 31.4844 39.2946 31.658 39.4843 31.8711C39.674 32.0841 39.8198 32.3325 39.9135 32.6019C40.0072 32.8713 40.0469 33.1566 40.0304 33.4413C40.0139 33.7261 39.9414 34.0048 39.8171 34.2616C39.6929 34.5184 39.5193 34.7482 39.3062 34.9378ZM35.6878 24.6298C33.2878 24.6298 31.3439 24.6298 31.3439 22.4579C31.3439 21.3058 31.8015 20.2009 32.6162 19.3863C33.4308 18.5717 34.5357 18.114 35.6878 18.114C36.8398 18.114 37.9447 18.5717 38.7593 19.3863C39.574 20.2009 40.0316 21.3058 40.0316 22.4579C40.0316 24.6298 38.0877 24.6298 35.6878 24.6298Z" fill="black"/>
</svg>
