<svg width="18" height="21" viewBox="0 0 18 21" fill="none" xmlns="http://www.w3.org/2000/svg">
<path d="M9.17101 0.581879C6.98402 0.584285 4.88728 1.45407 3.34077 3.00043C1.79425 4.54679 0.924256 6.64345 0.921631 8.83044C0.921631 10.9546 2.56638 14.2788 5.81043 18.7105C6.19662 19.2396 6.70228 19.67 7.28624 19.9667C7.87021 20.2635 8.51598 20.4181 9.17101 20.4181C9.82604 20.4181 10.4718 20.2635 11.0558 19.9667C11.6397 19.67 12.1454 19.2396 12.5316 18.7105C15.7756 14.2788 17.4204 10.9546 17.4204 8.83044C17.4178 6.64345 16.5478 4.54679 15.0013 3.00043C13.4547 1.45407 11.358 0.584285 9.17101 0.581879ZM9.17101 12.1183C8.51714 12.1183 7.87795 11.9244 7.33428 11.5611C6.79061 11.1978 6.36686 10.6815 6.11664 10.0774C5.86641 9.47332 5.80094 8.80858 5.9285 8.16728C6.05607 7.52597 6.37094 6.93689 6.83329 6.47453C7.29565 6.01218 7.88473 5.69731 8.52604 5.56974C9.16735 5.44218 9.83208 5.50765 10.4362 5.75787C11.0403 6.0081 11.5566 6.43184 11.9199 6.97552C12.2832 7.51919 12.477 8.15838 12.477 8.81225C12.477 9.68907 12.1287 10.53 11.5087 11.15C10.8887 11.77 10.0478 12.1183 9.17101 12.1183Z" fill="black"/>
</svg>
