<svg width="32" height="32" viewBox="0 0 32 32" fill="none" xmlns="http://www.w3.org/2000/svg">
<path d="M21.3204 15.9397L30.9132 6.34594C31.536 5.63873 31.8659 4.72111 31.8358 3.77961C31.8057 2.83811 31.4179 1.94338 30.7512 1.2773C30.0845 0.611219 29.1889 0.223771 28.2466 0.193711C27.3042 0.163652 26.3857 0.493236 25.6779 1.11547L16.0752 10.6993L6.4553 1.08582C6.11073 0.741575 5.70167 0.468502 5.25147 0.282196C4.80127 0.0958905 4.31875 3.62742e-09 3.83146 0C3.34416 -3.62708e-09 2.86164 0.0958905 2.41144 0.282196C1.96124 0.468502 1.55218 0.741575 1.20761 1.08582C0.863045 1.43007 0.589719 1.83876 0.403241 2.28854C0.216762 2.73832 0.120782 3.22039 0.120782 3.70723C0.120782 4.19408 0.216762 4.67615 0.403241 5.12593C0.589719 5.57571 0.863045 5.9844 1.20761 6.32865L10.83 15.9397L1.23729 25.5309C0.86108 25.8669 0.557439 26.276 0.344944 26.7333C0.132449 27.1906 0.0155685 27.6863 0.00145193 28.1903C-0.0126646 28.6942 0.0762799 29.1957 0.262845 29.6642C0.449409 30.1326 0.729671 30.558 1.08648 30.9145C1.44329 31.271 1.86915 31.551 2.33801 31.7374C2.80686 31.9238 3.30885 32.0127 3.81326 31.9986C4.31767 31.9844 4.8139 31.8677 5.27158 31.6554C5.72927 31.4431 6.13878 31.1397 6.47508 30.7639L16.0752 21.18L25.6655 30.7639C26.3614 31.4591 27.3052 31.8497 28.2893 31.8497C29.2735 31.8497 30.2173 31.4591 30.9132 30.7639C31.6091 30.0686 32 29.1257 32 28.1424C32 27.1592 31.6091 26.2163 30.9132 25.521L21.3204 15.9397Z" fill="black"/>
</svg>
