<svg width="44" height="44" viewBox="0 0 44 44" fill="none" xmlns="http://www.w3.org/2000/svg">
<path d="M22.0001 29.4323C20.5723 29.4323 19.1765 29.0089 17.9893 28.2157C16.8021 27.4224 15.8768 26.2949 15.3304 24.9757C14.784 23.6566 14.641 22.205 14.9196 20.8046C15.1981 19.4042 15.8857 18.1179 16.8953 17.1082C17.905 16.0986 19.1913 15.411 20.5917 15.1325C21.9921 14.8539 23.4437 14.9969 24.7628 15.5433C26.082 16.0897 27.2095 17.015 28.0028 18.2022C28.796 19.3894 29.2194 20.7852 29.2194 22.213C29.2194 24.1277 28.4588 25.964 27.105 27.3178C25.7511 28.6717 23.9148 29.4323 22.0001 29.4323ZM2.14711 29.4323C1.66844 29.4323 1.20937 29.2422 0.870905 28.9037C0.532435 28.5652 0.342285 28.1062 0.342285 27.6275C0.359387 25.036 1.30195 22.5358 2.99999 20.578C4.69802 18.6202 7.03975 17.3336 9.60283 16.9502C9.90066 16.9085 10.2042 16.9418 10.4859 17.0472C10.7675 17.1526 11.0184 17.3268 11.2156 17.5538C11.4129 17.7808 11.5503 18.0535 11.6153 18.3471C11.6804 18.6408 11.671 18.946 11.5881 19.2351C11.3116 20.2036 11.1712 21.2058 11.1712 22.213C11.1717 23.8189 11.5332 25.4041 12.2288 26.8514C12.3597 27.1261 12.4189 27.4295 12.4011 27.7332C12.3833 28.037 12.289 28.3313 12.1269 28.5889C11.9648 28.8464 11.7402 29.0588 11.4741 29.2062C11.2079 29.3537 10.9088 29.4315 10.6045 29.4323H2.14711ZM31.0243 43.8709H12.976C12.4974 43.8709 12.0383 43.6807 11.6998 43.3423C11.3614 43.0038 11.1712 42.5447 11.1712 42.0661C11.1712 39.1941 12.3121 36.4397 14.3429 34.4089C16.3738 32.378 19.1281 31.2371 22.0001 31.2371C24.8722 31.2371 27.6265 32.378 29.6574 34.4089C31.6882 36.4397 32.8291 39.1941 32.8291 42.0661C32.8291 42.5447 32.6389 43.0038 32.3005 43.3423C31.962 43.6807 31.5029 43.8709 31.0243 43.8709ZM32.8291 14.9938C31.4012 14.9938 30.0055 14.5703 28.8183 13.7771C27.6311 12.9838 26.7057 11.8563 26.1593 10.5372C25.6129 9.21801 25.4699 7.76646 25.7485 6.36605C26.0271 4.96565 26.7146 3.67929 27.7243 2.66966C28.7339 1.66002 30.0203 0.972453 31.4207 0.693896C32.8211 0.415338 34.2726 0.558304 35.5918 1.10471C36.9109 1.65113 38.0384 2.57644 38.8317 3.76364C39.625 4.95085 40.0484 6.34663 40.0484 7.77447C40.0484 9.68914 39.2878 11.5254 37.9339 12.8793C36.58 14.2332 34.7438 14.9938 32.8291 14.9938ZM11.1712 14.9938C9.74338 14.9938 8.3476 14.5703 7.16039 13.7771C5.97319 12.9838 5.04787 11.8563 4.50146 10.5372C3.95505 9.21801 3.81209 7.76646 4.09065 6.36605C4.3692 4.96565 5.05677 3.67929 6.06641 2.66966C7.07604 1.66002 8.3624 0.972453 9.7628 0.693896C11.1632 0.415338 12.6148 0.558304 13.9339 1.10471C15.2531 1.65113 16.3806 2.57644 17.1738 3.76364C17.9671 4.95085 18.3905 6.34663 18.3905 7.77447C18.3905 9.68914 17.6299 11.5254 16.276 12.8793C14.9221 14.2332 13.0859 14.9938 11.1712 14.9938ZM41.8532 29.4323H33.4012C33.0969 29.4315 32.7978 29.3537 32.5316 29.2062C32.2655 29.0588 32.0409 28.8464 31.8788 28.5889C31.7167 28.3313 31.6224 28.037 31.6046 27.7332C31.5868 27.4295 31.646 27.1261 31.7769 26.8514C32.4706 25.4036 32.8302 23.8185 32.8291 22.213C32.8261 21.2054 32.6828 20.2031 32.4031 19.2351C32.3198 18.9452 32.3104 18.639 32.3758 18.3445C32.4413 18.05 32.5795 17.7767 32.7779 17.5494C32.9763 17.3221 33.2284 17.1482 33.5114 17.0435C33.7943 16.9388 34.0989 16.9067 34.3975 16.9502C36.9605 17.3336 39.3023 18.6202 41.0003 20.578C42.6983 22.5358 43.6409 25.036 43.658 27.6275C43.658 28.1062 43.4679 28.5652 43.1294 28.9037C42.7909 29.2422 42.3319 29.4323 41.8532 29.4323Z" fill="black"/>
</svg>
