<svg width="11" height="12" viewBox="0 0 11 12" fill="none" xmlns="http://www.w3.org/2000/svg">
<path d="M0.537167 9.20255C0.193326 9.54629 0.000103835 10.0125 0 10.4987V11.4397H0.940958C1.42715 11.4396 1.89339 11.2464 2.23712 10.9025L8.35267 4.78697L6.65271 3.08701L0.537167 9.20255Z" fill="black"/>
<path d="M10.6081 0.831553C10.4965 0.719828 10.364 0.631196 10.2181 0.570724C10.0722 0.510252 9.91584 0.479126 9.75792 0.479126C9.6 0.479126 9.44362 0.510252 9.29774 0.570724C9.15185 0.631196 9.01932 0.719828 8.90771 0.831553L7.30079 2.43893L9.00075 4.13889L10.6081 2.53197C10.7199 2.42036 10.8085 2.28783 10.869 2.14194C10.9294 1.99606 10.9606 1.83968 10.9606 1.68176C10.9606 1.52384 10.9294 1.36747 10.869 1.22158C10.8085 1.0757 10.7199 0.943163 10.6081 0.831553Z" fill="black"/>
</svg>
