<svg width="19" height="19" viewBox="0 0 19 19" fill="none" xmlns="http://www.w3.org/2000/svg">
<path d="M0.961891 15.1019C0.367985 15.6956 0.034237 16.501 0.0340576 17.3408V18.966H1.65935C2.49913 18.9659 3.30446 18.6321 3.89818 18.0382L14.4614 7.475L11.5251 4.53871L0.961891 15.1019Z" fill="black"/>
<path d="M18.3572 0.642918C18.1644 0.449938 17.9355 0.296845 17.6835 0.192394C17.4315 0.0879423 17.1614 0.0341797 16.8886 0.0341797C16.6159 0.0341797 16.3458 0.0879423 16.0938 0.192394C15.8418 0.296845 15.6129 0.449938 15.4201 0.642918L12.6445 3.41929L15.5808 6.35559L18.3572 3.58C18.5502 3.38722 18.7033 3.1583 18.8077 2.90631C18.9122 2.65433 18.9659 2.38423 18.9659 2.11146C18.9659 1.83869 18.9122 1.56859 18.8077 1.3166C18.7033 1.06462 18.5502 0.835697 18.3572 0.642918Z" fill="black"/>
</svg>
