<svg width="55" height="56" viewBox="0 0 55 56" fill="none" xmlns="http://www.w3.org/2000/svg">
<path d="M27.5001 0.515991C22.0874 0.515991 16.7963 2.12104 12.2958 5.12816C7.7953 8.13529 4.2876 12.4094 2.21626 17.4101C0.144914 22.4108 -0.397044 27.9134 0.658919 33.222C1.71488 38.5307 4.32134 43.4071 8.14868 47.2344C11.976 51.0618 16.8524 53.6682 22.161 54.7242C27.4697 55.7801 32.9723 55.2382 37.973 53.1668C42.9737 51.0955 47.2478 47.5878 50.2549 43.0873C53.2621 38.5868 54.8671 33.2957 54.8671 27.883C54.8593 20.6272 51.9734 13.6709 46.8428 8.54027C41.7122 3.40966 34.7559 0.523839 27.5001 0.515991ZM18.3777 18.7607C19.5874 18.7607 20.7476 19.2412 21.603 20.0966C22.4584 20.952 22.9389 22.1121 22.9389 23.3218C22.9389 25.6024 20.8978 25.6024 18.3777 25.6024C15.8577 25.6024 13.8166 25.6024 13.8166 23.3218C13.8166 22.1121 14.2971 20.952 15.1525 20.0966C16.0079 19.2412 17.1681 18.7607 18.3777 18.7607ZM40.6043 40.8071C40.202 41.2573 39.6375 41.5295 39.0347 41.5642C38.4319 41.5988 37.84 41.393 37.3887 40.9918C34.6006 38.6447 31.1365 37.2482 27.5001 37.0053C23.8636 37.2479 20.3994 38.6445 17.6115 40.9918C17.1596 41.394 16.5665 41.6003 15.9626 41.5652C15.3587 41.5302 14.7935 41.2566 14.3913 40.8048C13.9891 40.353 13.7828 39.7599 13.8179 39.156C13.8529 38.5521 14.1265 37.9868 14.5783 37.5846C18.1996 34.4909 22.7433 32.6834 27.5001 32.4442C32.2569 32.6834 36.8006 34.4909 40.4219 37.5846C40.6456 37.7841 40.8279 38.0257 40.9582 38.2957C41.0885 38.5657 41.1643 38.8587 41.1812 39.158C41.1981 39.4573 41.1559 39.757 41.0569 40.04C40.9579 40.3229 40.8041 40.5836 40.6043 40.8071ZM36.6224 25.6024C34.1024 25.6024 32.0613 25.6024 32.0613 23.3218C32.0613 22.1121 32.5418 20.952 33.3972 20.0966C34.2526 19.2412 35.4127 18.7607 36.6224 18.7607C37.8321 18.7607 38.9923 19.2412 39.8477 20.0966C40.703 20.952 41.1836 22.1121 41.1836 23.3218C41.1836 25.6024 39.1425 25.6024 36.6224 25.6024Z" fill="black"/>
</svg>
